<?xml version="1.0" standalone="no"?>
<!DOCTYPE svg PUBLIC "-//W3C//DTD SVG 20010904//EN"
 "http://www.w3.org/TR/2001/REC-SVG-20010904/DTD/svg10.dtd">
<svg version="1.0" xmlns="http://www.w3.org/2000/svg"
 width="485.000000pt" height="485.000000pt" viewBox="0 0 485.000000 485.000000"
 preserveAspectRatio="xMidYMid meet">
<metadata>
Created by potrace 1.14, written by Peter Selinger 2001-2017
</metadata>
<g transform="translate(0.000000,485.000000) scale(0.100000,-0.100000)"
fill="#000000" stroke="none">
<path d="M1671 3918 c-109 -222 -307 -623 -440 -893 -133 -269 -246 -497 -251
-505 -6 -8 -14 -25 -20 -38 -23 -53 -182 -367 -192 -379 -6 -7 -8 -13 -5 -13
3 0 -61 -134 -142 -297 -82 -164 -249 -500 -371 -748 -122 -247 -229 -462
-236 -478 l-15 -27 1403 2 1403 3 83 155 c45 85 110 207 144 270 86 161 121
227 199 372 38 69 69 129 69 132 0 3 -391 6 -870 6 -478 0 -870 2 -870 4 0 2
42 90 93 197 52 107 111 230 132 274 21 44 75 158 121 253 46 96 84 175 84
177 0 1 45 97 101 211 56 115 116 241 134 279 18 39 63 133 100 210 37 77 89
185 115 240 58 122 135 283 246 514 46 95 84 175 84 176 0 2 33 71 73 154 l74
151 -524 0 -523 0 -199 -402z"/>
<path d="M3406 3028 c-35 -73 -112 -232 -171 -353 -59 -121 -140 -287 -180
-370 l-73 -150 20 -40 c12 -22 24 -47 28 -56 13 -25 459 -916 615 -1229 l143
-285 526 -3 c289 -1 526 0 526 3 0 4 -13 29 -29 58 -15 29 -68 129 -116 222
-48 94 -113 220 -145 280 -31 61 -90 173 -130 250 -40 77 -102 196 -138 265
-107 207 -186 358 -262 505 -40 77 -94 181 -120 230 -26 50 -90 173 -143 275
-53 102 -123 237 -156 300 -34 63 -73 141 -89 172 -15 32 -31 58 -35 58 -4 0
-36 -60 -71 -132z"/>
</g>
</svg>
