<svg xmlns="http://www.w3.org/2000/svg" viewBox="0 0 3000 2250" width="3000" height="2250"><g transform="translate(870.0 1811.25) rotate(0.0 260.625 26.25) scale(2.8011091586193557 2.761849650165711)"><svg width="186.087" height="19.009" viewBox="0 0 186.087 19.009"><path d="M186.087 0c0 10.498-8.971 19.009-20.036 19.009H20.036C8.971 19.009 0 10.498 0 0z" fill="#eff0f2"/></svg></g><g transform="translate(1447.5 1042.5) rotate(0.0 243.75 384.375) scale(3.7615740740740744 3.764691478942214)"><svg width="129.6" height="204.2" viewBox="0 0 129.6 204.2"><switch><g><path d="m129.6 27.2-3.5-3H3.6l-3.6 3v177h129.6z" fill="#d4e7ff"/><path d="M81.6 182.7 33 184.4l-17.1 11.7 75.4-2.6z" fill="#bedbff"/><path d="M111 0H18.6L0 27.2h129.6z" fill="#016eea"/><path d="M97.2 14.5H32.4c-.8 0-1.5-.7-1.5-1.5s.7-1.5 1.5-1.5h64.8c.8 0 1.5.7 1.5 1.5s-.7 1.5-1.5 1.5z" fill="#002652"/><path d="m109.9 177.9 6.7 11.5-68.1-6.2 15.8-10.1z" fill="#53a0ff"/><path d="m93.7 171-56.3 4-3.3 13.5 70.4-7.8z" fill="#a5cdff"/><path d="M80.4 169.4H31.7l-17.4 11.1h75.4z" fill="#53a0ff"/><path d="M18.5 156.8s8.4 9 19.5 13.2 46.6 5.6 46.6 5.6l14.6-7.7s-32-3.5-43.1-7-15.3-6.3-15.3-6.3z" fill="#bedbff"/></g></switch></svg></g><g transform="translate(926.25 536.25) rotate(0.0 354.375 671.25) scale(3.7639405204460963 3.754194630872483)"><svg width="188.3" height="357.6" viewBox="0 0 188.3 357.6"><switch><g><path d="M99 53.6c-3.8 3.7-4.6 9.5-2.1 14.1l19.1 34.2c3.6 5.2 11 5.7 15.4 1.2l2.5-2.6-24.3-45.3c-2.1-3.9-7.4-4.7-10.6-1.6z" fill="#99644c"/><path d="m117.6 68.4-15.1 8.4-3.8-26.1 6.9 1c2.2.3 4.1 1.7 5.2 3.6z" fill="#016eea"/><path d="m14.5 332.8 3.5-23 17.6 1.9-7.9 21.3z" fill="#99644c"/><path d="m45.6 209.2-17.5 35.7c-.9 1.8-1.5 3.7-1.7 5.6l-9.9 69.7s15.9 3.5 15.4 3.3l23.3-68.1c.4-1.1.7-2.2.8-3.4l4.5-31.2zm52 1.4v39.5c0 1.1-.1 2.3-.3 3.4l-13.2 70.8H68.4l.1-74.1c0-2.1.4-4.3 1.1-6.3l10-28z" fill="#99644c"/><path d="m1.4 355.3 4 1.7c2.6 1.1 5.5.7 7.7-.9l18.3-13.6-.5-4.4-.3-1.3-16.1-6-5.1 10.8-8.9 8s-.6 2.1-.5 2.8c.3 1.9.2 2.4 1.4 2.9z" fill="#016eea"/><path d="M68.4 323.9H84v5.7H68.4z" fill="#99644c"/><path d="M86.9 339.3H65.1v-2.2c0-3 .5-6 1.5-8.8l2-5.5 18.3 6.7z" fill="#2888ff"/><path d="M68.2 321.4v8.4c.5 0 13.5 7.1 13.9 7.5l2.1 2.1h25.7l-.8-2.4c-.4-1.2-1.4-2.1-2.7-2.4L93 331.4c-2.5-.6-4.8-2.1-6.4-4.2l-3.1-4.2c-.7-1-1.8-1.5-3-1.5z" fill="#2888ff"/><path d="M65.1 338.9h44.6v3.3H65.1z" fill="#016eea"/><circle cx="73.6" cy="332" fill="#016eea" r="4"/><path d="M31 328.2v-1.6l1.8-5.2h-8.4c-1.5 0-2.8.9-3.4 2.2L15.5 336l15.6 2.6v-2.7z" fill="#2888ff"/><path d="m1.4 352.1 4 1.7c2.6 1.1 5.5.7 7.7-.9l18.2-13.1-.5-4.4-.1-1.8-16.1-6-5.1 10.8L.7 349c-.9.9-.5 2.6.7 3.1z" fill="#2888ff"/><path d="M26 332c0 2.2 1.8 4 4 4 .4 0 .8-.1 1.1-.2l-.1-7.7c-.3-.1-.7-.1-1-.1-2.2 0-4 1.8-4 4zm90.2-210.5-5.4-12.2-27.3 10.5-27.6 1.2-10.6 81.1c-.6 5-2.1 9.8-4.3 14.3l-11 23.1c-2.1 4.4-3.6 9.1-4.2 14l-3.2 23h79.9L116 141.6l.3-3c.1-1.6.2-15.6-.1-17.1z" fill="#016eea"/><path d="M14.6 332.1h3.2v-8.5c0-1.8-1.5-3.2-3.2-3.2z" fill="#2888ff"/><path d="m117.6 127.6-66 12.6 3.4-37.1-13.3-39.8c-3.4-10.1 5-20.1 15.5-18.7l47.4 6.7v17.3l4 5.6c2 2.8 2.4 6.4 1.1 9.6l-3.6 8.6 9.4 20.9z" fill="#013b84"/><path d="m37.2 104.2 20-46.5c.8-1.9.6-4-.4-5.7l-2.6-4.2c-1.8-2.9-5.6-3.8-8.5-2.1l-1.4.9c-1.2.7-2.1 1.8-2.6 3.1l-21 54.3zm34.6-55.4L81.3 63l2.1 1.7 5 7.4c.6 1 .3.5.3-.7v-6.8l1-1.5-.2-31.4-9.5.5-8.3.5z" fill="#99644c"/><path d="m69.406 31.952 3.963-12.8 15.953 4.937L85.36 36.89z" fill="#99644c"/><path d="m74.6 33.2 6.2-3.6L86.9 9c.5-1.9-.5-3.8-2.4-4.4L83 4.2C75.8 2 68.4 6.8 67.4 14.3l-1.1 8.3c-.4 3.1.2 6.1 1.7 8.8 1.2 2.3 4.3 3.1 6.6 1.8z" fill="#002652"/><path d="m106.2 22.8-1.7 5.9-.3.6-1.4 1.7c-.5.6-.5 1.4-.1 2l.3.6-3.4 11.5c-.5 1.9-2.5 2.9-4.4 2.4L77 42l4.7-15.6z" fill="#99644c"/><path d="m98 39.6 5.4-1c1.2-.2 1.8-1.6 1.1-2.7l-3.7-5.8z" fill="#99644c"/><path d="m102.4 31.8-3.5-1c-.9-.3-1-1.5-.2-1.9l1.2-.7c.2-.1.5-.2.8-.1l3.5 1-1.7 2zM98 39.3l.2.9c.1.5.4.9.8 1.2l1.4.9.6-2.1z" fill="#1d2445" opacity=".1"/><path d="m80.4 29.4 9.1 2.7 2.7-9-9.1-2.7c-2-.6-4.1.6-4.7 2.6l-.5 1.8c-.6 1.9.5 4 2.5 4.6z" fill="#99644c"/><path d="m97.6 8.2-8.8-2.7-4.7 16 20.9 5.2 1-3.3c1.9-6.4-1.9-13.2-8.4-15.2z" fill="#99644c"/><path d="M106.5 17.7c1.7-5.8-4.5-12.8-13.9-15.6-8-2.4-15.7-.9-18.9 3.2-.8 1.1-.3 2.6 1 3z" fill="#002652"/><path d="m108.2 20.6-3.2 1.8c-3.7 2.2-7.9 3.5-12.1 3.9l-9 .8-20 1.7L67.6 12C69.4 3.8 77.5-1.3 85.7.4l9.7 2.1c5.6 1.2 10.3 5 12.5 10.3 1 2.3 1.1 4.8.5 7.2z" fill="#002652"/><path d="M107.3 17.2s-2.6.6-6.5 1.6c-2 .5-4.2 1.1-6.6 1.4-1.2.2-2.5.3-3.8.4s-2.6.1-3.9.1-2.7 0-4-.1h-3.9c-1.3.1-2.5.1-3.6.3-1.1.1-2.2.2-3.2.4-4 .5-6.6 1.3-6.6 1.3v.3s2.7.6 6.7.8c1 .1 2.1.1 3.2.1h3.6c1.2-.1 2.5-.2 3.8-.3s2.6-.2 4-.4c1.3-.1 2.7-.2 4-.5 1.3-.2 2.6-.5 3.9-.8 1.2-.3 2.4-.6 3.5-1s2.1-.8 3.1-1.1c3.8-1.4 6.3-2.3 6.3-2.3z" fill="#013b84"/><path d="M107.1 15.5H97c-3.4 0-6.7.1-10.1.2h-.1c-1.7.2-3.4.3-5.1.5-.8.1-1.7.2-2.5.3s-1.7.3-2.5.5c-1.6.4-3.3.9-4.9 1.4-1.6.6-3.2 1.2-4.8 2l.1.4c1.8.3 3.5.4 5.2.4s3.4-.1 5.1-.3c.8-.1 1.7-.2 2.5-.3s1.7-.3 2.5-.5c1.6-.4 3.3-.9 4.9-1.2h-.1c3.3-.4 6.7-.9 10-1.4s6.7-1 10-1.6z" fill="#013b84"/><path d="M106.7 12.6s-2.5-.4-6.3-.8c-1.9-.2-4.1-.6-6.5-.8s-5-.2-7.7.1c-2.6.3-5.2.7-7.6 1.4-1.2.4-2.2.8-3.2 1.3-1 .4-2 .8-2.8 1.3-3.5 1.6-5.6 3.1-5.6 3.1l.1.3s2.6-.2 6.3-1.1c.9-.2 1.9-.5 3-.8 1-.3 2.2-.7 3.3-1 1.1-.4 2.2-.8 3.4-1.1 1.2-.4 2.4-.6 3.6-.9 2.4-.5 4.9-.7 7.2-.7 1.2 0 2.3 0 3.4.1 1.1 0 2.1 0 3.1.1 3.8.1 6.4.1 6.4.1z" fill="#013b84"/><path d="M105.8 10.2s-2.5-.7-6.2-1.6c-1.9-.5-4-1-6.3-1.6-1.1-.3-2.4-.6-3.7-.7s-2.7-.2-4-.1c-2.7.2-5.4.9-7.7 2.1-1.1.6-2 1.2-3 1.8-.9.6-1.8 1.2-2.5 1.8-3.1 2.2-5 4.1-5 4.1l.1.3s2.5-.7 6-2.3c.9-.4 1.8-.8 2.8-1.3s2-1 3-1.6c1-.5 2-1 3.1-1.5 1.1-.4 2.2-.8 3.4-1s2.4-.3 3.6-.3 2.3.2 3.5.4c2.4.4 4.6.6 6.5.9 3.8.5 6.3.8 6.3.8z" fill="#013b84"/><path d="M104 7.5c-2.3-1.3-4.6-2.5-6.9-3.8H97c-2.8-.6-5.5-1.2-8.3-1.8l-2.1-.4-.6-.1-.5-.1c-.4 0-.8-.1-1.2-.1-1.6-.1-3.1.1-4.6.5s-3 1.1-4.2 2.2c-.6.5-1.2 1.1-1.7 1.7l-1.3 1.7c-.9 1.1-1.7 2.3-2.5 3.5s-1.5 2.4-2.2 3.7l.2.2c1.2-.8 2.3-1.7 3.4-2.7s2.2-2 3.2-3l1.5-1.5c.5-.5.9-.9 1.4-1.3s1-.7 1.5-1.1c.5-.3 1.1-.6 1.7-.9 1.2-.5 2.4-.8 3.7-.8h1.4l.5.1 2.1.3c2.8.3 5.6.7 8.4 1l-.2-.1c2.4 1 4.8 2 7.3 3z" fill="#013b84"/><path d="M60.5 15.9c-6.7.8-11.8 6.2-12.4 12.9l-3.3 38.8 23.7.1.5-44.2c.1-4.6-3.9-8.1-8.5-7.6z" fill="#002652"/><path d="M66.1 18s-.9.1-2.4.3c-.8.1-1.7.2-2.8.4s-2.4.6-3.6 1.2c-1.2.7-2.4 1.6-3.4 2.9s-1.7 2.9-2.1 4.7c-.2.9-.2 1.8-.3 2.6-.1.9-.2 1.7-.3 2.6-.2 1.7-.4 3.5-.5 5.3-.2 1.8-.4 3.5-.6 5.3-.2 1.7-.4 3.4-.5 5.1s-.2 3.3-.2 4.8-.1 3-.1 4.3c0 5.3.4 8.9.4 8.9h.3s.9-3.5 1.7-8.8c.2-1.3.4-2.8.6-4.3s.3-3.1.5-4.8c.1-1.7.2-3.4.2-5.1.1-1.7.1-3.5.2-5.3s.1-3.5.2-5.3c0-.9.1-1.7.1-2.6s.1-1.7.1-2.4c.2-1.5.8-2.9 1.5-4.1.8-1.2 1.8-2.2 2.8-2.9 1.1-.7 2.1-1.1 3.2-1.4 1-.2 2-.4 2.7-.6 1.5-.3 2.4-.5 2.4-.5z" fill="#013b84"/><path d="M67.1 19.4s-.2.1-.6.2-.9.3-1.6.6-1.5.7-2.3 1.2c-.8.6-1.8 1.3-2.7 2.2-1.8 1.8-3.5 4.4-4.2 7.5-.1.4-.2.8-.2 1.2-.1.4-.1.8-.1 1.2-.1.8-.1 1.6-.2 2.4-.1 1.6-.3 3.2-.4 4.8s-.3 3.2-.4 4.8c-.2 1.6-.3 3.2-.4 4.7s-.1 3-.1 4.4 0 2.7.1 4c.2 4.9.7 8.2.7 8.2h.3s.8-3.2 1.4-8.1c.2-1.2.3-2.5.4-3.9s.2-2.9.3-4.4.1-3.1 0-4.7V33.5c0-.4 0-.7.1-1.1 0-.4.1-.7.1-1.1.5-2.9 1.8-5.3 3.3-7.2.8-.9 1.6-1.6 2.3-2.3.8-.6 1.5-1 2.1-1.4.6-.3 1.1-.6 1.5-.7.3-.1.5-.2.5-.2z" fill="#013b84"/><path d="M68.5 19.6s0-.1-.1-.3h-.1c-.1 0-.2.1-.4.2l-.6.3c-.2.1-.5.3-.8.5-1.1.8-2.6 2.3-3.7 4.4-1.2 2.1-2.1 4.8-2.4 7.8l-.3 4.5c-.1 1.5-.2 3.1-.3 4.6-.1 1.6-.2 3.1-.3 4.6l-.3 4.5c0 1.5-.1 2.9 0 4.2 0 1.3.1 2.6.1 3.8.2 4.7.8 7.8.8 7.8h.3s.8-3.1 1.3-7.7c.1-1.2.3-2.4.4-3.8.1-1.3.2-2.7.2-4.2v-4.5c0-1.5 0-3.1-.1-4.6v-9.1c.1-2.8.7-5.4 1.6-7.5.5-1 1-1.9 1.5-2.7.6-.7 1.1-1.3 1.6-1.8.2-.2.5-.4.7-.6s.4-.3.5-.4c.2-.1.3-.2.3-.2 0 .3 0 .3.1.2 0 .1 0 .1 0 0-.1-.2-.1-.3-.1-.3z" fill="#013b84"/><path d="m69.5 19.6-.2-.2c-.1-.1 0 0-.1.1l-.3.3c-.2.3-.6.7-.9 1.3-.7 1.2-1.4 2.9-2 5.2-.6 2.2-1 4.9-1.1 7.7-.2 2.8-.3 5.8-.5 8.8l-.3 4.5c-.1 1.5-.2 2.9-.2 4.3v4.1c0 1.3.1 2.5.2 3.6.3 4.5.9 7.5.9 7.5h.3s.7-3 1.2-7.5c.1-1.1.2-2.3.3-3.6s.2-2.6.2-4.1c0-1.4 0-2.9-.1-4.3 0-1.5-.1-3-.1-4.5-.1-3-.1-6-.2-8.8s.1-5.4.4-7.6.9-4 1.4-5.1c.3-.6.5-1 .7-1.3.1-.1.2-.2.2-.3.2 0 .2 0 .2-.1l-.2-.2z" fill="#013b84"/><path d="M69.2 33.9c.3.1.6.1 1 .1 1.1-.2 1.8-1.2 1.6-2.3l-3-15.8c-.2-1.1-1.2-1.8-2.3-1.6s-1.8 1.2-1.6 2.3l3 15.8c0 .7.6 1.3 1.3 1.5z" fill="#016eea"/><g fill="#002652"><path d="M37.6 35.6c-.1-4.7 5.9-8.7 13.5-8.9 6.5-.2 11.9 2.5 13.5 6.2.4 1-.3 2-1.4 2zm17.3 9.7c-.1-4.7-6.4-8.4-13.9-8.2-6.5.2-11.8 3.1-13.2 6.9-.4 1 .4 2 1.5 2z"/><path d="M51.4 41.3c-.1-4.7-6.4-8.4-13.9-8.2-6.5.2-11.8 3.1-13.2 6.9-.4 1 .4 2 1.5 2z"/><path d="M48.7 35.2c-.1-4.7-6.4-8.4-13.9-8.2-6.5.2-11.8 3.1-13.2 6.9-.4 1 .4 2 1.5 2z"/><path d="M52.6 27.9c-.1-4.7-6.4-8.4-13.9-8.2-6.5.2-11.8 3.1-13.2 6.9-.4 1 .4 2 1.5 2z"/><path d="M35.1 28.4c-.1-4.7 5.9-8.7 13.5-8.9 6.5-.2 11.9 2.5 13.5 6.2.4 1-.3 2-1.4 2z"/></g><path d="m49.7 63.4-14.4 4-.1-18.7 7.5.7 6.6-.2 2.8 5.3-2.7-.5zm-3.956-32.672 9.598-.25.317 12.197-9.597.25z" fill="#99644c"/><path d="m39.687 22.19 6.498-.17.632 24.293-6.498.17z"/><path d="m36.9 49.7 8.1 2.1-.7-28.4c0-1.8-1.6-3.3-3.4-3.2h-1.4c-7.2.2-12.7 6.5-11.9 13.7l.7 5.9c.5 4.8 4 8.7 8.6 9.9z" fill="#002652"/><path d="M58.8 31.2 59 37c0 .2 0 .4-.1.6l-.7 1.9c-.2.6-.1 1.4.5 1.8l1.7.5.1 5.5c.1 4.7-4.4 8.3-9 7l-16.3-4.6z" fill="#99644c"/><path d="m57.3 48.5 3.8-3.8c.9-.9.5-2.3-.7-2.7l-4.8-1.6z" fill="#99644c"/><path d="m49.5 53.9-1.6-.8c-.8-.4-1.5.4-1.2 1.2l2.9 5.8" fill="#1d2445" opacity=".1"/><path d="m39.5 43.1 8.2-.2-.2-7.5-8.2.2c-1.7 0-3 1.4-2.9 3.1v1.5c0 1.6 1.4 2.9 3.1 2.9z" fill="#99644c"/><path d="m39.208 41.566 4.799-.125.19 7.298-4.799.125z" fill="#99644c"/><path d="m52.4 28.7-9.8.3.1 5c-1.6.2-3.1.3-3.3.2-.3-.1 3.3 3.7 5.6 6.1.6.7 1.7.2 1.7-.7v-.3c-.1-2.1 1.6-3.9 3.8-4l2.1-.1z" fill="#002652"/><path d="m58.4 37.4-2.3.1c-.3 0-.5.1-.7.3l-.9 1c-.6.6-.1 1.7.7 1.7l2.7-.1m-.9 6 .5.8c.2.5.7.8 1.2.9l1.7.5-.1-2.3z" fill="#1d2445" opacity=".1"/><path d="M45.3 19.9h1.2c7.1-.2 13.1 5.4 13.2 12.6v.7c0 1-.8 1.9-1.8 1.9l-16.9.4-.3-10.9c.1-2.5 2.1-4.6 4.6-4.7z" fill="#002652"/><path d="m41.6 164.6-6.4-9.5-2.3-4.9c-.2-.3-.4-.6-.6-.8l-2-1.8c-.2-.2-.5-.5-.7-.8l-1.7-2.5-.1-.1-1.2-1.9c-.5-.7-.3-1.7.4-2.1 1.7-1.2 3.7-2 5.7-2.5l2.3-.6L48.7 121l12.2-8.7c.9-.7 2.2-.5 3 .4l2.9 3.5c3.2 3.8 2.7 9.6-1.1 12.8l-21 17.7c-.3.3-.6.6-.7 1l-1.7 5.3c-.5 1.6-.4 3.4.3 5l2.3 4.9c.3.7.1 1.5-.6 2l-.4.3c-.8.3-1.8.1-2.3-.6z" fill="#99644c"/><path d="M72.2 119.5 58 132l-27.6-21.6c-5.1-4-5.3-11.6-.5-15.8l12.8-11.3z" fill="#99644c"/><path d="m41.6 164.6-6.4-9.5-2.3-4.9c-.2-.3-.4-.6-.6-.8l-2-1.8c-.2-.2-.5-.5-.7-.8l-1.7-2.5-.1-.1-1.2-1.9c-.5-.7-.3-1.7.4-2.1 1.7-1.2 3.7-2 5.7-2.5l2.3-.6 11.7-13.9-16.4-12.8c-5.1-4-5.3-11.6-.5-15.8l12.8-11.3 29.5 36.2-3.3 2.9c-.1 2.4-1.2 4.8-3.2 6.5l-21 17.7c-.3.3-.6.6-.7 1l-1.7 5.3c-.5 1.6-.4 3.4.3 5l2.3 4.9c.3.7.1 1.5-.6 2l-.4.3c-.7.4-1.7.2-2.2-.5z" fill="#1d2445" opacity=".1"/><path d="m49.7 55.8 4.2 4.2c3.4 5.2 4.7 11.6 3.4 17.8l-3.8 18.1-22.5 9.3c-2.6 1.1-5.3-1.2-4.7-3.9l3.2-17.9-1-13.9c-.8-5.4 1.7-10.7 6.2-13.6l1.7.9c1 .6 2.2.9 3.3.9l4.6.1c2 .1 3.9-.6 5.4-2z" fill="#d4e7ff"/><path d="m27.2 98.6 4.8-8.9s8.3-3.6 10.8-2.2c3.9 2.1 7.8 4.1 11.4 6.1-5.5-.1-10.1 3.9-11 9.3L41 115.7l-7.9-2.5c-6.1-1.9-8.9-8.9-5.9-14.6z" fill="#d4e7ff"/><path d="m26.4 101.2 3.5-14.9 25.7-.5-1.6 7.7-9 .5-14 11.2c-2.6 1-5.3-1.3-4.6-4zm-7.8-19.3 9.1 6.2 13.1-19.3L30 61.4 18 79c-.7.9-.4 2.2.6 2.9z" fill="#d4e7ff"/><path d="m52.3 135.7-9.6-7.6 3.4-5.2-13.9-10.5 7.8-5 26.8 8.7-9.1 14.9z" fill="#bedbff"/><path d="m52.2 158.9-6.2-9.6-2.3-5c-.1-.3-.4-.6-.6-.9l-2-1.9c-.2-.2-.5-.5-.7-.8l-1.6-2.5-.1-.1-1.2-1.9c-.5-.7-.3-1.7.4-2.1 1.7-1.2 3.7-2 5.7-2.5l2.3-.5 13.8-16 12.3-8.6c.9-.7 2.2-.5 3 .4l2.9 3.5c3.2 3.9 2.6 9.6-1.3 12.8L55.4 141c-.3.3-.6.6-.7 1l-1.8 5.3c-.6 1.6-.5 3.4.2 5l2.2 4.9c.3.7.1 1.5-.6 2l-.4.3c-.7.4-1.7.2-2.1-.6z" fill="#99644c"/><path d="M74.3 106.3c2.7 2.4 4.7 5.8 4.7 5.8l-12.4 11.8-33.4-10.6c-6.1-1.9-9-9-6-14.7l8.1-15.1c18.3 9.8 35.6 19.6 39 22.8z" fill="#d4e7ff"/><path d="m51.4 122.6 13.2 13.2L78 122.4c3.2-3.2 3.2-8.3 0-11.5l-5-5c-1.4-1.4-3.6-1.4-5 0z" fill="#d4e7ff"/><path d="M43.3 105.6s0 .1 0 0c.5 1 .1 2.3-.9 3.2l-8.6 5.9c-.3.2-.7.2-1 .1l-1.2-.5c-.9-.4-1.3-1.4-.9-2.3l.2-.5c.1-.2.3-.4.5-.5l11-5.7c.2-.1.7 0 .9.3z" fill="#99644c"/><path d="M45.6 107.6c.5 1 .3 2.3-.6 3.2l-8.1 6.7c-.3.2-.6.3-1 .2l-1.2-.4c-.9-.3-1.4-1.3-1.1-2.2l.1-.5c.1-.2.2-.4.4-.6l10.5-6.6c.3-.2.8-.1 1 .2z" fill="#99644c"/><path d="M47.6 109.9c.5.9.4 2.1-.5 3.1l-7.2 6.4c-.4.3-.9.4-1.3.3l-.5-.1c-1.1-.3-1.8-1.5-1.5-2.6.1-.2.2-.4.4-.6l9.6-6.6c.4-.2.8-.1 1 .1z" fill="#99644c"/><path d="M49.9 113.1c.4.9.1 2-.8 2.7l-6.2 4.5c-.3.2-.6.2-.9.1l-1-.4c-.8-.3-1.1-1.2-.8-2l.2-.4c.1-.2.2-.4.4-.5l8.2-4.3c.4-.1.7 0 .9.3zm-23.6-10.6c.1.5 1.9 4.1 2.1 4.5 1 2.8-.9 4.8-1 5v.1l-1 6.1c-.1 1-.8 1.7-1.7 1.9-.5 0-.9-.3-1.1-.8l.3-1.5c-.4.6-.7.7-1.4.6-.6-.1-1.1-.1-1.2-.5v-.6c-.5.6-1 .1-1.8 0-.5-.1-.8-.6-.7-1.2v-.3c-.5.4-.7.5-1.3.3-.3-.1-1.1-.3-1.1-.6v-3.6l-.1-2.6v-.1c.2-1.4.5-2.7.9-4l.6-1.7c.2-.6.3-1.3.1-2l1.8-5.3 4.2-.8z" fill="#99644c"/><path d="m17.5 104.7-1.1-8.3c-.5-3.4-.4-6.8.2-10.1l1.2-6.2 12.4 2.6-2.9 22.3z" fill="#d4e7ff"/><path d="m166.9 89.9-.5-7.3c-.5-.7-1.2-1.1-2-1.2-.3 0-.7 0-1 .1l-47.2 17.1.9 4.1c1.4 6.1 7.9 9.6 13.8 7.3l7.1-2.7z" fill="#99644c"/><path d="m164.9 80.9-10.9 5 7.7 2c3.7 2.8 3.8 1.9 6 3.4 3.5 2.7 6.6-1 10.2.5l2-3.8-1.2-.8c-1.2-.8-1-3-.2-2.5s5.8 3.6 5.8 3.6l1.1 3.3.2 1.8c0 .4.2.9.4 1.2.7 1.2 2.1 1.3 2.3.7v-4c0-.3 0-.5-.1-.8-.2-.8-.8-2.6-1.1-3.3-.2-.6-.5-1.2-1-1.6l-5.6-5.6c-.9-.9-2.3-1.3-3.5-.8z" fill="#99644c"/><path d="M178 91.7s2.9 1.3 5.6 2.4c2.7 1.2 3.4-1.5 1.5-2.8L180 88z" fill="#99644c"/><path d="M89.6 63h-8.3l6.5 10c.6.9 1.9.5 1.9-.6z" fill="#016eea"/></g></switch></svg></g><g transform="translate(1545.0 847.5) rotate(0.0 106.875 125.625) scale(3.9292279411764706 3.9504716981132075)"><svg width="54.4" height="63.6" viewBox="0 0 54.4 63.6"><switch><g><path d="M.057 11.998 38.333.044 54.46 51.682 16.184 63.636z" fill="#a5cdff"/><path d="m31.1 45.1-18-10 2-3.5L28.3 39l5.2-24.8 3.9.8z" fill="#016eea"/></g></switch></svg></g><g transform="translate(465.0 266.25) rotate(0.0 131.25 772.5) scale(3.776978417266187 3.7525867345451718)"><svg width="69.5" height="411.716" viewBox="0 0 69.5 411.716"><g fill="#2888ff"><path d="M35.685 409.915a2.5 2.5 0 0 1-2.5-2.5V18.934a2.5 2.5 0 1 1 5 0v388.481a2.5 2.5 0 0 1-2.5 2.5z"/><circle cx="35.685" cy="3.762" r="3.762"/><path d="M38.185 18.914h-5l1.507-12.461c.142-1.173 1.844-1.173 1.986 0z"/></g><path d="M38.185 18.914 64.5 162.883l5 115.5-26 6-18.5 14.5-14-49L33.185 18.914z" fill="#7eb8ff"/><path d="m11 247.883 29-30-9-179.5z" fill="#bedbff"/><path d="m33 21.383-33 168.5 40 28z" fill="#93c3ff"/><path d="M32.018 392.383h7.333v17.333h-7.333z" fill="#2888ff"/><path d="m35.685 405.049-19.667 3.334v3.333h39.334v-3.333z" fill="#2888ff"/></svg></g><g transform="translate(2250.0 266.25) rotate(0.0 131.25 772.5) scale(3.776978417266187 3.7525867345451718)"><svg width="69.5" height="411.716" viewBox="0 0 69.5 411.716"><g fill="#2888ff"><path d="M35.685 409.915a2.5 2.5 0 0 1-2.5-2.5V18.934a2.5 2.5 0 1 1 5 0v388.481a2.5 2.5 0 0 1-2.5 2.5z"/><circle cx="35.685" cy="3.762" r="3.762"/><path d="M38.185 18.914h-5l1.507-12.461c.142-1.173 1.844-1.173 1.986 0z"/></g><path d="M38.185 18.914 64.5 162.883l5 115.5-26 6-18.5 14.5-14-49L33.185 18.914z" fill="#7eb8ff"/><path d="m11 247.883 29-30-9-179.5z" fill="#bedbff"/><path d="m33 21.383-33 168.5 40 28z" fill="#93c3ff"/><path d="M32.018 392.383h7.333v17.333h-7.333z" fill="#2888ff"/><path d="m35.685 405.049-19.667 3.334v3.333h39.334v-3.333z" fill="#2888ff"/></svg></g><g transform="translate(1590.0 862.5) rotate(0.0 16.875 13.125) scale(4.166666666666667 4.1015625)"><svg width="8.1" height="6.4" viewBox="0 0 8.1 6.4"><switch><path d="M0 3.7S2.9 5 5.6 6.1C8.2 7.3 8.9 4.6 7 3.3L2 0z" fill="#99644c"/></switch></svg></g></svg>