<svg width="535" height="445" viewBox="0 0 535 445" fill="none" xmlns="http://www.w3.org/2000/svg">
<g clip-path="url(#clip0_336_1646)">
<path d="M338.526 373.941L335.496 372.402C329.868 369.543 325.143 365.186 321.842 359.814C318.541 354.441 316.794 348.262 316.794 341.96V236.144H228.638V341.96C228.638 348.262 226.891 354.441 223.59 359.814C220.29 365.187 215.564 369.543 209.936 372.402L206.906 373.941C204.767 375.028 205.541 378.248 207.942 378.248H337.488C339.889 378.25 340.665 375.028 338.526 373.941Z" fill="#E8E9EC"/>
<path d="M495.599 51.175H49.8352C46.809 51.175 43.9067 52.3747 41.7668 54.5102C39.627 56.6457 38.4248 59.542 38.4248 62.5619V270.79L45.271 276.526V292.577C45.271 295.597 46.4732 298.494 48.613 300.629C50.7529 302.764 53.6552 303.964 56.6814 303.964H488.753C491.779 303.964 494.682 302.764 496.822 300.629C498.961 298.494 500.164 295.597 500.164 292.577V279.006L507.01 270.787V62.5619C507.01 59.542 505.808 56.6457 503.668 54.5102C501.528 52.3747 498.626 51.175 495.599 51.175Z" fill="#BBBDC7"/>
<path d="M507.01 270.79H38.4247V299.41C38.4247 302.43 39.6268 305.326 41.7667 307.461C43.9066 309.597 46.8088 310.796 49.8351 310.796H495.599C498.626 310.796 501.528 309.597 503.668 307.461C505.808 305.326 507.01 302.43 507.01 299.41V270.79Z" fill="#F3F4F6"/>
<path d="M54.5111 66.5861H490.923V255.572H54.5111V66.5861Z" fill="#DDDEE3"/>
<path d="M277.162 300.359H268.273C265.763 300.359 263.709 298.31 263.709 295.804V286.934C263.709 284.429 265.763 282.379 268.273 282.379H277.162C279.672 282.379 281.726 284.429 281.726 286.934V295.804C281.726 298.31 279.672 300.359 277.162 300.359Z" fill="#E8E9EC"/>
</g>
<g clip-path="url(#clip1_336_1646)">
<path d="M388.658 246.524L388.658 81.8861L432.676 81.8861L432.676 246.524L388.658 246.524Z" fill="#AAC6FC"/>
<path d="M435.588 81.8861L435.588 246.524C435.588 248.147 434.307 249.423 432.676 249.423L388.659 249.423C387.028 249.423 385.748 248.147 385.748 246.524L385.748 81.8861C385.748 80.2629 387.028 78.9875 388.659 78.9875L432.676 78.9875C434.307 78.9875 435.588 80.2629 435.588 81.8861ZM429.765 243.625L429.765 84.7847L391.57 84.7847L391.57 243.625L429.765 243.625Z" fill="#AAC6FC"/>
</g>
<g clip-path="url(#clip2_336_1646)">
<path d="M432.713 246.524L432.713 81.8861L476.731 81.8861L476.731 246.524L432.713 246.524Z" fill="#AAC6FC"/>
<path d="M479.642 81.8861L479.642 246.524C479.642 248.147 478.361 249.423 476.731 249.423L432.714 249.423C431.083 249.423 429.802 248.147 429.802 246.524L429.802 81.8861C429.802 80.2629 431.083 78.9875 432.714 78.9875L476.731 78.9875C478.361 78.9875 479.642 80.2629 479.642 81.8861ZM473.82 243.625L473.82 84.7847L435.625 84.7847L435.625 243.625L473.82 243.625Z" fill="#AAC6FC"/>
</g>
<g clip-path="url(#clip3_336_1646)">
<path d="M410.437 235.451H457.73C462.316 235.451 466.034 231.861 466.034 227.432C466.034 223.003 462.316 219.413 457.73 219.413H410.437C408.905 219.413 407.435 220.001 406.352 221.047C405.269 222.093 404.66 223.512 404.66 224.992V229.873C404.66 230.605 404.809 231.331 405.1 232.008C405.39 232.685 405.815 233.3 406.352 233.818C406.888 234.336 407.525 234.747 408.226 235.027C408.927 235.307 409.678 235.452 410.437 235.451Z" fill="#D4E7FF"/>
<path d="M457.975 236.295C453.02 236.295 448.99 232.402 448.99 227.617C448.99 222.833 453.02 218.94 457.975 218.94C462.929 218.94 466.96 222.833 466.96 227.617C466.96 232.402 462.929 236.295 457.975 236.295ZM457.975 220.139C453.705 220.139 450.231 223.494 450.231 227.617C450.231 231.741 453.705 235.096 457.975 235.096C462.245 235.096 465.718 231.741 465.718 227.617C465.718 223.494 462.245 220.139 457.975 220.139Z" fill="white"/>
</g>
<g clip-path="url(#clip4_336_1646)">
<path d="M470.52 89.4451L470.52 191.35L395.315 191.35L395.315 89.4451L470.52 89.4451Z" fill="white"/>
</g>
<g clip-path="url(#clip5_336_1646)">
<path d="M375.067 66.9725L375.067 255.653L235.782 255.653L235.782 66.9725L375.067 66.9725Z" fill="white"/>
</g>
<g clip-path="url(#clip6_336_1646)">
<path d="M236.672 66.9725L236.672 255.653L97.3874 255.653L97.3874 66.9725L236.672 66.9725Z" fill="white"/>
</g>
<g clip-path="url(#clip7_336_1646)">
<path d="M193.507 66.9725L193.507 255.653L54.2225 255.653L54.2225 66.9725L193.507 66.9725Z" fill="white"/>
</g>
<g clip-path="url(#clip8_336_1646)">
<path d="M81.1449 206.48H284.065V238.965H81.1449V206.48Z" fill="#AAC6FC"/>
</g>
<g clip-path="url(#clip9_336_1646)">
<path d="M84.5954 81.7769H280.613V134.048H84.5954V81.7769Z" fill="#2888FF"/>
<path d="M280.614 137.505H84.5959C82.6634 137.505 81.1449 135.984 81.1449 134.048V81.7771C81.1449 79.8411 82.6634 78.32 84.5959 78.32H280.614C282.546 78.32 284.065 79.8411 284.065 81.7771V134.048C284.065 135.984 282.546 137.505 280.614 137.505ZM88.047 130.591H277.163V85.2341H88.047V130.591Z" fill="#2888FF"/>
</g>
<g clip-path="url(#clip10_336_1646)">
<path d="M84.5954 140.962H280.613V193.233H84.5954V140.962Z" fill="#2888FF"/>
<path d="M280.614 196.69H84.5959C82.6634 196.69 81.1449 195.169 81.1449 193.233V140.962C81.1449 139.026 82.6634 137.505 84.5959 137.505H280.614C282.546 137.505 284.065 139.026 284.065 140.962V193.233C284.065 195.169 282.546 196.69 280.614 196.69ZM88.047 189.776H277.163V144.419H88.047V189.776Z" fill="#2888FF"/>
</g>
<g clip-path="url(#clip11_336_1646)">
<path d="M84.5954 105.807H280.613V158.078H84.5954V105.807Z" fill="#2888FF"/>
<path d="M280.614 161.535H84.5959C82.6634 161.535 81.1449 160.014 81.1449 158.078V105.807C81.1449 103.871 82.6634 102.35 84.5959 102.35H280.614C282.546 102.35 284.065 103.871 284.065 105.807V158.078C284.065 160.014 282.546 161.535 280.614 161.535ZM88.047 154.621H277.163V109.264H88.047V154.621Z" fill="#2888FF"/>
</g>
<g clip-path="url(#clip12_336_1646)">
<path d="M351.125 116.958H319.22V85.2737H351.125V116.958ZM323.824 112.386H346.522V89.8455H323.824V112.386Z" fill="#EDEEF0"/>
<path d="M339.508 114.739L328.355 95.3561L333.684 92.3311L340.111 103.5L358.744 77.875L363.72 81.4441L339.508 114.739Z" fill="#2888FF"/>
<path d="M351.125 165.724H319.22V134.04H351.125V165.724ZM323.824 161.152H346.522V138.612H323.824V161.152ZM351.125 214.49H319.22V182.806H351.125V214.49ZM323.824 209.918H346.522V187.378H323.824V209.918Z" fill="#EDEEF0"/>
<path d="M332.286 186.745L351.03 205.36L346.687 209.67L327.946 191.058L332.286 186.745Z" fill="#2888FF"/>
<path d="M354.616 181.748L358.956 186.058L332.791 212.044L328.45 207.734L354.616 181.748Z" fill="#2888FF"/>
</g>
<g clip-path="url(#clip13_336_1646)">
<path d="M116.201 166.598L121.755 185.196L133.921 154.74L128.003 152.357L122.812 150.267L120.618 155.76L116.201 166.598ZM129.993 138.397H137.405V147.857H129.993V138.397Z" fill="#99644C"/>
<path d="M125.47 131.598H130.496V150.517H125.47V131.598Z" fill="black"/>
<path d="M123.316 154.216L128.992 156.748V132.624C128.992 131.944 128.723 131.292 128.244 130.811C127.765 130.331 127.116 130.061 126.439 130.061H125.29C119.818 130.061 115.631 134.953 116.455 140.385L117.366 146.391C117.624 148.092 118.304 149.7 119.344 151.067C120.384 152.435 121.75 153.518 123.316 154.216Z" fill="black"/>
<path d="M140.966 138.997V143.509C140.966 143.673 140.935 143.835 140.873 143.988L140.278 145.475C140.18 145.719 140.16 145.987 140.219 146.243C140.278 146.499 140.414 146.731 140.609 146.907L140.966 147.229V155.956C140.966 156.294 140.899 156.628 140.77 156.939C140.641 157.251 140.452 157.534 140.214 157.772C139.976 158.011 139.693 158.199 139.382 158.327C139.071 158.455 138.738 158.521 138.402 158.519L122.272 158.453L122.338 152.938L140.966 138.997Z" fill="#99644C"/>
<path d="M124.725 146.637H128.436V152.309H124.725V146.637Z" fill="#99644C"/>
<path d="M124.867 147.844H130.679V142.043H124.867C124.251 142.043 123.66 142.288 123.224 142.726C122.788 143.163 122.543 143.757 122.543 144.376V145.51C122.543 145.817 122.603 146.12 122.72 146.403C122.837 146.687 123.008 146.944 123.224 147.161C123.44 147.377 123.696 147.549 123.978 147.666C124.26 147.784 124.562 147.844 124.867 147.844Z" fill="#99644C"/>
<path d="M135.184 136.899H127.593V140.807C126.38 140.904 125.22 140.977 125.049 140.919C124.788 140.832 127.527 143.877 129.245 145.766C129.717 146.285 130.577 145.95 130.577 145.247V142.748C130.577 142.324 130.919 141.979 131.342 141.979H135.184V136.899Z" fill="black"/>
<path d="M132.256 130.573H131.922C131.245 130.573 130.595 130.843 130.117 131.324C129.638 131.804 129.369 132.456 129.369 133.136V142.039H141.193V139.545C141.193 134.59 137.192 130.573 132.256 130.573Z" fill="#99644C"/>
<path d="M121.503 133.795H130.44V151.097C130.44 152.457 129.902 153.761 128.945 154.723C127.987 155.684 126.688 156.225 125.333 156.225H121.503V133.795Z" fill="black"/>
<path d="M127.368 130.848H137.89V136.872C137.89 137.545 137.758 138.212 137.501 138.834C137.245 139.456 136.869 140.021 136.394 140.497C135.92 140.973 135.357 141.351 134.737 141.609C134.118 141.866 133.454 141.999 132.783 141.999H127.367L127.368 130.848Z" fill="black"/>
<path d="M137.55 158.926H132.377V146.743H139.683C140.192 146.743 140.681 146.946 141.041 147.307C141.401 147.669 141.603 148.159 141.603 148.671V154.858C141.603 155.937 141.176 156.972 140.416 157.734C139.656 158.497 138.625 158.926 137.55 158.926Z" fill="#99644C"/>
<path d="M139.279 165.954L113.511 158.518C113.002 158.371 112.555 158.062 112.236 157.637C111.918 157.213 111.745 156.696 111.745 156.164V138.845C111.745 133.436 116.114 129.05 121.503 129.05H131.474C135.785 129.05 139.279 132.558 139.279 136.886V165.954Z" fill="#153152"/>
<path d="M141.94 142.043H124.091V129.05H132.579C138.288 129.05 142.916 133.696 142.916 139.427V141.063C142.916 141.605 142.479 142.043 141.94 142.043Z" fill="#153152"/>
<path d="M77.4647 169.911L83.5375 170.958V208.945C83.5383 210.131 83.086 211.272 82.2737 212.132C81.4615 212.993 80.3512 213.508 79.172 213.571C77.9927 213.634 76.8343 213.24 75.9357 212.471C75.0371 211.702 74.4668 210.615 74.3424 209.436L73.4577 201.122C73.2821 199.473 73.3168 197.809 73.5611 196.169L77.4647 169.911Z" fill="#99644C"/>
<path d="M76.6547 167.896L76.7114 175.214L80.4192 173.47L80.7216 173.421C81.7218 173.234 82.6691 172.829 83.4972 172.235C84.3285 171.647 85.0212 170.883 85.5263 169.997L85.5364 170.007L91.0347 160.78C91.0986 160.683 91.1276 160.567 91.117 160.451C91.1064 160.335 91.0568 160.226 90.9764 160.143C90.9569 160.123 90.9375 160.104 90.9181 160.089C90.8185 160.006 90.7037 159.944 90.5801 159.906C90.4566 159.868 90.3268 159.854 90.1981 159.867C90.0694 159.879 89.9444 159.916 89.8302 159.977C89.7161 160.038 89.6149 160.121 89.5326 160.221L86.1468 163.752C86.0115 163.891 85.8423 163.991 85.656 164.044C85.4697 164.096 85.273 164.098 85.0856 164.05C84.8982 164.002 84.7268 163.905 84.5885 163.769C84.4502 163.634 84.35 163.464 84.2979 163.277L81.7852 155.886L79.9068 156.956C79.7496 157.045 79.6171 157.173 79.5217 157.327C79.4262 157.481 79.3707 157.657 79.3603 157.838L79.3261 158.428C79.2919 159.006 79.1947 159.579 79.0384 160.137L77.5845 165.289C77.4777 165.67 77.3191 166.035 77.1134 166.372C76.8312 166.836 76.65 167.354 76.6547 167.896Z" fill="#99644C"/>
<path d="M80.3687 148.122C80.9511 148.18 81.4634 148.703 81.5699 149.418L82.321 160.381L79.18 162.164L79.9917 148.503C79.9909 148.454 79.9999 148.405 80.018 148.359C80.0361 148.313 80.063 148.272 80.0971 148.236C80.1313 148.201 80.172 148.173 80.217 148.153C80.262 148.134 80.3104 148.124 80.3594 148.123L80.3687 148.122Z" fill="#99644C"/>
<path d="M75.2728 205.186L88.2308 188.219L96.6228 172.601L106.085 187.372L87.8996 207.089L83.6329 212.03C82.7133 213.093 81.418 213.754 80.021 213.875C78.6241 213.995 77.2354 213.565 76.1488 212.675C75.0622 211.786 74.3632 210.507 74.1997 209.109C74.0362 207.711 74.4211 206.304 75.2728 205.186Z" fill="#013B84"/>
<path d="M126.833 233.583H91.3161L95.397 207.242L98.4703 176.8L139.309 181.72L140.467 200.779C140.541 201.995 140.331 203.212 139.852 204.332C139.374 205.452 138.64 206.444 137.711 207.228L132.468 211.655C131.065 212.84 130.124 214.485 129.811 216.299L126.833 233.583Z" fill="#013B84"/>
<path d="M141.601 174.586L110.534 165.959C101.712 163.51 93.6463 171.751 96.2415 180.563L97.0695 183.374L155.532 183.955L145.425 176.456C144.275 175.602 142.979 174.969 141.601 174.586Z" fill="#013B84"/>
<path d="M78.1006 390.937L87.1347 394.087L90.271 385.02C90.406 384.63 90.4631 384.218 90.4391 383.806C90.4151 383.394 90.3105 382.99 90.1313 382.619C89.952 382.247 89.7016 381.915 89.3943 381.641C89.0871 381.366 88.729 381.155 88.3406 381.02L85.2222 379.933C84.8338 379.797 84.4226 379.74 84.0122 379.764C83.6017 379.788 83.2 379.893 82.83 380.073C82.46 380.253 82.1289 380.505 81.8557 380.813C81.5825 381.121 81.3725 381.481 81.2377 381.871L78.1006 390.937Z" fill="#001452"/>
<path d="M89.5157 390.407C89.5157 390.407 91.038 396.182 91.8209 396.841C92.7647 397.637 95.5745 400.062 95.5745 400.062C96.3237 400.208 96.9889 400.636 97.4343 401.259C97.8796 401.881 98.0715 402.651 97.9706 403.41L97.7327 405.201L94.4899 404.841L82.9065 398.052L89.5157 390.407Z" fill="#7EB8FF"/>
<path d="M94.2447 308.843L83.2701 335.663C82.6201 336.991 81.7548 339.639 81.5464 341.104L74.5259 392.27C74.5259 392.27 84.8312 394.513 84.4308 394.38L104.031 342.858L108.007 312.875L94.2447 308.843Z" fill="#013B84"/>
<path d="M126.947 233.149L129.269 250.229C129.611 252.744 129.337 255.304 128.47 257.689L107.816 314.542C107.816 314.542 95.9786 314.665 92.4956 314.697L96.966 268.061L103.159 233.294L126.947 233.149Z" fill="#013B84"/>
<path d="M211.836 173.358L207.414 167.48L185.221 178.912L172.574 186.498L173.719 192.806L174.845 195.938C174.936 196.192 175.08 196.423 175.269 196.615C175.457 196.807 175.684 196.957 175.935 197.053C176.186 197.149 176.455 197.189 176.723 197.171C176.991 197.153 177.252 197.077 177.488 196.949L188.952 190.709L211.836 173.358Z" fill="#99644C"/>
<path d="M210.889 174.694L204.299 178.938L203.684 174.558L203.55 174.255C203.13 173.24 202.936 172.145 202.982 171.047C203.021 169.949 203.299 168.872 203.797 167.894L203.783 167.891L208.833 157.489C208.883 157.374 208.97 157.28 209.08 157.221C209.19 157.163 209.317 157.144 209.44 157.167C209.468 157.174 209.498 157.18 209.522 157.189C209.655 157.23 209.778 157.297 209.885 157.387C209.992 157.476 210.081 157.586 210.145 157.709C210.21 157.833 210.25 157.968 210.262 158.107C210.274 158.247 210.259 158.387 210.218 158.52L209.038 163.661C208.993 163.865 209.002 164.077 209.065 164.276C209.128 164.475 209.241 164.655 209.395 164.796C209.548 164.937 209.736 165.035 209.939 165.081C210.142 165.126 210.354 165.117 210.552 165.054L218.665 162.981L218.848 165.944L217.829 166.701C217.33 167.072 216.873 167.497 216.464 167.967L212.693 172.313C212.383 172.669 212.129 173.071 211.94 173.504C211.725 173.999 211.342 174.402 210.889 174.694Z" fill="#99644C"/>
<path d="M227.079 161.732C226.803 161.163 226.086 160.84 225.327 161L214.026 164.336L213.883 168.283L226.838 162.257C226.887 162.24 226.933 162.213 226.972 162.177C227.012 162.142 227.043 162.099 227.066 162.051C227.089 162.003 227.102 161.952 227.105 161.899C227.108 161.846 227.1 161.793 227.082 161.743L227.079 161.732ZM226.789 163.853C226.417 163.342 225.653 163.153 224.935 163.445L213.892 169.026L213.966 172.925L226.645 164.412C226.691 164.385 226.732 164.349 226.765 164.306C226.797 164.264 226.821 164.215 226.834 164.163C226.848 164.111 226.851 164.056 226.843 164.003C226.835 163.95 226.817 163.899 226.789 163.853Z" fill="#99644C"/>
<path d="M225.263 167.007C224.912 166.482 224.157 166.262 223.427 166.526L212.695 171.401L212.613 175.299L225.096 167.56C225.191 167.511 225.262 167.426 225.294 167.324C225.326 167.222 225.317 167.111 225.268 167.016L225.263 167.007Z" fill="#99644C"/>
<path d="M223.008 172.549C222.843 171.939 222.197 171.487 221.422 171.502L209.7 172.669L208.38 176.336L222.674 173.02C222.726 173.012 222.776 172.993 222.821 172.966C222.866 172.939 222.906 172.903 222.937 172.86C222.968 172.817 222.991 172.769 223.003 172.717C223.016 172.666 223.018 172.612 223.01 172.56L223.008 172.549Z" fill="#99644C"/>
<path d="M89.5583 238.039L87.2865 256.518L122.52 309.233L132.535 324.259L135.554 292.8C135.822 290.002 135.334 287.184 134.139 284.643L109.223 231.622L89.5583 238.039Z" fill="#013B84"/>
<path d="M133.658 283.985V312.239L123.189 368.811C123.189 368.811 110.509 368.777 110.945 368.801L111.006 317.416L119.68 288.103L133.658 283.985Z" fill="#013B84"/>
<path d="M111.759 368.521H123.884V372.947H111.759V368.521Z" fill="#99644C"/>
<path d="M126.076 380.498H109.161L109.145 378.787C109.124 376.449 109.522 374.127 110.321 371.931L111.876 367.662L126.076 372.898V380.498Z" fill="#D9E021"/>
<path d="M115.74 377.949C117.456 377.949 118.846 376.553 118.846 374.831C118.846 373.109 117.456 371.713 115.74 371.713C114.025 371.713 112.634 373.109 112.634 374.831C112.634 376.553 114.025 377.949 115.74 377.949Z" fill="#E6E6E6"/>
<path d="M97.256 261.45H114.348V233.144L92.04 229.143L85.692 243.692C82.0394 252.066 88.1503 261.45 97.256 261.45Z" fill="#013B84"/>
<path d="M120.64 364.926V371.452C120.764 371.452 124.023 377.012 124.11 377.286L124.629 379.188H131.045L130.839 377.049C130.734 376.11 130.483 375.401 130.174 375.168L126.813 372.632C126.176 372.151 125.612 370.989 125.221 369.348L124.449 366.105C124.272 365.363 123.993 364.925 123.697 364.925H120.64V364.926Z" fill="#7EB8FF"/>
<path d="M126.665 350.34H111.253C110.936 350.34 110.622 350.275 110.33 350.149C110.039 350.023 109.776 349.838 109.558 349.607C109.34 349.375 109.171 349.101 109.062 348.802C108.954 348.502 108.907 348.184 108.925 347.865L110.539 319.991C110.866 314.337 115.428 309.863 121.066 309.665L133.404 309.233L131.322 345.924C131.254 347.118 130.734 348.24 129.868 349.062C129.002 349.883 127.856 350.34 126.665 350.34ZM92.3315 372.67L76.4658 369.587C76.1518 369.526 75.8536 369.401 75.5899 369.22C75.3261 369.038 75.1024 368.804 74.9325 368.532C74.7627 368.26 74.6504 367.955 74.6027 367.638C74.555 367.32 74.5728 366.996 74.6551 366.686L81.545 340.687C81.7461 339.928 82.2265 339.275 82.8892 338.858C83.5518 338.441 84.3473 338.292 85.1151 338.441L104.167 342.144L96.8268 369.843C96.5737 370.798 95.9689 371.621 95.1345 372.146C94.3 372.671 93.2982 372.858 92.3315 372.67ZM124.791 163.583L116.447 161.176L110.579 181.681L128.015 186.71L131.271 175.333C132.713 170.291 129.812 165.031 124.791 163.583ZM95.3971 207.243L89.7713 224.183C89.5921 224.722 89.5325 225.295 89.5967 225.86C89.6609 226.425 89.8474 226.969 90.143 227.454C90.4387 227.939 90.8364 228.354 91.3083 228.668C91.7802 228.983 92.3149 229.19 92.875 229.276L125.021 234.178C125.557 234.26 126.104 234.228 126.628 234.085C127.151 233.942 127.638 233.69 128.059 233.346C128.48 233.003 128.824 232.574 129.07 232.089C129.316 231.604 129.458 231.072 129.487 230.529L130.812 205.685L95.3971 207.243Z" fill="#013B84"/>
<path d="M91.9732 228.846L127.057 234.211L126.94 234.983L91.8558 229.617L91.9732 228.846Z" fill="#2888FF"/>
<path d="M85.7189 371.544C85.6215 371.544 85.5278 371.507 85.4562 371.44C85.3847 371.374 85.3405 371.283 85.3325 371.186C85.3245 371.088 85.3532 370.991 85.413 370.914C85.4727 370.837 85.5591 370.785 85.6551 370.769L87.0235 370.54C88.4128 370.312 89.7112 369.699 90.7723 368.771C91.8335 367.842 92.6152 366.634 93.0294 365.283L100.57 340.98C101.122 339.2 101.464 337.361 101.588 335.5L102.193 326.396C102.702 318.749 104.131 311.193 106.449 303.892L121.282 257.205C121.85 255.418 122.234 253.576 122.426 251.71L123.688 239.467C123.71 239.253 123.905 239.087 124.115 239.12C124.166 239.125 124.215 239.14 124.26 239.164C124.305 239.189 124.345 239.222 124.377 239.261C124.409 239.301 124.433 239.347 124.448 239.396C124.462 239.445 124.467 239.497 124.462 239.548L123.2 251.791C123.002 253.711 122.608 255.605 122.023 257.443L107.19 304.13C104.89 311.371 103.473 318.865 102.968 326.448L102.364 335.553C102.236 337.474 101.883 339.374 101.312 341.213L93.7719 365.516C93.3151 367.005 92.4533 368.336 91.2836 369.36C90.1138 370.384 88.6826 371.06 87.151 371.311L85.7826 371.54C85.7615 371.543 85.7402 371.544 85.7189 371.544Z" fill="#153152"/>
<path d="M177.045 183.96L155.019 181.602L137.459 176.847L137.491 192.156L167.018 196.131L176.952 197.342L177.045 183.96Z" fill="#013B84"/>
<path d="M176.424 186.822C176.408 186.822 176.391 186.821 176.375 186.819L156.367 184.255C153.446 183.877 150.66 182.795 148.246 181.101L143.828 177.996C142.699 177.203 141.481 176.547 140.199 176.042L132.484 173.006C132.389 172.968 132.312 172.893 132.271 172.798C132.23 172.704 132.228 172.597 132.266 172.501C132.303 172.404 132.377 172.327 132.471 172.286C132.566 172.244 132.672 172.242 132.768 172.279L140.483 175.315C141.822 175.843 143.095 176.528 144.273 177.357L148.691 180.463C151.002 182.084 153.67 183.119 156.465 183.48L176.473 186.044C176.57 186.059 176.657 186.11 176.718 186.186C176.779 186.262 176.809 186.358 176.803 186.456C176.797 186.553 176.755 186.645 176.684 186.712C176.614 186.78 176.522 186.819 176.424 186.822Z" fill="#153152"/>
<path d="M92.6744 372.721L84.4333 394.38C84.8298 394.513 74.5284 392.273 74.5284 392.273L77.716 369.825L92.3324 372.674C92.449 372.698 92.5656 372.713 92.6744 372.721Z" fill="#016EEA"/>
<path d="M87.3097 398.252L71.2084 396.172L71.4977 393.887C71.8527 391.662 72.6041 389.52 73.7158 387.563L75.8771 383.758L88.5288 391.03L87.3097 398.252Z" fill="#7EB8FF"/>
<path d="M75.752 382.621L74.7048 388.822C75.0718 388.884 83.805 395.806 84.0204 396.11L85.2923 397.908L89.9571 391.844L88.4372 386.277C88.315 385.829 88.0686 385.426 87.7266 385.113C87.3847 384.801 86.9614 384.592 86.5059 384.512L75.752 382.621Z" fill="#7EB8FF"/>
<path d="M86.159 388.976C85.4021 388.847 84.5644 390.069 84.288 391.705C84.0116 393.342 84.4011 394.772 85.158 394.901C85.9149 395.03 86.7526 393.808 87.029 392.172C87.3054 390.536 86.9159 389.105 86.159 388.976Z" fill="#E6E6E6"/>
<path d="M87.0206 399.619L97.266 405.352H81.646L71.2497 398.876C70.7195 398.546 71.0063 397.723 71.6252 397.797L87.0206 399.619Z" fill="#2888FF"/>
<path d="M70.9101 398.319L71.3291 395.838L71.431 395.778C71.8894 395.508 72.4231 395.396 72.9509 395.458L79.2624 396.206C81.2722 396.444 83.2131 397.088 84.9682 398.1L92.9714 402.712L98.119 402.914L98.0895 405.394L92.7071 405.376L84.1993 400.475C82.4674 399.497 80.559 398.874 78.5852 398.644L72.577 397.941C72.1316 397.889 71.6805 397.961 71.2732 398.149L70.9101 398.319ZM123.373 378.212H130.229C130.909 378.212 131.466 378.771 131.466 379.454V379.604C131.466 380.287 130.909 380.846 130.229 380.846H123.373C123.046 380.845 122.732 380.714 122.5 380.481C122.268 380.249 122.137 379.933 122.136 379.604V379.454C122.136 378.771 122.693 378.212 123.373 378.212Z" fill="#2B3D52"/>
<path d="M126.603 350.344L123.19 368.811C123.19 368.811 111.295 368.779 110.945 368.803L110.968 350.32C111.061 350.336 111.155 350.344 111.256 350.344H126.603Z" fill="#016EEA"/>
<path d="M108.52 378.474H131.796V381.7H108.52V378.474Z" fill="#2B3D52"/>
<path d="M125.411 379.261H109.558C109.157 379.261 108.773 379.102 108.488 378.819C108.203 378.535 108.042 378.151 108.038 377.748L108.027 376.555C108.011 374.721 108.324 372.9 108.95 371.177L110.887 364.294L123.892 364.268L126.01 371.653C126.62 373.331 126.932 375.102 126.932 376.888V377.734C126.932 378.577 126.251 379.261 125.411 379.261Z" fill="#7EB8FF"/>
<path d="M117.964 374.308H110.848V364.653H114.067C114.807 364.653 115.522 364.924 116.078 365.415C116.633 365.907 116.991 366.585 117.084 367.322L117.964 374.308Z" fill="#7EB8FF"/>
<path d="M124.24 374.308H117.124L118.004 367.323C118.097 366.586 118.454 365.907 119.01 365.416C119.565 364.925 120.28 364.653 121.02 364.654H124.24V374.308Z" fill="#7EB8FF"/>
<path d="M123.331 372.608C123.582 374.206 124.262 375.518 124.85 375.541C125.437 375.564 125.71 374.287 125.458 372.689C125.207 371.091 124.527 369.778 123.939 369.756C123.352 369.733 123.079 371.01 123.331 372.608Z" fill="#E6E6E6"/>
</g>
<g clip-path="url(#clip14_336_1646)">
<path d="M182.382 150.41C197.497 150.41 209.75 138.157 209.75 123.042C209.75 107.928 197.497 95.675 182.382 95.675C167.268 95.675 155.015 107.928 155.015 123.042C155.015 138.157 167.268 150.41 182.382 150.41Z" fill="#8BBFFF"/>
<path d="M182.383 121.96C186.957 121.96 190.665 118.252 190.665 113.678C190.665 109.104 186.957 105.395 182.383 105.395C177.809 105.395 174.1 109.104 174.1 113.678C174.1 118.252 177.809 121.96 182.383 121.96Z" fill="#C7E0FF"/>
<path d="M182.383 123.733C179.088 123.733 175.927 125.042 173.597 127.372C171.267 129.702 169.958 132.862 169.958 136.157V143.35H194.807V136.157C194.807 129.296 189.244 123.733 182.383 123.733Z" fill="#C7E0FF"/>
</g>
<g clip-path="url(#clip15_336_1646)">
<path d="M116.2 166.598L121.755 185.196L133.921 154.74L128.003 152.357L122.812 150.267L120.618 155.76L116.2 166.598ZM129.992 138.397H137.405V147.857H129.992V138.397Z" fill="#99644C"/>
<path d="M125.47 131.598H130.495V150.517H125.47V131.598Z" fill="black"/>
<path d="M123.315 154.216L128.991 156.748V132.624C128.991 131.944 128.722 131.292 128.244 130.811C127.765 130.331 127.115 130.061 126.438 130.061H125.289C119.817 130.061 115.63 134.953 116.454 140.385L117.365 146.391C117.623 148.092 118.304 149.7 119.343 151.067C120.383 152.435 121.749 153.518 123.315 154.216Z" fill="black"/>
<path d="M140.965 138.997V143.509C140.965 143.673 140.934 143.835 140.873 143.988L140.277 145.475C140.18 145.719 140.159 145.987 140.218 146.243C140.278 146.499 140.414 146.731 140.608 146.907L140.965 147.229V155.956C140.965 156.294 140.899 156.628 140.77 156.939C140.641 157.251 140.452 157.534 140.214 157.772C139.975 158.011 139.693 158.199 139.382 158.327C139.071 158.455 138.737 158.521 138.401 158.519L122.271 158.453L122.337 152.938L140.965 138.997Z" fill="#99644C"/>
<path d="M124.725 146.637H128.436V152.309H124.725V146.637Z" fill="#99644C"/>
<path d="M124.867 147.844H130.679V142.043H124.867C124.251 142.043 123.66 142.288 123.224 142.726C122.788 143.163 122.543 143.757 122.543 144.376V145.51C122.543 145.817 122.603 146.12 122.72 146.403C122.837 146.687 123.008 146.944 123.224 147.161C123.439 147.377 123.696 147.549 123.978 147.666C124.26 147.784 124.562 147.844 124.867 147.844Z" fill="#99644C"/>
<path d="M135.183 136.899H127.593V140.807C126.379 140.904 125.219 140.977 125.048 140.919C124.788 140.832 127.527 143.877 129.244 145.766C129.716 146.285 130.576 145.95 130.576 145.247V142.748C130.576 142.324 130.919 141.979 131.342 141.979H135.183V136.899Z" fill="black"/>
<path d="M132.255 130.573H131.922C131.245 130.573 130.595 130.843 130.116 131.324C129.638 131.804 129.369 132.456 129.369 133.136V142.039H141.193V139.545C141.193 134.59 137.191 130.573 132.255 130.573Z" fill="#99644C"/>
<path d="M121.503 133.795H130.44V151.097C130.44 152.457 129.902 153.761 128.944 154.723C127.986 155.684 126.687 156.225 125.333 156.225H121.503V133.795Z" fill="black"/>
<path d="M127.367 130.848H137.89V136.872C137.89 137.545 137.757 138.212 137.501 138.834C137.244 139.456 136.868 140.021 136.394 140.497C135.919 140.973 135.356 141.351 134.737 141.609C134.117 141.866 133.453 141.999 132.782 141.999H127.367L127.367 130.848Z" fill="black"/>
<path d="M137.55 158.926H132.377V146.743H139.683C140.192 146.743 140.681 146.946 141.041 147.307C141.401 147.669 141.603 148.159 141.603 148.671V154.858C141.603 155.937 141.176 156.972 140.416 157.734C139.656 158.497 138.625 158.926 137.55 158.926Z" fill="#99644C"/>
<path d="M139.279 165.954L113.51 158.518C113.002 158.371 112.554 158.062 112.236 157.637C111.917 157.213 111.745 156.696 111.745 156.164V138.845C111.745 133.436 116.113 129.05 121.502 129.05H131.473C135.784 129.05 139.279 132.558 139.279 136.886V165.954Z" fill="#153152"/>
<path d="M141.94 142.043H124.091V129.05H132.579C138.288 129.05 142.915 133.696 142.915 139.427V141.063C142.915 141.605 142.478 142.043 141.94 142.043Z" fill="#153152"/>
<path d="M141.601 174.586L110.533 165.959C101.711 163.51 93.646 171.751 96.2412 180.563L97.0692 183.374L155.531 183.955L145.424 176.456C144.275 175.602 142.979 174.969 141.601 174.586Z" fill="#013B84"/>
<path d="M126.665 350.34H111.253C110.935 350.34 110.621 350.275 110.33 350.149C110.038 350.023 109.775 349.838 109.557 349.607C109.339 349.375 109.171 349.101 109.062 348.802C108.953 348.502 108.906 348.184 108.924 347.865L110.538 319.991C110.866 314.337 115.427 309.863 121.065 309.665L133.404 309.233L131.322 345.924C131.254 347.118 130.734 348.24 129.868 349.062C129.002 349.883 127.856 350.34 126.665 350.34ZM92.331 372.67L76.4653 369.587C76.1513 369.526 75.8531 369.401 75.5893 369.22C75.3256 369.038 75.1018 368.804 74.932 368.532C74.7622 368.26 74.6499 367.955 74.6022 367.638C74.5545 367.32 74.5723 366.996 74.6546 366.686L81.5445 340.687C81.7456 339.928 82.226 339.275 82.8886 338.858C83.5513 338.441 84.3468 338.292 85.1146 338.441L104.166 342.144L96.8263 369.843C96.5732 370.798 95.9684 371.621 95.1339 372.146C94.2995 372.671 93.2977 372.858 92.331 372.67ZM124.791 163.583L116.446 161.176L110.579 181.681L128.014 186.71L131.27 175.333C132.713 170.291 129.812 165.031 124.791 163.583ZM95.3965 207.243L89.7708 224.183C89.5916 224.722 89.532 225.295 89.5962 225.86C89.6604 226.425 89.8469 226.969 90.1425 227.454C90.4382 227.939 90.8359 228.354 91.3078 228.668C91.7797 228.983 92.3144 229.19 92.8744 229.276L125.02 234.178C125.556 234.26 126.104 234.228 126.627 234.085C127.15 233.942 127.638 233.69 128.058 233.346C128.479 233.003 128.823 232.574 129.069 232.089C129.315 231.604 129.457 231.072 129.486 230.529L130.812 205.685L95.3965 207.243Z" fill="#013B84"/>
</g>
<g clip-path="url(#clip16_336_1646)">
<path d="M289.008 330.932L310.938 337.833L366.502 367.702C366.502 367.702 360.064 380.539 360.24 380.076L300.661 358.159C299.695 357.804 298.765 357.359 297.883 356.831L281.723 347.159C280.712 346.553 279.83 345.754 279.128 344.807C278.426 343.859 277.918 342.783 277.633 341.639C277.348 340.495 277.292 339.305 277.468 338.139C277.644 336.974 278.048 335.854 278.657 334.845C279.695 333.127 281.279 331.807 283.156 331.098C285.033 330.389 287.094 330.33 289.008 330.932Z" fill="#013B84"/>
<path d="M336.713 371.846H309.523L277.467 350.528C275.407 349.158 273.919 347.082 273.283 344.691C272.646 342.3 272.906 339.759 274.012 337.546C275.558 334.454 278.255 332.093 281.524 330.97C284.793 329.848 288.372 330.054 291.491 331.544L336.713 353.157V371.846Z" fill="#013B84"/>
<path d="M368.752 337.763H307.529V358H368.752V337.763Z" fill="#013B84"/>
<path d="M341.777 371.846H368.967L401.023 350.528C403.083 349.158 404.571 347.082 405.208 344.691C405.844 342.3 405.584 339.759 404.478 337.546C402.932 334.454 400.235 332.093 396.966 330.97C393.697 329.848 390.118 330.054 386.999 331.544L341.777 353.157V371.846Z" fill="#013B84"/>
<path opacity="0.2" d="M274.012 337.546C275.558 334.454 278.255 332.093 281.524 330.97C284.793 329.848 288.372 330.054 291.491 331.544L292.533 332.042L310.715 337.763H368.752V340.263L386.999 331.544C390.118 330.054 393.697 329.848 396.966 330.97C400.235 332.093 402.932 334.454 404.478 337.546C405.584 339.759 405.844 342.3 405.208 344.691C404.571 347.082 403.083 349.158 401.023 350.528L368.967 371.846H364.421C362.556 375.553 360.131 380.363 360.24 380.076L336.713 371.421V371.843H309.523L277.467 350.525C275.408 349.155 273.92 347.08 273.284 344.689C272.647 342.299 272.906 339.758 274.012 337.546Z" fill="#1D2445"/>
<path d="M338.639 268.476H351.815V234.535C351.815 232.759 351.11 231.056 349.854 229.801C348.599 228.545 346.896 227.84 345.121 227.84H340.985C340.363 227.84 339.767 228.087 339.328 228.526C338.888 228.966 338.641 229.562 338.641 230.184V268.476H338.639Z" fill="#002652"/>
<path d="M367.832 272.315L384.968 317.469L379.947 322.011L379.814 322.022C378.006 322.176 376.197 321.743 374.655 320.789C373.112 319.834 371.918 318.407 371.249 316.721L353.791 272.651L367.832 272.315ZM309.025 272.564L302.7 313.193L307.461 323.691L307.593 323.675C309.394 323.451 311.074 322.653 312.386 321.399C313.697 320.146 314.57 318.503 314.875 316.714L322.833 269.987L309.025 272.564Z" fill="#93C3FF"/>
<path d="M358.607 264.884L317.553 264.668C316.299 264.66 315.056 264.902 313.896 265.378C312.736 265.855 311.682 266.556 310.795 267.443C309.908 268.329 309.205 269.383 308.728 270.543C308.251 271.702 308.008 272.945 308.014 274.199L308.094 290.786L368.038 290.539V274.37C368.038 271.863 367.046 269.458 365.279 267.681C363.512 265.903 361.113 264.898 358.607 264.884Z" fill="#93C3FF"/>
<path d="M360.846 289.856L360.782 316.168C360.777 318.186 361.134 320.19 361.837 322.082L367.85 338.292L310.046 338.817L315.28 322.101C315.791 320.467 316.051 318.766 316.051 317.054V290.23L360.846 289.856Z" fill="#93C3FF"/>
<path d="M349.059 264.668L360.462 289.944L315.59 289.963L327.051 264.668H349.059ZM384.486 391.928C385.625 392.145 386.8 392.058 387.894 391.676C388.989 391.294 389.963 390.631 390.72 389.754L396.256 383.337C396.652 382.846 396.92 382.264 397.038 381.644C397.156 381.023 397.119 380.384 396.93 379.781C396.742 379.178 396.408 378.632 395.958 378.189C395.508 377.746 394.956 377.421 394.351 377.242L371.588 370.518L365.633 383.321L373.779 389.888L384.486 391.928Z" fill="#93C3FF"/>
<path d="M382.112 390.065C383.25 390.282 384.426 390.195 385.52 389.813C386.614 389.431 387.589 388.768 388.346 387.89L393.882 381.474C394.278 380.982 394.546 380.401 394.664 379.78C394.781 379.16 394.744 378.52 394.556 377.918C394.368 377.315 394.034 376.768 393.584 376.325C393.134 375.883 392.582 375.557 391.977 375.379L369.213 368.66L363.258 381.461L371.404 388.028L382.112 390.065Z" fill="#016EEA"/>
<path d="M371.172 371.868L366.856 380.837L357.892 376.522C357.114 376.146 356.517 375.477 356.232 374.662C355.947 373.846 355.997 372.951 356.372 372.172L357.856 369.082C358.231 368.304 358.9 367.707 359.716 367.422C360.531 367.137 361.426 367.188 362.205 367.563L371.172 371.868Z" fill="#93C3FF"/>
<path d="M372.261 377.136L374.973 371.277L365.497 366.887L364.497 369.049C364.154 369.79 364.098 370.63 364.338 371.41C364.579 372.189 365.099 372.852 365.799 373.271L372.261 377.136Z" fill="#016EEA"/>
<path d="M368.865 384.474L372.511 376.598L365.156 374.383C364.394 374.154 363.576 374.207 362.851 374.533C362.126 374.858 361.542 375.435 361.208 376.156L359.389 380.086L368.865 384.474Z" fill="#016EEA"/>
<path d="M294.229 391.928C293.091 392.145 291.915 392.058 290.821 391.676C289.727 391.294 288.752 390.631 287.995 389.754L282.459 383.337C282.063 382.846 281.795 382.264 281.677 381.644C281.56 381.023 281.597 380.384 281.785 379.781C281.973 379.179 282.307 378.632 282.757 378.189C283.207 377.746 283.759 377.421 284.364 377.242L307.128 370.518L313.082 383.325L304.936 389.891L294.229 391.928Z" fill="#93C3FF"/>
<path d="M389.707 330.933L367.777 337.833L312.214 367.702C312.214 367.702 318.651 380.54 318.476 380.076L378.054 358.159C379.02 357.804 379.95 357.359 380.833 356.831L396.992 347.159C398.004 346.553 398.886 345.754 399.588 344.807C400.29 343.859 400.798 342.783 401.082 341.639C401.367 340.495 401.423 339.305 401.248 338.14C401.072 336.974 400.667 335.854 400.058 334.845C399.02 333.127 397.436 331.808 395.559 331.098C393.682 330.389 391.621 330.33 389.707 330.933Z" fill="#013B84"/>
<path d="M296.603 390.065C295.464 390.282 294.289 390.195 293.195 389.813C292.1 389.431 291.126 388.768 290.369 387.89L284.833 381.474C284.437 380.982 284.169 380.401 284.051 379.78C283.934 379.16 283.971 378.52 284.159 377.918C284.347 377.315 284.681 376.768 285.131 376.325C285.581 375.883 286.133 375.557 286.738 375.379L309.502 368.66L315.456 381.464L307.31 388.03L296.603 390.065Z" fill="#016EEA"/>
<path d="M307.545 371.868L311.861 380.837L320.825 376.522C321.603 376.146 322.2 375.477 322.485 374.662C322.77 373.846 322.719 372.951 322.344 372.172L320.855 369.076C320.479 368.298 319.81 367.701 318.995 367.416C318.179 367.131 317.284 367.182 316.505 367.557L307.545 371.868Z" fill="#93C3FF"/>
<path d="M306.453 377.136L303.741 371.276L313.217 366.886L314.218 369.048C314.56 369.789 314.617 370.63 314.376 371.409C314.136 372.188 313.615 372.851 312.915 373.27L306.453 377.136Z" fill="#016EEA"/>
<path d="M309.849 384.474L306.203 376.598L313.558 374.383C314.32 374.154 315.138 374.207 315.863 374.533C316.589 374.858 317.172 375.435 317.506 376.156L319.326 380.086L309.849 384.474Z" fill="#016EEA"/>
<path d="M315.066 309.667H344.856C349.117 309.666 353.203 307.973 356.216 304.96C359.229 301.946 360.922 297.859 360.922 293.597V289.856L337.286 286.479L315.066 289.856V309.667Z" fill="#93C3FF"/>
<path d="M341.234 234.758C341.604 234.757 341.967 234.66 342.287 234.475C342.608 234.29 342.874 234.024 343.059 233.703C343.244 233.383 343.342 233.019 343.342 232.649C343.343 232.279 343.246 231.916 343.061 231.595C342.608 230.889 342.012 230.286 341.31 229.825C340.609 229.365 339.819 229.057 338.991 228.921C338.06 228.708 337.095 228.695 336.159 228.881C335.223 229.068 334.337 229.45 333.559 230.004C333.337 230.17 333.15 230.378 333.009 230.617C332.868 230.855 332.775 231.119 332.736 231.394C332.697 231.668 332.712 231.948 332.781 232.216C332.849 232.485 332.97 232.737 333.137 232.959C333.303 233.18 333.511 233.367 333.75 233.508C333.988 233.65 334.252 233.742 334.527 233.782C334.801 233.821 335.08 233.806 335.349 233.737C335.617 233.668 335.87 233.547 336.091 233.381C336.392 233.189 336.73 233.061 337.082 233.005C337.435 232.949 337.795 232.966 338.141 233.056C338.624 233.119 339.071 233.346 339.407 233.699C339.592 234.02 339.858 234.287 340.178 234.473C340.499 234.659 340.863 234.757 341.234 234.758Z" fill="#80B6F4"/>
<path d="M341.4 257.996L321.739 250.965V244.447C321.739 242.844 322.054 241.256 322.668 239.775C323.281 238.294 324.18 236.948 325.314 235.814C326.448 234.68 327.793 233.781 329.274 233.168C330.755 232.554 332.343 232.238 333.946 232.238H337.407C339.01 232.238 340.598 232.553 342.08 233.167C343.561 233.78 344.907 234.679 346.041 235.813C347.175 236.947 348.075 238.293 348.688 239.774C349.302 241.256 349.618 242.843 349.618 244.447V249.778C349.617 251.957 348.751 254.048 347.21 255.589C345.669 257.13 343.579 257.996 341.4 257.996Z" fill="#002652"/>
<path d="M330.129 275.5V249.979H344.841V264.693L333.023 276.681C332.788 276.921 332.487 277.085 332.159 277.153C331.831 277.221 331.49 277.189 331.179 277.062C330.869 276.936 330.603 276.72 330.416 276.441C330.229 276.163 330.129 275.835 330.129 275.5Z" fill="#99644C"/>
<path d="M344.71 260.309L337.281 267.644C337.146 267.777 336.986 267.882 336.81 267.954C336.634 268.025 336.445 268.061 336.255 268.059L328.1 267.975C327.853 267.972 327.611 267.906 327.397 267.783C327.183 267.661 327.005 267.485 326.878 267.273L324.628 263.506C323.486 261.595 322.883 259.409 322.883 257.183V249.821H344.711V260.306L344.71 260.309Z" fill="#99644C"/>
<path opacity="0.07" d="M334.788 258.356H339.122V257.051C339.122 256.642 338.959 256.25 338.67 255.961C338.381 255.672 337.989 255.509 337.58 255.509H333.247V256.814C333.247 257.223 333.409 257.615 333.698 257.904C333.987 258.194 334.379 258.356 334.788 258.356ZM328.803 253.713V257.596L328.935 263.337L332.034 263.542L329.884 265.653C329.308 265.545 328.714 265.635 328.195 265.906C327.267 266.391 326.935 267.524 326.875 267.274C326.815 267.023 325.718 265.192 324.69 263.511C323.506 261.576 322.879 259.353 322.878 257.085V250.962L328.803 253.713Z" fill="black"/>
<path d="M345.199 247.933H345.075C344.519 247.935 343.987 248.156 343.593 248.55C343.2 248.943 342.979 249.476 342.977 250.032V255.845C342.979 256.401 343.2 256.934 343.593 257.327C343.987 257.721 344.519 257.942 345.075 257.944H345.199C345.755 257.942 346.288 257.721 346.681 257.327C347.074 256.934 347.296 256.401 347.298 255.845V250.028C347.295 249.473 347.073 248.941 346.68 248.548C346.287 248.156 345.755 247.935 345.199 247.933Z" fill="#99644C"/>
<path d="M333.315 256.249C326.922 256.249 321.739 253.834 321.739 250.855C321.739 247.876 326.922 245.461 333.315 245.461C339.709 245.461 344.892 247.876 344.892 250.855C344.892 253.834 339.709 256.249 333.315 256.249Z" fill="#002652"/>
<path d="M350.681 327.385L379.558 314.671C380.247 314.327 381.021 314.189 381.787 314.273C382.552 314.357 383.278 314.66 383.876 315.146L384.571 315.71C385.394 316.378 386.078 317.202 386.583 318.135C387.088 319.067 387.404 320.09 387.514 321.145C387.624 322.2 387.525 323.266 387.222 324.283C386.92 325.299 386.421 326.246 385.752 327.07L384.761 328.292C384.146 329.049 383.276 329.557 382.313 329.718L357.742 333.867L350.681 327.385Z" fill="#99644C"/>
<path d="M325.143 335.238V335.247C325.127 335.351 325.153 335.456 325.214 335.54C325.276 335.625 325.368 335.682 325.471 335.699L332.646 336.84C333.418 336.963 334.209 336.913 334.959 336.694L338.258 335.765L340.156 336.732C340.818 337.073 341.582 337.155 342.301 336.961L348.497 335.323L348.547 335.309C348.763 335.258 348.98 335.219 349.2 335.19V335.182L362.407 333.084L353.341 327.266C351.703 325.382 350.375 325.272 348.6 325.111L345.476 324.838C344.346 324.77 343.218 325.006 342.209 325.522C341.593 325.845 340.934 326.079 340.252 326.216C338.322 326.626 335.296 327.334 335.296 327.334C335.055 327.412 334.846 327.565 334.698 327.769C334.55 327.974 334.471 328.221 334.473 328.474V328.588C334.496 328.894 334.64 329.178 334.873 329.379C335.105 329.579 335.408 329.679 335.714 329.656C336.358 329.615 340.195 329.41 341.395 329.368H341.404C341.499 329.367 341.592 329.396 341.671 329.45C341.749 329.504 341.809 329.58 341.842 329.67C341.875 329.757 341.879 329.852 341.853 329.941C341.828 330.031 341.774 330.11 341.7 330.167L340.514 331.095L333.35 334.104L326.697 334.002C326.339 333.997 325.989 334.116 325.707 334.337C325.425 334.559 325.227 334.871 325.147 335.22L325.143 335.238Z" fill="#99644C"/>
<path d="M336.836 340.032H372.367C373.134 340.032 373.869 339.727 374.411 339.185C374.953 338.643 375.258 337.908 375.258 337.141H333.944C333.944 337.521 334.018 337.897 334.164 338.248C334.309 338.599 334.522 338.918 334.791 339.186C335.06 339.454 335.379 339.667 335.73 339.812C336.081 339.958 336.457 340.032 336.836 340.032Z" fill="#2888FF"/>
<path d="M304.477 340.032H359.399C359.634 340.046 359.868 339.998 360.078 339.895C360.289 339.791 360.47 339.635 360.602 339.441C360.735 339.247 360.814 339.022 360.834 338.788C360.854 338.554 360.812 338.319 360.714 338.105L350.11 304.698C349.925 304.161 349.585 303.692 349.133 303.349C348.681 303.006 348.137 302.804 347.571 302.77H292.649C292.415 302.757 292.181 302.804 291.97 302.908C291.759 303.011 291.579 303.168 291.446 303.362C291.314 303.556 291.234 303.781 291.214 304.015C291.195 304.249 291.236 304.484 291.334 304.698L301.939 338.105C302.124 338.641 302.464 339.11 302.916 339.453C303.368 339.796 303.911 339.997 304.477 340.032Z" fill="#2888FF"/>
<path d="M326.699 326.059H328.303C330.432 326.059 331.609 324.333 330.933 322.205L330.427 320.601C330.055 319.528 329.375 318.59 328.472 317.904C327.568 317.218 326.481 316.815 325.349 316.746H323.745C321.617 316.746 320.44 318.472 321.115 320.601L321.621 322.205C321.993 323.277 322.673 324.215 323.577 324.901C324.48 325.587 325.567 325.99 326.699 326.059Z" fill="#93C3FF"/>
<path d="M306.5 324.448C306.5 324.454 306.5 324.461 306.49 324.466C306.169 324.895 305.715 325.208 305.199 325.354C304.682 325.501 304.132 325.474 303.633 325.277L294.892 321.551C294.747 321.489 294.619 321.392 294.521 321.269C294.423 321.145 294.357 320.999 294.33 320.844L294.129 319.7C294.093 319.495 294.097 319.286 294.142 319.083C294.187 318.881 294.272 318.689 294.391 318.519C294.51 318.349 294.661 318.204 294.836 318.093C295.011 317.981 295.207 317.905 295.411 317.869L295.858 317.791C296.08 317.752 296.308 317.793 296.502 317.907L306.21 323.615C306.284 323.651 306.35 323.701 306.404 323.762C306.459 323.823 306.5 323.894 306.527 323.972C306.554 324.049 306.566 324.131 306.561 324.212C306.556 324.294 306.535 324.374 306.5 324.448Z" fill="#99644C"/>
<path d="M305.586 328.153C305.585 328.16 305.581 328.166 305.576 328.171C305.255 328.601 304.801 328.913 304.285 329.06C303.768 329.206 303.218 329.179 302.719 328.982L293.978 325.254C293.833 325.192 293.705 325.095 293.607 324.971C293.509 324.848 293.444 324.702 293.416 324.547L293.215 323.403C293.142 322.991 293.236 322.566 293.477 322.222C293.717 321.879 294.084 321.645 294.497 321.572L294.943 321.494C295.165 321.455 295.394 321.496 295.588 321.61L305.296 327.318C305.37 327.354 305.436 327.404 305.491 327.465C305.546 327.526 305.588 327.598 305.615 327.675C305.642 327.753 305.653 327.835 305.648 327.917C305.643 327.999 305.622 328.079 305.586 328.153Z" fill="#99644C"/>
<path d="M303.915 331.86C303.913 331.866 303.909 331.872 303.904 331.876C303.558 332.244 303.101 332.487 302.602 332.569C302.104 332.651 301.593 332.567 301.148 332.33L293.377 327.914C293.247 327.841 293.138 327.737 293.06 327.61C292.981 327.484 292.935 327.341 292.927 327.192L292.861 326.102C292.837 325.709 292.97 325.322 293.232 325.027C293.493 324.732 293.861 324.553 294.254 324.529L294.677 324.503C294.888 324.49 295.098 324.553 295.267 324.681L303.732 331.05C303.797 331.091 303.854 331.144 303.899 331.207C303.943 331.27 303.975 331.341 303.992 331.417C304.009 331.492 304.011 331.57 303.998 331.646C303.985 331.722 303.956 331.795 303.915 331.86Z" fill="#99644C"/>
<path d="M302.878 334.567C302.876 334.572 302.873 334.577 302.869 334.581C302.562 334.931 302.148 335.17 301.691 335.262C301.235 335.354 300.761 335.292 300.342 335.088L294.154 331.997C294.033 331.933 293.93 331.841 293.853 331.727C293.777 331.613 293.731 331.482 293.718 331.346L293.622 330.343C293.605 330.164 293.624 329.983 293.677 329.811C293.73 329.639 293.816 329.479 293.931 329.341C294.046 329.202 294.186 329.087 294.346 329.003C294.505 328.919 294.679 328.867 294.858 328.851L295.249 328.813C295.443 328.795 295.638 328.846 295.798 328.959L302.687 333.828C302.81 333.901 302.899 334.02 302.935 334.158C302.971 334.296 302.95 334.443 302.878 334.567Z" fill="#99644C"/>
</g>
<defs>
<clipPath id="clip0_336_1646">
<rect width="468.585" height="327.075" fill="white" transform="translate(38.4248 51.175)"/>
</clipPath>
<clipPath id="clip1_336_1646">
<rect width="170.435" height="49.84" fill="white" transform="matrix(0 -1 1 0 385.748 249.423)"/>
</clipPath>
<clipPath id="clip2_336_1646">
<rect width="170.435" height="49.84" fill="white" transform="matrix(0 -1 1 0 429.802 249.423)"/>
</clipPath>
<clipPath id="clip3_336_1646">
<rect width="62.3" height="17.355" fill="white" transform="translate(404.66 218.94)"/>
</clipPath>
<clipPath id="clip4_336_1646">
<rect width="101.905" height="75.205" fill="white" transform="matrix(0 1 -1 0 470.52 89.4451)"/>
</clipPath>
<clipPath id="clip5_336_1646">
<rect width="188.68" height="139.285" fill="white" transform="matrix(0 1 -1 0 375.067 66.9725)"/>
</clipPath>
<clipPath id="clip6_336_1646">
<rect width="188.68" height="139.285" fill="white" transform="matrix(0 1 -1 0 236.672 66.9725)"/>
</clipPath>
<clipPath id="clip7_336_1646">
<rect width="188.68" height="139.285" fill="white" transform="matrix(0 1 -1 0 193.507 66.9725)"/>
</clipPath>
<clipPath id="clip8_336_1646">
<rect width="202.92" height="32.485" fill="white" transform="translate(81.1449 206.48)"/>
</clipPath>
<clipPath id="clip9_336_1646">
<rect width="202.92" height="59.185" fill="white" transform="translate(81.1449 78.32)"/>
</clipPath>
<clipPath id="clip10_336_1646">
<rect width="202.92" height="59.185" fill="white" transform="translate(81.1449 137.505)"/>
</clipPath>
<clipPath id="clip11_336_1646">
<rect width="202.92" height="59.185" fill="white" transform="translate(81.1449 102.35)"/>
</clipPath>
<clipPath id="clip12_336_1646">
<rect width="44.5" height="136.615" fill="white" transform="translate(319.22 77.875)"/>
</clipPath>
<clipPath id="clip13_336_1646">
<rect width="156.195" height="276.345" fill="white" transform="translate(70.9099 129.05)"/>
</clipPath>
<clipPath id="clip14_336_1646">
<rect width="54.735" height="54.735" fill="white" transform="translate(155.015 95.675)"/>
</clipPath>
<clipPath id="clip15_336_1646">
<rect width="43.1648" height="38.7153" fill="white" transform="translate(102.95 129.05)"/>
</clipPath>
<clipPath id="clip16_336_1646">
<rect width="132.61" height="164.205" fill="white" transform="matrix(-1 0 0 1 405.55 227.84)"/>
</clipPath>
</defs>
</svg>
