<svg width="413" height="413" viewBox="0 0 413 413" fill="none" xmlns="http://www.w3.org/2000/svg">
<g clip-path="url(#clip0_2216_117755)">
<path d="M147.768 112.242H154.771V364.297H147.768V112.242Z" fill="#F8F8F9"/>
<path d="M195.653 375.83L152.122 100.942L108.591 375.83L101.673 374.731L152.122 56.1621L202.569 374.731L195.653 375.83Z" fill="#F3F4F6"/>
<path d="M96.0912 47.2305H208.152V217.931H96.0912V47.2305Z" fill="#F3F4F6"/>
<path d="M132.203 42.126H172.04V51.6911H132.203V42.126ZM107.91 210.579H196.333V220.144H107.91V210.579Z" fill="#D2D3DA"/>
</g>
<g clip-path="url(#clip1_2216_117755)">
<path d="M121.12 126.271H137.968V170.156H121.12V126.271ZM144.786 107.92H161.633V170.156H144.786V107.92Z" fill="#2888FF"/>
<path d="M168.451 91.9614H185.299V170.156H168.451V91.9614Z" fill="#93C3FF"/>
</g>
<g clip-path="url(#clip2_2216_117755)">
<path d="M264.15 234.721C263.848 234.721 263.647 234.52 263.647 234.218V194.107C263.647 193.806 263.848 193.604 264.15 193.604C264.452 193.604 264.653 193.806 264.653 194.107V234.218C264.653 234.52 264.452 234.721 264.15 234.721Z" fill="#53A0FF"/>
<path d="M265.155 237.335H263.246C262.643 237.335 262.24 236.732 262.542 236.129L263.547 234.218C263.849 233.615 264.653 233.615 264.954 234.218L265.959 236.129C266.16 236.732 265.758 237.335 265.155 237.335Z" fill="#53A0FF"/>
<path d="M307.471 170.583H263.647L266.663 137.208L277.317 112.276L316.517 112.075L307.471 170.583Z" fill="#016EEA"/>
<path d="M297.822 102.525L291.389 123.937L277.317 88.8526L284.152 86.1383L290.183 83.7256C290.183 83.7256 292.294 89.0537 292.696 90.0589L297.822 102.525Z" fill="#99644C"/>
<path d="M274.402 108.054L303.451 101.419C311.894 99.5094 319.231 107.351 316.819 115.594L314.407 123.636L274.402 108.054Z" fill="#016EEA"/>
<path d="M332.901 362.897L322.448 366.516L318.829 356.06C318.126 354.15 319.131 352.14 321.041 351.436L324.659 350.23C326.569 349.526 328.579 350.531 329.283 352.441L332.901 362.897Z" fill="#2888FF"/>
<path d="M319.834 361.69C319.834 361.69 317.824 368.929 316.919 369.733C315.814 370.638 312.597 373.452 312.597 373.452L310.286 374.056L310.085 379.384L313.804 378.982L327.172 371.14L319.834 361.69Z" fill="#7EB8FF"/>
<path d="M311.693 268.298L326.87 299.261C327.574 300.769 328.177 302.478 328.378 304.086L337.022 364.505C337.022 364.505 325.061 367.118 325.564 366.917L303.049 306.901L298.928 278.351L311.693 268.298Z" fill="#99644C"/>
<path d="M322.247 371.341L340.841 368.928L340.54 366.314C340.138 363.7 339.233 361.288 337.927 358.976L335.414 354.552L320.739 362.896L322.247 371.341Z" fill="#7EB8FF"/>
<path d="M335.615 353.346L336.821 360.483C336.419 360.584 326.267 368.526 326.066 368.928L324.558 371.039L319.131 364.002L320.839 357.568C321.141 356.563 322.046 355.758 323.051 355.557L335.615 353.346Z" fill="#7EB8FF"/>
<path d="M325.756 363.793C325.441 361.932 324.475 360.544 323.599 360.693C322.724 360.841 322.27 362.47 322.585 364.331C322.901 366.192 323.866 367.581 324.742 367.432C325.618 367.284 326.072 365.655 325.756 363.793Z" fill="#A9CFFF"/>
<path d="M322.548 372.949L310.688 379.584H328.78L340.841 372.145C341.444 371.743 341.143 370.838 340.439 370.938L322.548 372.949Z" fill="#016EEA"/>
<path d="M341.244 371.441L340.741 368.626L340.641 368.526C340.138 368.224 339.535 368.124 338.831 368.124L331.494 369.028C329.182 369.33 326.971 370.034 324.86 371.24L315.613 376.568L309.18 376.769L309.683 379.584H315.713L325.765 373.954C327.775 372.848 329.986 372.145 332.298 371.843L339.233 371.039C339.736 370.938 340.239 371.039 340.741 371.24L341.244 371.441Z" fill="#A9CFFF"/>
<path d="M278.926 190.79L272.593 211.197L300.737 288.102C300.737 288.102 314.206 280.361 314.206 279.859L302.747 191.694L278.926 190.79Z" fill="#99644C"/>
<path d="M289.58 104.736L275.508 107.652C270.281 108.758 266.562 113.382 266.562 118.71V159.625L289.58 104.736Z" fill="#016EEA"/>
<path d="M273.297 69.9531H281.84V80.8103H273.297V69.9531Z" fill="#99644C"/>
<path d="M281.237 62.1118H287.067V83.9267H281.237V62.1118Z" fill="black"/>
<path d="M289.58 88.25L283.047 91.1653V63.3187C283.047 61.7102 284.353 60.4033 285.962 60.4033H287.268C293.6 60.4033 298.425 66.033 297.52 72.2658L296.515 79.2023C295.812 83.123 293.299 86.541 289.58 88.25Z" fill="black"/>
<path d="M269.176 70.6572V75.8848C269.176 76.0858 269.176 76.2869 269.276 76.3874L269.98 78.0964C270.181 78.6996 270.081 79.3028 269.578 79.7049L269.176 80.107V90.1599C269.176 91.7684 270.483 93.0753 272.191 93.0753L290.887 92.9748L290.786 86.6414L269.176 70.6572Z" fill="#99644C"/>
<path d="M283.65 79.5039H287.972V86.0383H283.65V79.5039Z" fill="#99644C"/>
<path d="M287.771 80.8107H281.036V74.0752H287.771C289.279 74.0752 290.485 75.2815 290.485 76.7895V78.0964C290.485 79.7048 289.279 80.8107 287.771 80.8107Z" fill="#99644C"/>
<path d="M275.81 68.2441H284.554V72.768C285.962 72.8685 287.268 72.969 287.469 72.8685C287.771 72.768 284.554 76.2865 282.645 78.4981C282.142 79.1013 281.137 78.6992 281.137 77.895V74.9796C281.137 74.477 280.735 74.0749 280.232 74.0749H275.81V68.2441Z" fill="black"/>
<path d="M279.227 60.9058H279.629C281.237 60.9058 282.544 62.2126 282.544 63.8211V74.0751H268.874V71.2603C268.874 65.6306 273.498 60.9058 279.227 60.9058Z" fill="#99644C"/>
<path d="M291.691 64.625H281.338V84.5298C281.338 87.7468 283.951 90.4611 287.268 90.4611H291.691V64.625Z" fill="black"/>
<path d="M284.856 61.3076H272.694V68.2442C272.694 71.4611 275.307 74.1754 278.624 74.1754H284.856V61.3076Z" fill="black"/>
<path d="M278.423 265.583L280.232 299.764C280.333 300.769 280.433 301.774 280.634 302.679L295.309 364.002H308.979L305.461 299.764C305.361 297.853 304.958 296.044 304.255 294.335L294.204 270.107L278.423 265.583Z" fill="#99644C"/>
<path d="M267.166 181.038L262.24 199.938C261.939 200.943 261.939 201.948 262.24 202.954L279.026 274.933C279.026 274.933 295.611 276.34 295.611 275.837L292.796 223.864L291.088 181.842L267.166 181.038Z" fill="#99644C"/>
<path d="M293.801 365.811H297.721L296.415 358.473C296.214 357.166 295.008 356.161 293.6 356.161H291.992L293.801 365.811Z" fill="#A9CFFF"/>
<path d="M295.309 363.801H308.778V368.727H295.309V363.801Z" fill="#99644C"/>
<path d="M292.796 377.072H311.693V375.162C311.693 372.548 311.291 370.035 310.386 367.521L308.677 362.796L292.796 368.627V377.072Z" fill="#7EB8FF"/>
<path d="M308.979 361.589V368.827C308.577 368.827 297.219 374.959 296.917 375.261L295.108 377.07H272.995L273.699 375.06C274.101 374.055 274.905 373.25 276.011 372.949L287.67 370.134C289.882 369.631 291.791 368.324 293.198 366.515L295.912 362.896C296.515 362.092 297.52 361.589 298.526 361.589H308.979Z" fill="#7EB8FF"/>
<path d="M272.995 376.77H311.793V379.685H272.995V376.77Z" fill="#A9CFFF"/>
<path d="M304.355 374.256C306.243 374.256 307.773 372.726 307.773 370.838C307.773 368.95 306.243 367.42 304.355 367.42C302.468 367.42 300.938 368.95 300.938 370.838C300.938 372.726 302.468 374.256 304.355 374.256Z" fill="#A9CFFF"/>
<path d="M312.396 262.97H274.905L261.537 203.457H312.899L312.396 262.97Z" fill="#3D94FF"/>
<path d="M307.471 170.081H263.648L261.537 203.457H312.899L307.471 170.081Z" fill="#016EEA"/>
<path d="M273.598 93.6786H279.127V79.6045H270.684C269.477 79.6045 268.472 80.6098 268.472 81.8161V88.5516C268.372 91.3664 270.684 93.6786 273.598 93.6786Z" fill="#99644C"/>
<path d="M271.086 101.72L300.938 93.1748C302.144 92.8732 302.948 91.7674 302.948 90.4605V70.4551C302.948 64.2223 297.922 59.1958 291.691 59.1958H280.132C275.106 59.1958 271.086 63.217 271.086 68.2435V101.72Z" fill="#002652"/>
<path d="M267.97 74.1747H288.575V59.1958H278.725C272.292 59.1958 266.864 64.5239 266.864 71.1588V73.0689C266.864 73.672 267.367 74.1747 267.97 74.1747Z" fill="#002652"/>
<path d="M347.877 95.9907L340.942 97.2976V141.128C340.942 144.044 343.254 146.356 346.068 146.457C348.883 146.557 351.295 144.446 351.596 141.732L352.602 131.88C352.803 130.171 352.702 128.462 352.501 126.753L347.877 95.9907ZM210.979 168.674L209.27 169.578L208.165 170.181L202.435 166.562C202.234 166.462 202.134 166.16 202.234 165.959C202.636 165.457 203.34 165.256 204.144 165.457L204.647 165.658L210.979 168.674Z" fill="#99644C"/>
<path d="M211.28 167.869L211.783 168.17H211.682L210.878 168.573L209.17 169.477L204.747 165.758L204.345 165.356C204.144 165.255 204.144 164.953 204.244 164.752C204.647 164.25 205.451 164.149 206.154 164.551L211.28 167.869Z" fill="#99644C"/>
<path d="M214.195 166.965L211.783 168.271H211.683L211.281 167.869L207.26 164.552C207.059 164.451 207.059 164.15 207.16 163.949C207.562 163.446 208.366 163.346 209.069 163.748L214.195 166.965ZM348.883 93.6786L348.782 102.123L344.46 100.113L344.159 100.012C342.952 99.8109 341.847 99.3083 340.942 98.6046C340.037 97.9009 339.233 97.0966 338.63 95.9908L332.298 85.3347C332.097 85.1336 332.197 84.832 332.399 84.631L332.499 84.5304C333.002 84.1283 333.705 84.2288 334.107 84.7315L338.027 88.7527C338.228 88.9537 338.429 89.0543 338.63 89.0543C339.334 89.2553 340.037 88.8532 340.239 88.1495L343.153 79.6045L344.762 80.5093C345.465 80.9114 345.968 81.7156 346.068 82.5198C346.068 83.2236 346.169 83.8267 346.37 84.5304L348.079 90.4617C348.179 90.9643 348.38 91.3664 348.682 91.7686C348.782 92.5728 348.883 93.0754 348.883 93.6786Z" fill="#99644C"/>
<path d="M344.661 70.9585C343.957 71.059 343.354 71.6622 343.254 72.4664L342.349 85.1332L345.968 87.1437L345.063 71.3606C345.063 71.1596 344.862 70.9585 344.661 70.9585Z" fill="#99644C"/>
<path d="M348.48 133.689L328.579 119.112L314.105 104.736L308.476 123.937L335.012 139.922L341.344 144.043C344.259 145.953 348.179 145.049 349.988 142.133C351.797 139.318 351.094 135.599 348.48 133.689Z" fill="#016EEA"/>
<path d="M291.289 262.97H290.083C287.168 262.97 284.756 260.758 284.454 257.843L282.645 236.531V257.742C282.645 260.658 280.333 262.97 277.418 262.97V268.097H291.289V262.97ZM218.015 161.234L220.528 154.7L267.065 163.245L264.251 171.388C263.748 172.694 262.542 173.499 261.135 173.398L251.888 172.594C250.38 172.493 248.973 172.192 247.566 171.689L218.015 161.234Z" fill="#99644C"/>
<path d="M266.16 166.562L281.539 128.059L283.549 116.398L266.763 118.61L254.601 160.832L266.16 166.562Z" fill="#016EEA"/>
<path d="M282.544 106.245L300.033 102.324L314.005 127.356L278.926 136.102L282.544 106.245Z" fill="#016EEA"/>
<path d="M288.474 106.646L297.521 103.53C297.822 103.43 298.023 103.128 297.822 102.826L295.51 97.0962L282.444 101.519L283.65 104.435C284.353 106.345 286.464 107.25 288.474 106.646Z" fill="#99644C"/>
<path d="M276.714 107.451L301.239 102.324L316.718 112.478L308.878 130.573C307.27 134.293 302.345 135.197 299.531 132.181L276.714 107.451Z" fill="#3D94FF"/>
<path d="M279.83 106.747L300.938 101.821L316.718 112.477L279.83 106.747Z" fill="#53A0FF"/>
<path opacity="0.1" d="M209.169 163.747C208.466 163.345 207.662 163.446 207.26 163.948C207.159 164.149 207.159 164.35 207.36 164.551L211.381 167.869L206.154 164.551C205.45 164.149 204.646 164.25 204.244 164.752C204.144 164.954 204.144 165.155 204.345 165.356L204.747 165.758L204.244 165.557C203.541 165.255 202.737 165.456 202.335 166.059C202.234 166.26 202.335 166.461 202.536 166.663L208.265 170.282L209.37 169.678L211.079 168.774L211.883 168.372H211.984L214.396 167.065L209.169 163.747Z" fill="#1D2445"/>
<path d="M236.409 167.467L227.463 164.25C226.056 163.647 224.448 163.647 223.04 164.451L221.734 165.155L216.105 168.673C215.401 169.076 214.698 169.277 213.894 169.076L211.682 168.673L208.667 170.583C207.963 170.986 207.26 171.287 206.355 171.388L198.917 172.393C198.716 172.393 198.515 172.292 198.415 172.091C198.314 171.287 198.817 170.583 199.621 170.382L206.255 168.472L212.487 163.345L213.391 162.038C213.492 161.837 213.492 161.636 213.391 161.536C213.291 161.335 213.09 161.335 212.889 161.335C211.682 161.737 207.963 163.144 207.36 163.345C206.757 163.546 206.054 163.245 205.853 162.642C205.652 162.139 205.853 161.536 206.355 161.234C206.355 161.234 209.17 159.626 210.979 158.62C211.582 158.319 212.185 157.816 212.688 157.314C213.492 156.509 214.597 155.906 215.703 155.605L218.919 154.901C220.729 154.499 222.538 154.097 224.749 155.404L230.177 157.213L236.409 167.467Z" fill="#99644C"/>
</g>
<defs>
<clipPath id="clip0_2216_117755">
<rect width="112.061" height="333.704" fill="white" transform="translate(96.0912 42.126)"/>
</clipPath>
<clipPath id="clip1_2216_117755">
<rect width="69.3836" height="78.1947" fill="white" transform="translate(115.915 91.9614)"/>
</clipPath>
<clipPath id="clip2_2216_117755">
<rect width="154.187" height="320.488" fill="white" transform="translate(198.515 59.1958)"/>
</clipPath>
</defs>
</svg>
