<svg width="459" height="345" viewBox="0 0 459 345" fill="none" xmlns="http://www.w3.org/2000/svg">
<g clip-path="url(#clip0_2216_117610)">
<path d="M158.929 123.692H223.189V184.747H158.929V123.692Z" fill="#F3F4F6"/>
<path d="M166.354 136.785H183.777V139.739H166.354V136.785ZM187.703 136.785H190.648V139.739H187.703V136.785ZM193.077 136.785H196.021V139.739H193.077V136.785Z" fill="white"/>
<path d="M169.966 121.635H172.469V129.166H169.966V121.635ZM189.807 121.635H192.31V129.166H189.807V121.635ZM209.649 121.635H212.151V129.166H209.649V121.635Z" fill="#EDEEF0"/>
<path d="M174.147 145.155H178.733V149.756H174.147V145.155ZM181.456 145.155H186.042V149.756H181.456V145.155ZM188.766 145.155H193.352V149.756H188.766V145.155ZM196.075 145.155H200.661V149.756H196.075V145.155Z" fill="#68ABFF"/>
<path d="M203.384 145.155H207.97V149.756H203.384V145.155ZM210.693 145.155H215.279V149.756H210.693V145.155Z" fill="#B3D1F6"/>
<path d="M166.838 154.151H171.424V158.752H166.838V154.151ZM174.147 154.151H178.733V158.752H174.147V154.151ZM181.456 154.151H186.042V158.752H181.456V154.151ZM188.765 154.151H193.351V158.752H188.765V154.151ZM196.075 154.151H200.661V158.752H196.075V154.151Z" fill="#68ABFF"/>
<path d="M203.384 154.151H207.97V158.752H203.384V154.151ZM210.693 154.151H215.279V158.752H210.693V154.151Z" fill="#B3D1F6"/>
<path d="M166.838 163.147H171.424V167.748H166.838V163.147ZM174.147 163.147H178.733V167.748H174.147V163.147ZM181.456 163.147H186.042V167.748H181.456V163.147ZM188.765 163.147H193.351V167.748H188.765V163.147ZM196.075 163.147H200.661V167.748H196.075V163.147Z" fill="#68ABFF"/>
<path d="M203.384 163.147H207.97V167.748H203.384V163.147ZM210.693 163.147H215.279V167.748H210.693V163.147Z" fill="#B3D1F6"/>
<path d="M166.838 172.143H171.424V176.743H166.838V172.143ZM174.147 172.143H178.733V176.743H174.147V172.143ZM181.456 172.143H186.042V176.743H181.456V172.143ZM188.765 172.143H193.351V176.743H188.765V172.143Z" fill="#68ABFF"/>
</g>
<g clip-path="url(#clip1_2216_117610)">
<path d="M73.2929 285.727H52.7135L46.4254 250.256H79.581L73.2929 285.727ZM73.2546 240.37C73.2546 242.727 70.6885 244.639 67.5227 244.639C64.3569 244.639 58.3637 242.085 58.3637 242.085C58.3637 242.085 64.3569 236.101 67.5227 236.101C70.6885 236.101 73.2546 238.012 73.2546 240.37ZM38.4412 235.741C38.4412 238.099 41.0073 240.01 44.1731 240.01C47.3389 240.01 53.3321 237.456 53.3321 237.456C53.3321 237.456 47.3389 231.473 44.1731 231.473C41.0073 231.473 38.4412 233.384 38.4412 235.741ZM50.1554 215.086C50.1554 217.443 52.7215 219.355 55.8873 219.355C59.0531 219.355 65.0463 216.801 65.0463 216.801C65.0463 216.801 59.0531 210.817 55.8873 210.817C52.7215 210.817 50.1554 212.728 50.1554 215.086ZM60.8224 200.488C60.8224 202.452 62.9603 204.044 65.5979 204.044C68.2355 204.044 73.2289 201.916 73.2289 201.916C73.2289 201.916 68.2355 196.931 65.5979 196.931C62.9603 196.931 60.8224 198.523 60.8224 200.488ZM49.6123 183.397C49.6123 185.165 51.5365 186.598 53.91 186.598C56.2835 186.598 60.7772 184.683 60.7772 184.683C60.7772 184.683 56.2835 180.196 53.91 180.196C51.5365 180.196 49.6123 181.629 49.6123 183.397ZM54.2278 166.98C54.2278 167.941 55.2739 168.72 56.5642 168.72C57.8544 168.72 60.2976 167.679 60.2976 167.679C60.2976 167.679 57.8544 165.24 56.5642 165.24C55.2739 165.24 54.2278 166.019 54.2278 166.98ZM62.5819 227.196C62.5819 229.553 60.0158 231.465 56.85 231.465C53.6842 231.465 47.691 228.911 47.691 228.911C47.691 228.911 53.6842 222.927 56.85 222.927C60.0158 222.927 62.5819 224.838 62.5819 227.196ZM86.0624 210.817C86.0624 213.175 83.4963 215.086 80.3305 215.086C77.1647 215.086 71.1715 212.532 71.1715 212.532C71.1715 212.532 77.1647 206.549 80.3305 206.549C83.4963 206.548 86.0624 208.459 86.0624 210.817ZM75.8419 188.564C75.8419 190.43 73.8108 191.943 71.3053 191.943C68.7997 191.943 64.0568 189.921 64.0568 189.921C64.0568 189.921 68.8003 185.185 71.3059 185.185C73.8114 185.185 75.8419 186.697 75.8419 188.564ZM69.7938 172.897C69.7938 174.763 67.7628 176.276 65.2572 176.276C62.7517 176.276 58.0087 174.254 58.0087 174.254C58.0087 174.254 62.7523 169.518 65.2578 169.518C67.7633 169.518 69.7938 171.031 69.7938 172.897Z" fill="#EFF0F2"/>
<path d="M64.9343 256.071L64.4427 254.878C63.9858 253.766 63.5001 252.665 62.9861 251.577C62.3219 250.183 61.4633 248.518 60.3005 246.768C59.7209 245.893 59.0366 245.019 58.2735 244.162L57.9813 243.843C57.9185 243.771 57.7744 243.635 57.6738 243.532C57.4514 243.309 57.2256 243.082 57.0078 242.89C56.5447 242.464 56.0711 242.05 55.5873 241.648L52.3746 238.969C51.2513 238.002 50.1069 236.895 49.1259 235.547C48.656 234.858 48.1907 234.143 47.834 233.354L47.6951 233.062L47.6379 232.934L47.6128 232.865L47.5625 232.724L47.3601 232.163C47.2178 231.818 47.1017 231.344 46.9908 230.891C46.7604 229.987 46.7319 229.067 46.7999 228.123C46.9434 227.186 47.2075 226.248 47.7117 225.445C48.2067 224.649 48.8047 223.929 49.5055 223.358C50.1892 222.763 50.9329 222.271 51.6926 221.812C53.2349 220.936 54.8436 220.211 56.4756 219.52C59.7392 218.162 63.129 216.944 66.2308 215.297C67.7657 214.477 69.2646 213.555 70.3381 212.403C70.4839 212.268 70.6074 212.121 70.7177 211.97C70.8206 211.827 70.9801 211.662 71.039 211.542L71.2173 211.261L71.3065 211.12L71.3619 211.004C71.434 210.841 71.5169 210.717 71.5855 210.527C71.8919 209.832 72.1028 209.075 72.2337 208.291C72.4989 206.719 72.4847 205.059 72.344 203.414C72.3091 203.001 72.2668 202.589 72.2171 202.178L72.1994 202.024L72.1948 201.985C72.2131 202.131 72.196 202.003 72.1983 202.025L72.184 201.946L72.1285 201.63L72.0188 201C71.989 200.771 71.9313 200.62 71.8799 200.458L71.7324 199.972C71.6403 199.648 71.4574 199.307 71.3305 198.977C70.0992 196.352 67.6388 194.438 65.2887 192.483C64.1077 191.501 62.917 190.516 61.8497 189.421C61.5782 189.157 61.3278 188.861 61.0705 188.586L60.8802 188.378L60.8327 188.326L60.743 188.221L60.7235 188.195L60.6458 188.088L60.3365 187.663L60.1828 187.451L60.0227 187.18L59.7112 186.629C59.4859 186.251 59.3722 185.924 59.2207 185.584C58.6679 184.229 58.3278 182.917 58.0945 181.663C57.8339 180.413 57.7401 179.212 57.6601 178.09C57.5275 175.843 57.6915 173.875 58.0053 172.288C58.326 170.7 58.7817 169.496 59.2212 168.741C59.3121 168.545 59.4248 168.387 59.5271 168.254C59.6753 168.051 59.8241 167.848 59.9735 167.646L60.2073 167.814L60.0719 168.108L59.9078 168.463C59.8392 168.601 59.766 168.762 59.7186 168.965C59.4453 169.73 59.2275 170.913 59.1475 172.427C59.0755 173.944 59.1807 175.801 59.5259 177.887C59.7083 178.927 59.9398 180.027 60.2651 181.151C60.5783 182.316 61.0063 183.446 61.5427 184.526C61.6799 184.79 61.8131 185.098 61.9606 185.296L62.1704 185.634C62.207 185.692 62.2338 185.746 62.2773 185.808L62.4436 186.01L62.7786 186.415L62.8627 186.517L62.8838 186.542C62.7592 186.394 62.8621 186.514 62.8398 186.486L62.8844 186.529L63.0639 186.701C63.308 186.93 63.5343 187.171 63.7962 187.395C64.8063 188.311 65.9496 189.199 67.1666 190.136C68.3768 191.08 69.6636 192.077 70.8938 193.297C72.1165 194.508 73.2941 195.984 74.039 197.753C74.2042 198.208 74.4031 198.625 74.5317 199.116L74.7209 199.854C74.7833 200.101 74.849 200.357 74.8661 200.553L74.9536 201.187L74.9971 201.504L75.0079 201.584L75.0234 201.703L75.0262 201.744L75.0382 201.91C75.0708 202.351 75.0965 202.797 75.1142 203.246C75.1788 205.039 75.1394 206.904 74.7129 208.789C74.4963 209.728 74.1859 210.675 73.7126 211.572C73.6097 211.791 73.4405 212.036 73.3021 212.263L73.1924 212.436L73.0917 212.568L72.89 212.834C72.7093 213.09 72.539 213.23 72.3618 213.432C72.1943 213.622 72.0114 213.798 71.8147 213.957C70.2895 215.259 68.578 216.03 66.8882 216.72C63.4898 218.055 60.041 218.982 56.8089 220.327C55.1951 220.985 53.6237 221.727 52.2386 222.679C51.5577 223.162 50.89 223.659 50.3567 224.256C49.8154 224.805 49.3762 225.446 49.0596 226.15C48.7446 226.821 48.66 227.54 48.6303 228.234L48.6783 228.763C48.6932 228.937 48.7006 229.11 48.7543 229.285C48.8435 229.63 48.8973 229.984 49.0322 230.296C49.1482 230.617 49.2357 230.921 49.4358 231.3L49.6936 231.839L49.7576 231.974L49.7896 232.041C49.7467 231.943 49.7879 232.03 49.7827 232.016L49.7999 232.045L49.9354 232.278C50.2664 232.909 50.6945 233.48 51.1227 234.035C52.8988 236.22 55.1591 237.983 57.193 239.828C57.6973 240.289 58.1848 240.769 58.6547 241.265C58.9017 241.515 59.1081 241.752 59.3144 241.986C59.4259 242.114 59.5054 242.195 59.6408 242.36L59.9495 242.741C60.7664 243.75 61.3907 244.798 61.9326 245.789C62.4348 246.711 62.8754 247.665 63.2514 248.645C63.6018 249.545 63.8979 250.377 64.1157 251.144C64.4706 252.319 64.763 253.513 64.9915 254.719L65.2093 255.996L64.9343 256.071Z" fill="#EFF0F2"/>
</g>
<g clip-path="url(#clip2_2216_117610)">
<path d="M127.256 290.891H261.762C267.393 290.891 271.957 286.525 271.957 281.138H117.045C117.045 286.525 121.609 290.891 127.24 290.891H127.256Z" fill="#EFF0F2"/>
</g>
<g clip-path="url(#clip3_2216_117610)">
<path d="M294.16 50.0166H397.783V117.619H294.16V50.0166Z" fill="#F3F4F6"/>
<path d="M287.449 45.8999H404.494V50.7726H287.449V45.8999Z" fill="#D2D3DA"/>
</g>
<g clip-path="url(#clip4_2216_117610)">
<path d="M209.49 200.812H397.035V208.601H209.49V200.812Z" fill="#D2D3DA"/>
<path d="M370.103 206.376H380.15V215.277H370.103V206.376Z" fill="#D2D3DA"/>
<path d="M393.046 282.859L375.126 216.284L357.206 282.859L353.73 281.929L375.126 202.438L396.522 281.929L393.046 282.859ZM225.792 206.376H235.839V215.277H225.792V206.376Z" fill="#D2D3DA"/>
<path d="M248.735 282.859L230.815 216.284L212.895 282.859L209.419 281.929L230.815 202.438L252.212 281.929L248.735 282.859Z" fill="#D2D3DA"/>
</g>
<g clip-path="url(#clip5_2216_117610)">
<path d="M327.037 83.8496H333.972V99.2587H327.037V83.8496ZM336.779 83.8496H343.713V99.2587H336.779V83.8496Z" fill="#013B84"/>
<path d="M346.52 81.2261H353.455V99.2583H346.52V81.2261ZM356.261 73.6855H363.196V99.2583H356.261V73.6855Z" fill="#2888FF"/>
<path d="M366.003 67.1289H372.937V99.2589H366.003V67.1289Z" fill="#93C3FF"/>
</g>
<g clip-path="url(#clip6_2216_117610)">
<path d="M56.8013 46.3677H125.078V111.308H56.8013V46.3677Z" fill="#F3F4F6"/>
<path d="M64.6902 60.293H83.2023V63.4347H64.6902V60.293ZM87.3741 60.293H90.5027V63.4347H87.3741V60.293ZM93.0837 60.293H96.2122V63.4347H93.0837V60.293Z" fill="white"/>
<path d="M68.5286 44.1787H71.1876V52.1889H68.5286V44.1787ZM89.6097 44.1787H92.2688V52.1889H89.6097V44.1787ZM110.691 44.1787H113.35V52.1889H110.691V44.1787Z" fill="#EDEEF0"/>
<path d="M72.9712 69.1958H77.8438V74.0889H72.9712V69.1958ZM80.737 69.1958H85.6096V74.0889H80.737V69.1958ZM88.5029 69.1958H93.3755V74.0889H88.5029V69.1958ZM96.2693 69.1958H101.142V74.0889H96.2693V69.1958Z" fill="#68ABFF"/>
<path d="M104.035 69.1958H108.908V74.0889H104.035V69.1958ZM111.801 69.1958H116.674V74.0889H111.801V69.1958Z" fill="#2888FF"/>
<path d="M65.2053 78.7646H70.0779V83.6577H65.2053V78.7646ZM72.9712 78.7646H77.8438V83.6577H72.9712V78.7646ZM80.737 78.7646H85.6096V83.6577H80.737V78.7646ZM88.5029 78.7646H93.3755V83.6577H88.5029V78.7646ZM96.2693 78.7646H101.142V83.6577H96.2693V78.7646Z" fill="#68ABFF"/>
<path d="M104.035 78.7646H108.908V83.6577H104.035V78.7646ZM111.801 78.7646H116.674V83.6577H111.801V78.7646Z" fill="#2888FF"/>
<path d="M65.2053 88.333H70.0779V93.2261H65.2053V88.333ZM72.9712 88.333H77.8438V93.2261H72.9712V88.333ZM80.737 88.333H85.6096V93.2261H80.737V88.333ZM88.5029 88.333H93.3755V93.2261H88.5029V88.333ZM96.2693 88.333H101.142V93.2261H96.2693V88.333Z" fill="#68ABFF"/>
<path d="M104.035 88.333H108.908V93.2261H104.035V88.333ZM111.801 88.333H116.674V93.2261H111.801V88.333Z" fill="#2888FF"/>
<path d="M65.2053 97.9019H70.0779V102.795H65.2053V97.9019ZM72.9712 97.9019H77.8438V102.795H72.9712V97.9019ZM80.737 97.9019H85.6096V102.795H80.737V97.9019ZM88.5029 97.9019H93.3755V102.795H88.5029V97.9019Z" fill="#68ABFF"/>
</g>
<g clip-path="url(#clip7_2216_117610)">
<path d="M157.165 49.5083H262.82V118.192H157.165V49.5083Z" fill="#F3F4F6"/>
<path d="M150.322 45.3262H269.662V50.2768H150.322V45.3262Z" fill="#D2D3DA"/>
</g>
<g clip-path="url(#clip8_2216_117610)">
<path d="M174.801 113.028H174.458V86.0309H174.801V113.028ZM174.801 81.93H174.458V78.5126H174.801V81.93ZM174.801 74.4117H174.458V50.4897H174.801V74.4117ZM190.877 111.32H190.535V107.219H190.877V111.32ZM190.877 103.801H190.535V99.7006H190.877V103.801ZM190.877 89.4483H190.535V72.3612H190.877V89.4483ZM190.877 68.2603H190.535V64.8429H190.877V68.2603ZM190.877 60.742H190.535V50.4897H190.877V60.742ZM206.611 50.4897H206.953V113.028H206.611V50.4897ZM223.029 113.028H222.687V86.0309H223.029V113.028ZM223.029 81.93H222.687V78.5126H223.029V81.93ZM223.029 74.4117H222.687V50.4897H223.029V74.4117ZM239.105 113.028H238.763V102.776H239.105V113.028ZM239.105 98.6753H238.763V95.2579H239.105V98.6753ZM239.105 91.157H238.763V74.0699H239.105V91.157ZM239.105 63.8177H238.763V59.7168H239.105V63.8177ZM239.105 56.2994H238.763V52.1985H239.105V56.2994Z" fill="#E8E9EC"/>
<path d="M218.753 60.2294H208.492V59.8877H218.753V60.2294ZM204.387 60.2294H200.967V59.8877H204.387V60.2294ZM196.862 60.2294H179.76V59.8877H196.862V60.2294ZM171.551 75.9496H242.696V76.2913H171.551V75.9496ZM242.696 92.3532H218.753V92.0114H242.696V92.3532ZM214.649 92.3532H211.228V92.0114H214.649V92.3532ZM207.124 92.3532H179.76V92.0114H207.124V92.3532ZM232.435 108.415H228.33V108.073H232.435V108.415ZM224.91 108.415H220.805V108.073H224.91V108.415ZM210.544 108.415H193.442V108.073H210.544V108.415ZM189.338 108.415H185.917V108.073H189.338V108.415ZM181.813 108.415H171.551V108.073H181.813V108.415Z" fill="#E8E9EC"/>
<path d="M174.263 94.1547L173.628 92.9443L195.263 81.6046L196.283 85.6819L199.414 76.6087L204.472 84.5487L208.864 79.4855L216.821 89.7548L226.261 63.5552L230.444 74.5719L236.655 72.3998L237.107 73.6902L229.637 76.3025L226.295 67.4982L217.265 92.5598L208.804 81.6412L204.303 86.8302L199.783 79.7336L196.074 90.4814L194.358 83.6229L174.263 94.1547Z" fill="#2888FF"/>
</g>
<g clip-path="url(#clip9_2216_117610)">
<path d="M337.964 199.241L337.263 198.885C335.96 198.223 334.867 197.214 334.103 195.97C333.339 194.726 332.935 193.295 332.935 191.836V167.334H312.534V191.836C312.534 193.295 312.13 194.726 311.366 195.97C310.602 197.214 309.508 198.223 308.206 198.885L307.504 199.241C307.01 199.493 307.189 200.238 307.744 200.238H337.724C338.279 200.239 338.459 199.493 337.964 199.241Z" fill="#E8E9EC"/>
<path d="M374.313 124.504H271.156C270.455 124.504 269.784 124.782 269.289 125.276C268.793 125.771 268.515 126.441 268.515 127.141V175.356L270.099 176.685V180.401C270.099 181.1 270.378 181.771 270.873 182.266C271.368 182.76 272.04 183.038 272.74 183.038H372.729C373.429 183.038 374.101 182.76 374.596 182.266C375.091 181.771 375.37 181.1 375.37 180.401V177.259L376.954 175.356V127.141C376.954 126.441 376.676 125.771 376.18 125.276C375.685 124.782 375.014 124.504 374.313 124.504Z" fill="#BBBDC7"/>
<path d="M376.954 175.356H268.515V181.983C268.515 182.682 268.793 183.353 269.289 183.847C269.784 184.342 270.455 184.62 271.156 184.62H374.313C375.014 184.62 375.685 184.342 376.18 183.847C376.676 183.353 376.954 182.682 376.954 181.983V175.356Z" fill="#F3F4F6"/>
<path d="M272.238 128.072H373.231V171.832H272.238V128.072Z" fill="#DDDEE3"/>
<path d="M323.763 182.203H321.706C321.125 182.203 320.65 181.728 320.65 181.148V179.094C320.65 178.514 321.125 178.04 321.706 178.04H323.763C324.344 178.04 324.819 178.514 324.819 179.094V181.148C324.819 181.728 324.344 182.203 323.763 182.203Z" fill="#E8E9EC"/>
</g>
<g clip-path="url(#clip10_2216_117610)">
<path d="M298.35 168.916L300.946 168.812L303.925 168.693L305.758 168.62L306.248 168.6L306.741 168.57L307.78 168.502C309.173 168.372 310.668 168.183 312.228 167.818C313.785 167.471 315.402 167 317.008 166.355C318.657 165.704 320.251 164.923 321.775 164.018C323.332 163.08 324.808 162.014 326.187 160.83C327.556 159.654 328.825 158.368 329.982 156.984C331.123 155.619 332.109 154.174 332.959 152.725C333.807 151.274 334.521 149.816 335.069 148.387C335.627 146.962 336.061 145.585 336.36 144.291C336.684 143.005 336.863 141.802 337 140.738C337.12 139.672 337.189 138.741 337.201 137.972C337.243 137.206 337.203 136.601 337.203 136.191L337.196 135.723L337.189 135.55H342.023L342.016 135.724L341.982 136.263C341.946 136.735 341.931 137.428 341.815 138.304C341.728 139.181 341.565 140.24 341.331 141.441C341.078 142.639 340.762 143.985 340.281 145.408C339.826 146.839 339.214 148.347 338.463 149.885C337.724 151.428 336.802 152.983 335.74 154.504C334.676 156.025 333.469 157.516 332.111 158.899C330.744 160.293 329.263 161.571 327.684 162.721C326.116 163.864 324.454 164.874 322.716 165.739C321.038 166.562 319.297 167.249 317.509 167.795C315.779 168.333 314.063 168.688 312.428 168.917C310.8 169.164 309.231 169.237 307.798 169.254L306.758 169.239L306.247 169.229L305.757 169.21L303.924 169.137L300.945 169.018C299.294 168.954 298.35 168.916 298.35 168.916Z" fill="#2888FF"/>
<path d="M334.631 135.639L339.441 129.667L344.25 135.639H334.631Z" fill="#2888FF"/>
</g>
<g clip-path="url(#clip11_2216_117610)">
<path d="M157.739 113.194H263.394V181.878H157.739V113.194Z" fill="#F3F4F6"/>
</g>
<g clip-path="url(#clip12_2216_117610)">
<path d="M171.891 172.033C175.203 175.283 179.74 177.289 184.748 177.289C194.842 177.289 203.032 169.14 203.105 159.058H184.864L171.891 172.033ZM183.659 137.128L183.604 137.126C178.555 137.126 173.984 139.164 170.664 142.46L183.659 155.455L183.659 137.128Z" fill="#76B3FF"/>
<path d="M185.376 138.844V157.171L185.367 157.34H203.678C203.679 157.295 203.681 157.25 203.681 157.204C203.681 147.083 195.49 138.875 185.376 138.844Z" fill="#2888FF"/>
<path d="M183.087 157.744L170.092 144.749C166.741 148.075 164.666 152.683 164.666 157.777C164.666 162.914 166.776 167.555 170.174 170.888L183.19 157.87L183.087 157.744Z" fill="#EDEEF0"/>
</g>
<g clip-path="url(#clip13_2216_117610)">
<path d="M205.976 168.682H208.645V173.846H205.976V168.682ZM210.442 168.682H213.11V173.846H210.442V168.682ZM214.907 168.682H217.576V173.846H214.907V168.682ZM219.372 168.682H222.041V173.846H219.372V168.682ZM210.442 161.797H213.11V166.961H210.442V161.797ZM214.907 161.797H217.576V166.961H214.907V161.797ZM219.372 161.797H222.041V166.961H219.372V161.797ZM214.907 154.912H217.576V160.076H214.907V154.912ZM219.372 154.912H222.041V160.076H219.372V154.912ZM219.372 148.027H222.041V153.191H219.372V148.027Z" fill="#EDEEF0"/>
</g>
<g clip-path="url(#clip14_2216_117610)">
<path d="M143.021 234.983H148.039V270.266H143.021V234.983Z" fill="#D2D3DA"/>
<path d="M172.987 235.754H128.491C122.424 235.754 117.487 230.824 117.487 224.763V214.042C117.488 213.353 117.36 212.671 117.111 212.029L99.4584 166.398C99.1752 165.666 99.1948 164.851 99.5129 164.133C99.831 163.416 100.422 162.853 101.155 162.57C101.888 162.288 102.703 162.307 103.422 162.625C104.141 162.943 104.704 163.532 104.987 164.265L122.639 209.896C123.152 211.218 123.414 212.624 123.413 214.042V224.763C123.413 227.559 125.691 229.834 128.491 229.834H172.986C173.772 229.834 174.526 230.146 175.082 230.701C175.638 231.256 175.95 232.009 175.95 232.794C175.95 233.579 175.638 234.332 175.082 234.887C174.527 235.442 173.773 235.754 172.987 235.754Z" fill="#BBBDC7"/>
<path d="M155.316 237.144C155.001 237.144 154.7 237.019 154.478 236.797C154.255 236.575 154.13 236.274 154.13 235.96V234.311L158.701 218.476C158.825 218.044 158.737 217.625 158.437 217.227C157.935 216.56 156.968 216.146 155.915 216.146H134.073C132.987 216.146 132.007 216.579 131.516 217.276C131.225 217.689 131.158 218.122 131.316 218.562L137.046 234.502V235.862C137.046 236.176 136.921 236.477 136.699 236.699C136.476 236.921 136.175 237.046 135.86 237.046C135.546 237.046 135.245 236.921 135.022 236.699C134.8 236.477 134.675 236.176 134.675 235.862V234.913L129.085 219.362C128.669 218.206 128.848 216.949 129.577 215.914C130.519 214.577 132.199 213.779 134.073 213.779H155.916C157.726 213.779 159.376 214.536 160.332 215.804C161.081 216.799 161.311 217.981 160.979 219.132L156.501 234.646V235.961C156.501 236.275 156.376 236.576 156.153 236.797C155.931 237.019 155.63 237.144 155.316 237.144ZM109.574 279.108H107.203V273.667L108.059 273.42C119.833 270.019 132.546 268.257 145.846 268.183L145.859 270.551C133.099 270.622 120.897 272.269 109.573 275.45L109.574 279.108Z" fill="#8E91A2"/>
<path d="M184.503 279.108H182.132V275.45C170.808 272.269 158.606 270.622 145.846 270.551L145.859 268.184C159.158 268.257 171.872 270.019 183.646 273.42L184.502 273.667V279.108H184.503Z" fill="#8E91A2"/>
<path d="M168.711 279.108H166.34V275.295C159.943 272.216 153.058 270.621 145.864 270.551L145.887 268.184C153.691 268.258 161.15 270.046 168.056 273.499L168.711 273.826V279.108Z" fill="#8E91A2"/>
<path d="M165.765 278.713H167.844C168.54 278.713 169.104 279.277 169.104 279.972V283.287H161.828L161.823 282.681C161.819 282.161 161.918 281.646 162.114 281.165C162.311 280.684 162.6 280.246 162.967 279.877C163.333 279.508 163.769 279.216 164.249 279.016C164.729 278.816 165.244 278.713 165.765 278.713ZM109.544 278.713H107.464C107.13 278.713 106.81 278.846 106.573 279.082C106.337 279.318 106.204 279.638 106.204 279.972V283.287H113.481L113.485 282.681C113.489 282.161 113.391 281.646 113.194 281.165C112.998 280.684 112.708 280.246 112.342 279.877C111.976 279.508 111.54 279.216 111.06 279.016C110.579 278.816 110.064 278.713 109.544 278.713ZM181.981 278.713H184.061C184.756 278.713 185.321 279.277 185.321 279.972V283.287H178.044L178.04 282.681C178.035 282.161 178.134 281.646 178.331 281.165C178.527 280.684 178.817 280.246 179.183 279.877C179.549 279.508 179.985 279.216 180.465 279.016C180.946 278.816 181.461 278.713 181.981 278.713Z" fill="#8E91A2"/>
<path d="M165.888 286.301C167.665 286.301 169.105 284.863 169.105 283.088C169.105 281.314 167.665 279.876 165.888 279.876C164.112 279.876 162.672 281.314 162.672 283.088C162.672 284.863 164.112 286.301 165.888 286.301Z" fill="#838799"/>
<path d="M182.105 286.301C183.881 286.301 185.321 284.863 185.321 283.088C185.321 281.314 183.881 279.876 182.105 279.876C180.328 279.876 178.888 281.314 178.888 283.088C178.888 284.863 180.328 286.301 182.105 286.301Z" fill="#838799"/>
<path d="M109.42 286.301C111.197 286.301 112.637 284.863 112.637 283.088C112.637 281.314 111.197 279.876 109.42 279.876C107.644 279.876 106.204 281.314 106.204 283.088C106.204 284.863 107.644 286.301 109.42 286.301Z" fill="#838799"/>
</g>
<g clip-path="url(#clip15_2216_117610)">
<path d="M240.483 199.829H244.157L256.908 179.01H253.234L240.483 199.829Z" fill="#013B84"/>
<path d="M242.625 201.386H221.468C221.011 201.386 220.573 201.206 220.25 200.884C219.928 200.562 219.746 200.126 219.746 199.671H244.346C244.346 200.126 244.165 200.562 243.842 200.884C243.52 201.206 243.082 201.386 242.625 201.386Z" fill="#2888FF"/>
<path d="M257.358 181.37L246.254 199.316C246.014 199.704 245.63 199.98 245.186 200.085C244.742 200.19 244.274 200.115 243.885 199.876L256.796 179.01C256.988 179.128 257.155 179.283 257.288 179.466C257.42 179.648 257.515 179.855 257.567 180.074C257.62 180.293 257.628 180.521 257.592 180.743C257.556 180.965 257.477 181.178 257.358 181.37Z" fill="#2888FF"/>
</g>
<g clip-path="url(#clip16_2216_117610)">
<path d="M100.416 154.282L79.5477 163.356C79.0497 163.573 78.4997 163.642 77.9636 163.554C77.4275 163.467 76.9279 163.227 76.5245 162.864L74.7854 160.768C72.6045 158.139 73.1959 154.2 76.0535 152.327L76.4735 152.052C76.9243 151.756 77.4381 151.57 77.9737 151.509L95.6764 149.462L100.416 154.282Z" fill="#C78982"/>
<path d="M117.262 146.361L117.262 146.355C117.265 146.282 117.239 146.21 117.189 146.155C117.14 146.101 117.071 146.067 116.998 146.063L111.883 145.793C111.332 145.764 110.782 145.857 110.271 146.066L108.026 146.962L106.624 146.424C106.134 146.234 105.592 146.234 105.103 146.422L100.878 148.027L100.844 148.041C100.696 148.092 100.547 148.136 100.395 148.172L100.398 148.177L91.2856 150.621L98.0741 154.028C99.3623 155.227 100.301 155.206 101.559 155.187L103.768 155.149C104.566 155.113 105.34 154.864 106.009 154.428C106.417 154.156 106.862 153.943 107.33 153.797C108.464 153.423 109.595 153.04 110.723 152.648C111.06 152.499 111.256 152.152 111.218 151.791L111.209 151.711C111.17 151.498 111.049 151.31 110.871 151.187C110.693 151.063 110.473 151.016 110.26 151.054C109.812 151.131 107.136 151.558 106.297 151.675L106.291 151.676C106.225 151.683 106.157 151.67 106.098 151.638C106.04 151.606 105.992 151.557 105.962 151.497C105.932 151.439 105.923 151.372 105.934 151.308C105.945 151.243 105.977 151.184 106.024 151.138L106.788 150.402L111.59 147.765L116.264 147.344C116.516 147.321 116.752 147.213 116.934 147.036C117.115 146.86 117.231 146.627 117.262 146.376L117.262 146.361Z" fill="#C78982"/>
<path d="M100.416 154.282L79.5475 163.356C79.0495 163.573 78.4995 163.642 77.9634 163.554C77.4273 163.467 76.9277 163.227 76.5243 162.864L74.7514 160.727C72.5883 158.12 73.175 154.214 76.0092 152.356L76.6498 151.936C76.9847 151.717 77.3664 151.578 77.7643 151.533L95.6767 149.462L100.416 154.282ZM131.957 150.977L134.016 175.319L120.382 175.343L118.891 144.172L124.521 144.163C128.397 144.155 131.631 147.119 131.957 150.977Z" fill="#2888FF"/>
<path d="M96.2475 184.312L74.6397 162.309C71.3031 158.911 72.9046 153.178 77.5208 151.999L80.4518 151.25L112.254 176.154L101.636 189.722L96.2475 184.312Z" fill="#2888FF"/>
<path d="M190.575 216.114L143.484 209.533V228.41C143.484 228.863 143.573 229.312 143.747 229.731C143.921 230.15 144.175 230.531 144.496 230.851C144.817 231.172 145.198 231.426 145.617 231.6C146.037 231.773 146.486 231.862 146.94 231.862H189.289C193.152 231.862 196.285 228.732 196.285 224.872V222.716C196.285 221.114 195.709 219.565 194.66 218.353C193.612 217.141 192.162 216.346 190.575 216.114Z" fill="#013B84"/>
<path d="M177.478 231.848L176.857 245.478C176.841 245.836 176.847 246.194 176.875 246.551L178.923 272.702L179.815 283.36L190.377 282.225L195.573 240.088C195.708 239.409 196.615 223.755 195.977 224.025L177.478 231.848Z" fill="#013B84"/>
<path d="M194.049 226.992L208.003 240.44L220.542 254.208L221.222 254.883C221.222 254.883 223.293 253.428 225.029 252.406C225.795 251.957 231.88 248.833 231.97 248.786L230.694 247.248L206.966 212.876L195.911 199.811C194.987 198.791 193.937 198.653 192.749 199.348L182.313 205.459L191.959 224.184C192.498 225.228 193.204 226.176 194.049 226.992Z" fill="#013B84"/>
<path d="M138.541 207.697L188.142 196.843C192.163 195.963 196.148 198.463 197.101 202.464L199.236 211.434L160.789 229.842C156.194 231.512 151.269 232.08 144.401 231.789L138.985 231.634C134.281 231.499 130.554 227.622 130.607 222.92L130.761 209.348L138.541 207.697Z" fill="#013B84"/>
<path d="M160.134 202.986L142.438 210.948C138.561 212.32 135.307 215.04 133.272 218.612L130.641 224.017L130.343 223.753L110.377 204.876C107.308 201.974 104.839 198.498 103.112 194.646L96.6666 180.269C94.0187 174.363 98.6131 167.764 105.076 168.19L130.313 171.934C131.499 172.013 132.657 172.336 133.712 172.884C134.767 173.432 135.697 174.193 136.442 175.118L160.073 202.904L160.134 202.986Z" fill="#2888FF"/>
<path d="M119.783 161.393L106.601 166.266C105.746 166.582 104.8 166.546 103.972 166.165C103.143 165.784 102.5 165.091 102.184 164.236L99.0915 155.887C97.3163 151.095 99.7666 145.772 104.563 143.999L112.283 141.145L119.783 161.393Z" fill="#D4E7FF"/>
<path d="M120.691 148.213L125.16 160.066C125.645 161.484 124.606 162.963 123.107 162.989L109.203 163.231L120.691 148.213Z" fill="#C78982"/>
<path d="M122.395 155.79L124.482 154.961C125.351 154.616 125.393 153.401 124.549 152.997L120.857 151.231L122.395 155.79ZM110.989 143.384L110.715 143.477C110.161 143.667 109.704 144.068 109.446 144.594C109.188 145.12 109.149 145.727 109.338 146.281L111.821 153.538L121.506 150.231L120.811 148.198C119.429 144.159 115.032 142.003 110.989 143.384ZM103.435 156.931L114.646 152.787L122.857 174.958C123.056 175.496 122.505 176.005 121.983 175.765L108.023 169.32L103.435 156.931Z" fill="#C78982"/>
<path d="M114.983 150.916L121.054 148.843L123.692 156.555L117.62 158.627L114.983 150.916Z" fill="#C78982"/>
<path d="M107.88 142.84L105.031 143.893C101.919 145.043 100.329 148.497 101.481 151.607L106.694 165.684L124.809 158.987L121.074 148.901C119.106 143.587 113.199 140.873 107.88 142.84Z" fill="#C78982"/>
<path opacity="0.1" d="M118.644 163.505L118.46 163.499C117.352 163.458 116.838 164.859 117.712 165.544L119.993 167.331M121.577 150.376L120.199 150.886C120.119 150.915 120.047 150.959 119.985 151.017C119.923 151.074 119.872 151.143 119.837 151.22L119.476 152.005C119.236 152.526 119.746 153.077 120.284 152.877L122.251 152.15" fill="#1D2445"/>
<path d="M114.786 155.276L115.575 157.409C115.932 158.371 116.562 159.207 117.389 159.815C118.216 160.423 119.203 160.775 120.228 160.828C120.093 160.462 120.03 160.072 120.045 159.681C120.06 159.29 120.152 158.906 120.316 158.551C120.479 158.196 120.711 157.876 120.998 157.61C121.285 157.345 121.622 157.138 121.989 157.002L123.823 156.324L125.401 160.63C125.925 162.06 124.847 163.57 123.323 163.54L117.314 163.422C116.894 163.414 116.486 163.279 116.143 163.036C115.801 162.792 115.54 162.45 115.396 162.056L112.524 154.237C112.962 154.075 113.446 154.094 113.87 154.289C114.294 154.484 114.624 154.839 114.786 155.276Z" fill="#D4E7FF"/>
<path d="M122.896 160.286L124.4 160.093C124.493 160.081 124.583 160.048 124.662 159.996C124.741 159.945 124.807 159.876 124.856 159.796C124.905 159.715 124.935 159.624 124.944 159.531C124.953 159.437 124.941 159.342 124.908 159.254L124.288 157.58L122.96 158.071C122.79 158.133 122.635 158.228 122.503 158.351C122.371 158.473 122.264 158.621 122.188 158.784C122.113 158.948 122.071 159.125 122.064 159.305C122.057 159.485 122.086 159.665 122.148 159.834C122.262 160.139 122.572 160.327 122.896 160.286Z" fill="#C78982"/>
<path d="M101.851 163.338L108.325 160.945C111.797 159.661 113.571 155.808 112.286 152.339L108.302 141.582C108.25 141.441 108.17 141.312 108.068 141.202C107.966 141.091 107.843 141.002 107.706 140.939C107.569 140.876 107.421 140.841 107.271 140.835C107.121 140.83 106.97 140.853 106.829 140.906L103.059 142.299C98.6873 143.915 96.4543 148.767 98.0719 153.136L101.851 163.338Z" fill="#D4E7FF"/>
<path d="M117.673 146.701L117.96 146.595C118.467 146.408 118.932 146.123 119.328 145.756C119.725 145.389 120.045 144.947 120.271 144.457C120.497 143.966 120.624 143.436 120.644 142.896C120.665 142.356 120.579 141.818 120.391 141.312L119.536 139.001C119.352 138.506 118.979 138.104 118.499 137.883C118.019 137.663 117.47 137.642 116.975 137.825L114.125 138.878L104.69 142.366L112.636 153.912L111.273 148.438C111.197 148.134 111.205 147.815 111.297 147.515C111.388 147.215 111.559 146.946 111.792 146.735C112.025 146.525 112.31 146.382 112.618 146.321C112.926 146.261 113.244 146.284 113.539 146.39L114.453 146.718C115.495 147.091 116.635 147.085 117.673 146.701Z" fill="#D4E7FF"/>
<path d="M112 158.215L112.085 158.187C112.308 158.113 112.513 157.995 112.689 157.84C112.865 157.684 113.008 157.495 113.108 157.283C113.209 157.071 113.266 156.841 113.275 156.606C113.284 156.372 113.245 156.138 113.161 155.918L112.382 153.884C112.16 153.303 111.722 152.83 111.16 152.564C110.597 152.298 109.954 152.258 109.363 152.454L109.232 152.497C107.971 152.914 107.495 154.447 108.297 155.505L109.846 157.547C110.09 157.869 110.429 158.107 110.816 158.227C111.202 158.346 111.616 158.343 112 158.215Z" fill="#C78982"/>
<path d="M202.658 290.922L205.178 289.422C205.873 289.008 206.357 288.301 206.464 287.542C206.621 286.426 205.933 285.479 204.849 285.321L200.069 284.625C197.048 284.185 194.556 282.429 193.239 279.812L191.663 276.679L189.566 277.858C189.06 278.142 188.8 278.73 188.96 279.225L189.419 280.64L186.544 281.768C184.596 282.531 182.53 282.18 181.223 280.861L179.203 278.826C178.85 278.469 178.175 278.737 178.071 279.275L176.307 288.433L176.556 290.588L202.658 290.922Z" fill="#2888FF"/>
<path d="M175.516 289.036L175.815 289.942C176.355 291.573 177.851 292.613 179.654 292.613H198.835C199.216 292.61 199.59 292.515 199.927 292.337L204.102 290.163C204.206 290.108 204.167 289.95 204.049 289.95H188.716C188.436 289.95 188.183 289.841 188.01 289.646C187.141 288.667 185.869 288.119 184.464 288.119H176.227C175.754 288.118 175.374 288.609 175.516 289.036Z" fill="#016EEA"/>
<path d="M244.568 252.512L246.23 250.096C246.688 249.429 246.831 248.585 246.611 247.85C246.287 246.771 245.265 246.199 244.215 246.508L239.581 247.874C236.653 248.736 233.655 248.183 231.363 246.356L228.619 244.169L227.208 246.117C226.867 246.585 226.877 247.229 227.229 247.611L228.239 248.704L226.099 250.93C224.65 252.438 222.626 252.982 220.887 252.331L218.2 251.326C217.73 251.15 217.229 251.675 217.36 252.208L219.592 261.263L220.72 263.117L244.568 252.512Z" fill="#2888FF"/>
<path d="M219.126 262.141L219.777 262.839C220.95 264.095 222.744 264.414 224.382 263.661L241.804 255.645C242.149 255.483 242.449 255.24 242.68 254.938L245.667 251.082C245.712 251.024 245.649 250.944 245.582 250.975L231.499 257.455C231.379 257.513 231.249 257.545 231.116 257.548C230.984 257.551 230.852 257.526 230.73 257.474C229.531 256.948 228.146 256.981 226.87 257.569L219.388 261.011C218.958 261.208 218.818 261.813 219.126 262.141Z" fill="#016EEA"/>
<path opacity="0.1" d="M159.524 231.728L181.949 218.471L177.527 231.68L159.524 231.728Z" fill="#002652"/>
</g>
<g clip-path="url(#clip17_2216_117610)">
<path d="M319.005 244.512H370.643V283.432H319.005V244.512Z" fill="#F3F4F6"/>
<path d="M358.08 245.087H352.907C352.289 245.086 351.696 244.839 351.259 244.4C350.822 243.961 350.576 243.365 350.575 242.744V240.951C350.575 237.896 348.103 235.411 345.063 235.411C342.024 235.411 339.551 237.896 339.551 240.95V242.503C339.551 243.124 339.305 243.72 338.867 244.159C338.43 244.598 337.837 244.845 337.219 244.846H331.567V242.951H337.219C337.338 242.951 337.451 242.904 337.535 242.82C337.619 242.736 337.666 242.622 337.666 242.503V240.95C337.666 236.851 340.984 233.517 345.063 233.517C349.142 233.517 352.46 236.851 352.46 240.95V242.743C352.46 242.991 352.661 243.192 352.907 243.192H358.08V245.087ZM341.305 267.084H348.343V274.599H341.305V267.084Z" fill="#E8E9EC"/>
<path d="M344.824 272.949C335.096 272.949 327.182 267.375 327.182 260.524C327.182 253.673 335.096 248.099 344.824 248.099C354.551 248.099 362.465 253.673 362.465 260.524C362.465 267.374 354.551 272.949 344.824 272.949ZM344.824 249.52C335.876 249.52 328.596 254.457 328.596 260.524C328.596 266.591 335.876 271.527 344.824 271.527C353.772 271.527 361.051 266.591 361.051 260.524C361.051 254.456 353.772 249.52 344.824 249.52Z" fill="#F3F4F6"/>
</g>
<g clip-path="url(#clip18_2216_117610)">
<path d="M396.575 199.037H367.2C369.923 199.037 369.923 192.26 367.2 192.26H396.575C397.566 192.275 398.511 192.639 399.205 193.273C399.9 193.906 400.29 194.76 400.29 195.649C400.29 196.538 399.9 197.391 399.205 198.025C398.511 198.659 397.566 199.023 396.575 199.037Z" fill="#EFF0F2"/>
<path d="M396.576 199.665H367.2V198.41H396.576C397.392 198.41 398.174 198.118 398.751 197.601C399.328 197.083 399.652 196.381 399.653 195.649C399.652 194.917 399.327 194.215 398.75 193.698C398.174 193.18 397.391 192.889 396.576 192.888H367.2V191.633H396.576C399.044 191.633 401.052 193.434 401.052 195.649C401.052 197.864 399.043 199.665 396.576 199.665Z" fill="#E8E9EC"/>
</g>
<defs>
<clipPath id="clip0_2216_117610">
<rect width="64.26" height="63.1125" fill="white" transform="translate(158.929 121.635)"/>
</clipPath>
<clipPath id="clip1_2216_117610">
<rect width="47.6212" height="120.487" fill="white" transform="translate(38.4412 165.24)"/>
</clipPath>
<clipPath id="clip2_2216_117610">
<rect width="154.912" height="9.75375" fill="white" transform="translate(117.045 281.138)"/>
</clipPath>
<clipPath id="clip3_2216_117610">
<rect width="117.045" height="71.7188" fill="white" transform="translate(287.449 45.8999)"/>
</clipPath>
<clipPath id="clip4_2216_117610">
<rect width="187.616" height="82.0462" fill="white" transform="translate(209.419 200.812)"/>
</clipPath>
<clipPath id="clip5_2216_117610">
<rect width="45.9" height="32.13" fill="white" transform="translate(327.037 67.1289)"/>
</clipPath>
<clipPath id="clip6_2216_117610">
<rect width="68.2762" height="67.1287" fill="white" transform="translate(56.8013 44.1787)"/>
</clipPath>
<clipPath id="clip7_2216_117610">
<rect width="119.34" height="72.8662" fill="white" transform="translate(150.322 45.3262)"/>
</clipPath>
<clipPath id="clip8_2216_117610">
<rect width="71.145" height="62.5387" fill="white" transform="translate(171.551 50.4897)"/>
</clipPath>
<clipPath id="clip9_2216_117610">
<rect width="108.439" height="75.735" fill="white" transform="translate(268.515 124.504)"/>
</clipPath>
<clipPath id="clip10_2216_117610">
<rect width="45.9" height="39.5887" fill="white" transform="translate(298.35 129.667)"/>
</clipPath>
<clipPath id="clip11_2216_117610">
<rect width="54.5064" height="49.9163" fill="white" transform="translate(165.24 131.389)"/>
</clipPath>
<clipPath id="clip12_2216_117610">
<rect width="39.015" height="40.1625" fill="white" transform="translate(164.666 137.126)"/>
</clipPath>
<clipPath id="clip13_2216_117610">
<rect width="16.065" height="25.8187" fill="white" transform="translate(205.976 148.027)"/>
</clipPath>
<clipPath id="clip14_2216_117610">
<rect width="86.0625" height="123.93" fill="white" transform="translate(99.2588 162.372)"/>
</clipPath>
<clipPath id="clip15_2216_117610">
<rect width="37.8675" height="22.3762" fill="white" transform="translate(219.746 179.01)"/>
</clipPath>
<clipPath id="clip16_2216_117610">
<rect width="173.846" height="154.912" fill="white" transform="translate(72.8662 137.7)"/>
</clipPath>
<clipPath id="clip17_2216_117610">
<rect width="51.6375" height="49.9162" fill="white" transform="translate(319.005 233.517)"/>
</clipPath>
<clipPath id="clip18_2216_117610">
<rect width="33.8512" height="8.0325" fill="white" transform="translate(367.2 191.633)"/>
</clipPath>
</defs>
</svg>
