<svg width="660" height="495" viewBox="0 0 660 495" fill="none" xmlns="http://www.w3.org/2000/svg">
<g clip-path="url(#clip0_2696_122224)">
<path d="M382.713 371.255L379.955 369.85C374.834 367.241 370.534 363.264 367.53 358.361C364.527 353.458 362.937 347.819 362.937 342.067V245.495H282.711V342.067C282.711 347.819 281.121 353.458 278.117 358.361C275.114 363.264 270.813 367.241 265.692 369.85L262.935 371.255C260.989 372.247 261.694 375.185 263.877 375.185H381.77C383.954 375.185 384.66 372.245 382.713 371.255Z" fill="#DDDEE3"/>
<path d="M515.7 76.6862H129.949C127.195 76.6862 124.553 77.7811 122.606 79.73C120.659 81.6789 119.565 84.3222 119.565 87.0783V303.233C119.565 305.99 120.659 308.633 122.606 310.582C124.553 312.531 127.195 313.625 129.949 313.625H515.7C518.454 313.625 521.095 312.531 523.043 310.582C524.99 308.633 526.084 305.99 526.084 303.233V87.0783C526.084 84.3222 524.99 81.6789 523.043 79.73C521.095 77.7811 518.454 76.6862 515.7 76.6862Z" fill="#DDDEE3"/>
<path d="M526.084 277.114H119.565V303.233C119.565 305.99 120.659 308.633 122.606 310.582C124.553 312.531 127.195 313.625 129.949 313.625H515.7C518.454 313.625 521.095 312.531 523.043 310.582C524.99 308.633 526.084 305.99 526.084 303.233V277.114ZM134.204 90.7508H511.444V263.225H134.204V90.7508Z" fill="#F3F4F6"/>
<path d="M326.869 304.099H318.779C317.679 304.096 316.624 303.657 315.846 302.878C315.068 302.099 314.629 301.044 314.626 299.942V291.846C314.629 290.744 315.068 289.689 315.846 288.91C316.624 288.131 317.679 287.692 318.779 287.689H326.869C327.97 287.692 329.025 288.131 329.803 288.91C330.581 289.689 331.02 290.744 331.023 291.846V299.942C331.02 301.044 330.581 302.099 329.803 302.878C329.025 303.657 327.97 304.096 326.869 304.099Z" fill="white"/>
</g>
<g clip-path="url(#clip1_2696_122224)">
<path d="M646.473 366.115C646.473 377.044 637.374 385.905 626.148 385.905H29.3959C18.1702 385.905 9.0704 377.045 9.0704 366.115H646.473Z" fill="#EFF0F2"/>
</g>
<g clip-path="url(#clip2_2696_122224)">
<path d="M426.448 313.969L432.37 338.18L379.598 351.33L373.677 327.119L426.448 313.969Z" fill="#53A0FF"/>
<path d="M291.42 371.69L286.236 350.495C286.123 350.032 286.101 349.551 286.172 349.08C286.243 348.608 286.405 348.155 286.649 347.747C286.894 347.339 287.215 346.983 287.596 346.701C287.976 346.418 288.408 346.214 288.867 346.099L403.664 317.497L410.572 345.743L295.775 374.345C295.316 374.46 294.84 374.482 294.373 374.41C293.905 374.339 293.457 374.175 293.052 373.928C292.648 373.682 292.296 373.357 292.015 372.973C291.735 372.589 291.533 372.153 291.42 371.69Z" fill="#013B84"/>
<path d="M483.793 372.364C516.54 372.364 543.087 345.57 543.087 312.517C543.087 279.464 516.54 252.669 483.793 252.669C451.045 252.669 424.498 279.464 424.498 312.517C424.498 345.57 451.045 372.364 483.793 372.364Z" fill="#D4E7FF"/>
<path d="M483.679 376.021C472.358 376.021 461.215 372.913 451.275 366.852C436.896 358.086 426.76 344.191 422.733 327.73C418.707 311.268 421.274 294.21 429.959 279.696C438.645 265.182 452.411 254.952 468.72 250.888C502.388 242.497 536.541 263.322 544.852 297.304C553.163 331.286 532.533 365.757 498.865 374.146C493.896 375.388 488.797 376.017 483.679 376.021ZM483.79 256.294C479.383 256.294 474.91 256.825 470.445 257.939C456.001 261.537 443.811 270.598 436.118 283.451C428.427 296.304 426.154 311.411 429.719 325.989C433.284 340.568 442.261 352.872 454.995 360.636C467.729 368.4 482.696 370.692 497.141 367.095C526.957 359.666 545.227 329.139 537.867 299.044C531.609 273.457 508.804 256.294 483.79 256.294Z" fill="#2888FF"/>
</g>
<g clip-path="url(#clip3_2696_122224)">
<path d="M270.463 140.092L285.218 125.338L372.711 212.831L357.956 227.585L270.463 140.092Z" fill="#2888FF"/>
<path d="M270.463 212.83L357.954 125.337L372.71 140.092L285.217 227.585L270.463 212.83Z" fill="#2888FF"/>
</g>
<g clip-path="url(#clip4_2696_122224)">
<path d="M579.826 232.722C580.589 228.636 577.761 224.048 573.627 223.524L518.098 217.707C511.598 216.954 476.206 219.935 476.206 219.935L474.518 233.017C472.14 251.434 488.335 266.881 506.689 263.702L553.017 255.671L575.563 245.973L579.826 232.722Z" fill="#013B84"/>
<path d="M589.228 278.619C591.941 275.462 591.795 270.08 588.48 267.563L535.452 232.608C530.203 228.713 498.067 213.638 498.067 213.638L490.036 224.121C478.73 238.879 484.994 260.332 502.48 266.736L546.621 282.895L578.884 287.965L589.228 278.619Z" fill="#013B84"/>
<path d="M624.961 370.477L624.707 369.747C624.496 369.143 624.137 368.602 623.662 368.172C623.187 367.743 622.611 367.439 621.988 367.289L608.234 363.975C605.627 363.347 603.323 361.828 601.723 359.683L598.562 355.444C598.205 354.966 597.741 354.578 597.207 354.311C596.673 354.043 596.084 353.904 595.486 353.904H582.974V356.562L581.356 360.971C580.304 363.842 579.779 366.878 579.807 369.935L579.827 372.17H599.297L599.298 372.171H623.753C623.957 372.171 624.158 372.123 624.34 372.03C624.521 371.937 624.678 371.801 624.796 371.636C624.915 371.47 624.992 371.278 625.02 371.076C625.049 370.875 625.029 370.669 624.961 370.477Z" fill="#016EEA"/>
<path d="M579.806 371.817H624.792V375.185H579.806V371.817Z" fill="#2888FF"/>
<path d="M581.03 362.918L612.281 351.86L592.053 273.735C590.842 269.092 585.95 266.432 581.378 267.931L558.302 275.498L558.248 301.158C558.235 307.359 559.559 313.49 562.133 319.135L581.03 362.918Z" fill="#013B84"/>
<path opacity="0.15" d="M564.195 233.957L556.65 245.016C556.65 245.016 557.981 250.767 555.762 248.555C553.543 246.343 519.815 229.09 519.815 229.09L564.195 233.957Z" fill="black"/>
<path d="M515.653 142.36H501.798V106.791C501.798 104.93 502.54 103.145 503.86 101.83C505.18 100.514 506.97 99.7746 508.837 99.7746H513.19C513.843 99.7746 514.47 100.033 514.932 100.494C515.394 100.955 515.654 101.579 515.654 102.231L515.653 142.36Z" fill="#1D2445"/>
<path d="M499.846 141.222L488.996 148.362C483.957 151.674 480.21 156.609 478.381 162.343C475.587 171.111 471.721 184.006 471.149 189.887C470.752 193.967 470.971 212.559 470.971 212.559L471.952 234.242L533.604 231.676L531.048 215.049L527.59 195.872L528.262 189.229C528.425 187.621 529.127 186.114 530.256 184.953L533.377 181.742C534.463 180.624 535.156 179.186 535.351 177.642C535.546 176.099 535.232 174.534 534.458 173.184L532.166 169.183C531.221 167.535 530.969 165.582 531.466 163.75L533.095 157.735C533.84 154.982 533.618 152.058 532.464 149.45C531.311 146.841 529.296 144.704 526.755 143.395L516.758 138.247L510.969 138.074C507.025 137.956 503.14 139.055 499.846 141.222Z" fill="#2888FF"/>
<path d="M466.07 206.929L464.451 205.908C463.251 205.151 462.356 203.998 461.924 202.65C461.491 201.302 461.548 199.845 462.084 198.534L470.512 177.94L478.957 160.733C481.505 155.541 488.066 153.787 492.879 157.012L502.848 163.692L474.151 204.89C473.77 205.568 473.254 206.162 472.635 206.635C472.016 207.109 471.307 207.451 470.55 207.642C469.794 207.833 469.007 207.868 468.237 207.745C467.466 207.623 466.729 207.345 466.07 206.929Z" fill="#2888FF"/>
<path d="M512.924 106.583C512.613 106.582 512.307 106.501 512.038 106.345C511.768 106.19 511.545 105.967 511.389 105.699C511.233 105.43 511.151 105.125 511.151 104.815C511.15 104.505 511.232 104.2 511.387 103.931C512.113 102.672 513.603 101.704 515.373 101.341C517.34 100.938 519.292 101.323 520.728 102.397C520.915 102.536 521.072 102.711 521.19 102.911C521.309 103.111 521.387 103.332 521.42 103.563C521.453 103.793 521.44 104.027 521.382 104.252C521.324 104.477 521.222 104.688 521.082 104.874C520.942 105.06 520.767 105.217 520.566 105.335C520.366 105.453 520.144 105.531 519.913 105.564C519.682 105.597 519.447 105.584 519.221 105.526C518.996 105.468 518.783 105.367 518.597 105.227C517.984 104.768 517.043 104.612 516.088 104.808C515.221 104.986 514.639 105.392 514.465 105.694C514.31 105.965 514.085 106.189 513.815 106.345C513.544 106.501 513.237 106.583 512.924 106.583Z" fill="#93C3FF"/>
<path d="M512.749 131.378L533.423 124.009V117.178C533.423 110.112 527.676 104.384 520.587 104.384H516.944C509.855 104.384 504.109 110.112 504.109 117.178V122.765C504.11 127.521 507.978 131.378 512.749 131.378Z" fill="#1D2445"/>
<path d="M524.6 151.608V122.976H509.131V137.796L522.923 152.275C523.528 152.911 524.6 152.484 524.6 151.608Z" fill="#99644C"/>
<path d="M509.268 133.801L517.081 141.488C517.223 141.627 517.392 141.738 517.577 141.813C517.762 141.887 517.96 141.925 518.16 141.923L526.735 141.837C526.995 141.834 527.249 141.766 527.474 141.637C527.699 141.508 527.887 141.324 528.02 141.102L530.386 137.154C531.587 135.151 532.221 132.861 532.221 130.527V122.812H509.267L509.268 133.801Z" fill="#99644C"/>
<path opacity="0.07" d="M519.702 131.755H515.145V130.39C515.145 129.498 515.87 128.775 516.766 128.775H521.323V130.139C521.323 130.567 521.152 130.978 520.848 131.281C520.544 131.584 520.132 131.754 519.702 131.755ZM525.995 126.888V130.96L525.857 136.976L522.598 137.191L524.859 139.4C524.859 139.4 525.713 139.191 526.631 139.668C527.61 140.176 527.957 141.364 528.02 141.101C528.084 140.834 529.237 138.919 530.318 137.158C531.562 135.13 532.221 132.8 532.222 130.423L532.227 124.007L525.995 126.888Z" fill="black"/>
<path d="M508.753 120.828H508.884C509.469 120.83 510.029 121.062 510.442 121.474C510.856 121.886 511.089 122.445 511.091 123.027V129.12C511.089 129.703 510.856 130.261 510.442 130.673C510.029 131.085 509.469 131.317 508.884 131.319H508.753C508.169 131.317 507.609 131.085 507.195 130.673C506.782 130.261 506.549 129.703 506.547 129.12V123.027C506.549 122.445 506.782 121.886 507.195 121.474C507.609 121.062 508.169 120.83 508.753 120.828Z" fill="#99644C"/>
<path d="M521.25 129.546C527.973 129.546 533.423 127.015 533.423 123.894C533.423 120.772 527.973 118.241 521.25 118.241C514.527 118.241 509.077 120.772 509.077 123.894C509.077 127.015 514.527 129.546 521.25 129.546Z" fill="#1D2445"/>
<path d="M509.509 116.302H513.614V124.055H509.509V116.302Z" fill="#1D2445"/>
<path opacity="0.07" d="M499.687 171.144L497.11 168.342C497.11 168.342 484.225 193.855 484.924 192.677C485.49 191.724 495.85 179.319 499.773 174.633C500.185 174.14 500.404 173.514 500.388 172.872C500.372 172.231 500.123 171.616 499.687 171.144Z" fill="black"/>
<path d="M489.015 189.498L466.187 197.51C462.953 198.645 460.899 201.122 460.943 203.834L460.979 206.081C461.04 209.842 465.061 212.867 469.997 212.867H470.633C472.936 212.867 475.148 212.195 476.823 210.99L493.884 198.709L489.015 189.498Z" fill="#99644C"/>
<path d="M522.258 196.281H500.351C499.906 196.279 499.48 196.102 499.165 195.789C498.85 195.475 498.673 195.05 498.671 194.606V193.511C498.671 192.59 499.427 191.837 500.351 191.837H522.258C523.182 191.837 523.939 192.59 523.939 193.511V194.606C523.937 195.05 523.76 195.475 523.445 195.789C523.13 196.102 522.703 196.279 522.258 196.281Z" fill="#013B84"/>
<path d="M475.477 200.619L479.787 207.708L484.966 203.99C485.763 202.862 486.841 201.959 488.093 201.37C489.345 200.78 490.729 200.525 492.11 200.628L492.17 200.634L499.724 201.392C500.599 201.483 501.477 201.247 502.188 200.73L504.233 199.248L508.263 199.719C509.184 199.834 510.119 199.745 510.997 199.455L519.172 196.791C519.231 196.772 519.286 196.742 519.333 196.703C519.38 196.663 519.419 196.614 519.447 196.559C519.475 196.505 519.492 196.445 519.497 196.384C519.502 196.322 519.495 196.26 519.476 196.202C519.472 196.198 519.472 196.196 519.472 196.192L519.462 196.169C519.304 195.776 519.015 195.45 518.644 195.244C518.273 195.037 517.843 194.964 517.424 195.037L509.655 196.389L500.717 194.217L499.151 193.357C499.074 193.314 499.008 193.251 498.961 193.175C498.915 193.099 498.888 193.012 498.884 192.923L495.842 190.515V187.692C495.138 187.644 494.431 187.697 493.742 187.85L490.144 188.755C488.096 189.269 486.564 189.648 484.998 192.143L475.477 200.619Z" fill="#99644C"/>
<path d="M496.083 188.215L498.877 190.675C499.749 191.442 501.055 191.445 501.93 190.682L502.122 190.514C502.188 190.457 502.241 190.388 502.279 190.31C502.318 190.233 502.341 190.148 502.346 190.062C502.352 189.976 502.341 189.889 502.313 189.807C502.285 189.726 502.242 189.65 502.184 189.585L499.946 187.034C499.657 186.706 499.25 186.505 498.813 186.476C498.375 186.447 497.945 186.592 497.615 186.879L496.083 188.215Z" fill="#99644C"/>
<path d="M497.657 186.317L488.776 189.246L490.25 192.677L500.391 189.288L499.742 187.356C499.603 186.943 499.306 186.602 498.915 186.407C498.524 186.212 498.072 186.18 497.657 186.317Z" fill="#99644C"/>
<path opacity="0.15" d="M581.03 362.918L612.281 351.86L592.053 273.735C590.842 269.092 585.95 266.432 581.378 267.931L558.302 275.498L558.248 301.158C558.235 307.359 559.559 313.49 562.133 319.135L581.03 362.918Z" fill="black"/>
<path d="M586.536 334.839L586.503 334.066C586.475 333.427 586.287 332.806 585.956 332.258C585.625 331.711 585.161 331.255 584.608 330.932L572.391 323.815C570.075 322.466 568.307 320.351 567.394 317.837L565.588 312.871C565.385 312.311 565.053 311.806 564.618 311.397C564.184 310.988 563.659 310.685 563.087 310.514L551.103 306.928L550.336 309.474L547.515 313.234C545.679 315.682 544.3 318.439 543.444 321.374L542.819 323.522L561.466 329.103L561.467 329.104L584.888 336.113C585.084 336.173 585.291 336.184 585.492 336.147C585.692 336.11 585.882 336.026 586.043 335.901C586.205 335.776 586.334 335.614 586.419 335.43C586.505 335.245 586.545 335.042 586.536 334.839Z" fill="#016EEA"/>
<path d="M542.903 323.188L585.991 336.085L585.02 339.311L541.932 326.415L542.903 323.188Z" fill="#2888FF"/>
<path d="M549.28 309.078L581.293 316.699L592.961 232.963C593.563 228.203 590.01 223.924 585.205 223.627L560.959 222.128L551.366 245.939C549.048 251.694 547.998 257.877 548.289 264.071L549.28 309.078Z" fill="#013B84"/>
</g>
<g clip-path="url(#clip5_2696_122224)">
<path d="M125.415 413.572L135.872 417.219L139.503 406.724C139.659 406.272 139.725 405.794 139.697 405.317C139.669 404.84 139.548 404.373 139.341 403.943C139.133 403.513 138.843 403.128 138.488 402.811C138.132 402.493 137.717 402.249 137.268 402.092L133.658 400.834C133.209 400.677 132.733 400.611 132.257 400.639C131.782 400.667 131.317 400.788 130.889 400.997C130.461 401.205 130.077 401.496 129.761 401.853C129.445 402.21 129.202 402.626 129.045 403.078L125.415 413.572Z" fill="#002652"/>
<path d="M179.442 240.687L185.777 261.232L157.241 338.332C157.241 338.332 144.087 330.641 144.087 330.179L155.568 241.666L179.442 240.687Z" fill="#013B84"/>
<path d="M146.588 318.519L132.152 348.045C130.901 350.602 130.06 353.342 129.659 356.162L121.277 415.115C121.277 415.115 133.206 417.712 132.742 417.558L155.314 357.238L159.424 328.521L146.588 318.519Z" fill="#013B84"/>
<path opacity="0.25" d="M158.511 334.903L185.777 261.232L179.442 240.687L155.568 241.666L145.244 321.269L132.152 348.045C130.901 350.602 130.06 353.342 129.659 356.163L121.277 415.115C121.277 415.115 133.206 417.712 132.742 417.558L155.314 357.238L158.511 334.903Z" fill="#002652"/>
<path d="M189.4 230.854L194.248 249.884C194.502 250.893 194.51 251.948 194.272 252.961L177.522 325.265C177.522 325.265 160.931 326.68 160.955 326.217L163.75 274.036L165.473 231.833L189.4 230.854Z" fill="#013B84"/>
<path d="M138.556 412.663C138.556 412.663 140.543 419.932 141.448 420.695C142.541 421.615 145.642 424.264 145.642 424.264L147.947 424.89L148.14 430.213L144.386 429.796L130.978 421.938L138.556 412.663Z" fill="#2888FF"/>
<path d="M136.075 422.169L117.436 419.762L117.771 417.117C118.181 414.541 119.051 412.061 120.339 409.795L122.841 405.39L137.487 413.808L136.075 422.169Z" fill="#2888FF"/>
<path d="M122.696 404.074L121.484 411.252C121.909 411.324 132.018 419.337 132.267 419.689L133.739 421.771L139.139 414.752L137.379 408.307C137.238 407.789 136.953 407.322 136.557 406.96C136.161 406.598 135.671 406.357 135.144 406.264L122.696 404.074Z" fill="#2888FF"/>
<path d="M132.584 414.591C132.264 416.485 132.715 418.142 133.591 418.291C134.467 418.44 135.437 417.026 135.757 415.132C136.077 413.238 135.626 411.581 134.75 411.432C133.874 411.283 132.904 412.697 132.584 414.591Z" fill="#016EEA"/>
<path d="M135.74 423.752L142.936 430.389H129.518L117.483 422.892C116.87 422.51 117.202 421.558 117.918 421.643L135.74 423.752Z" fill="#002652"/>
<path d="M117.091 422.246L117.576 419.375L117.694 419.305C118.225 418.993 118.843 418.863 119.453 418.936L126.759 419.802C129.086 420.077 131.333 420.823 133.365 421.994L142.629 427.495L149.039 427.567L148.593 430.432L142.144 430.367L132.475 424.744C130.47 423.611 128.261 422.891 125.976 422.624L119.021 421.81C118.506 421.75 117.984 421.833 117.512 422.052L117.091 422.246Z" fill="#016EEA"/>
<path d="M178.081 315.779L176.24 350.152C176.186 351.156 176.041 352.153 175.807 353.131L161.1 414.767C161.1 414.767 146.956 414.729 147.441 414.756L150.974 350.24C151.08 348.354 151.502 346.498 152.222 344.752L162.241 320.372L178.081 315.779Z" fill="#013B84"/>
<path d="M162.68 416.483H158.721L160.01 409.163C160.126 408.507 160.468 407.913 160.976 407.485C161.484 407.057 162.127 406.822 162.79 406.822H164.381L162.68 416.483Z" fill="#016EEA"/>
<path d="M147.712 414.445H161.238V419.383H147.712V414.445Z" fill="#99644C"/>
<path d="M163.685 427.806H144.814L144.797 425.897C144.774 423.289 145.218 420.698 146.11 418.249L147.843 413.485L163.685 419.327V427.806Z" fill="#2888FF"/>
<path d="M147.481 412.212V419.492C147.911 419.492 159.213 425.696 159.518 426.002L161.316 427.807H183.567L182.85 425.737C182.672 425.222 182.367 424.759 181.964 424.393C181.562 424.026 181.074 423.766 180.545 423.638L168.89 420.81C166.68 420.274 164.728 418.977 163.372 417.146L160.693 413.527C160.39 413.119 159.997 412.787 159.545 412.559C159.092 412.33 158.592 412.212 158.086 412.212H147.481Z" fill="#2888FF"/>
<path d="M144.042 427.501H183.557V430.413H144.042V427.501Z" fill="#016EEA"/>
<path d="M152.154 424.962C154.068 424.962 155.619 423.405 155.619 421.484C155.619 419.563 154.068 418.005 152.154 418.005C150.241 418.005 148.689 419.563 148.689 421.484C148.689 423.405 150.241 424.962 152.154 424.962Z" fill="#016EEA"/>
<path d="M168.85 267.66L177.915 271.073V231.9H153.905V246.008C153.905 250.715 155.336 255.31 158.007 259.179C160.677 263.049 164.46 266.007 168.85 267.66Z" fill="#013B84"/>
<path d="M132.76 164.692H143.115V118.664C137.397 118.664 132.76 123.318 132.76 129.06V164.692Z" fill="#002652"/>
<path d="M158.146 146.66H171.729V123.26H147.316V135.787C147.316 141.792 152.166 146.66 158.146 146.66Z" fill="#ED956E"/>
<path d="M154.792 174.739L144.632 162.156L152.653 141.711L159.75 144.612L165.975 147.156L154.792 174.739Z" fill="#ED956E"/>
<path d="M175.302 124.052V130.011C175.302 130.227 175.26 130.443 175.18 130.643L174.393 132.608C174.128 133.268 174.303 134.022 174.83 134.498L175.302 134.924V146.45C175.302 146.895 175.214 147.337 175.043 147.748C174.873 148.16 174.623 148.534 174.309 148.849C173.994 149.163 173.621 149.412 173.21 149.581C172.799 149.751 172.359 149.837 171.915 149.835L150.614 149.748L150.701 142.464L175.302 124.052Z" fill="#ED956E"/>
<path d="M172.339 141.792L177.001 139.362C177.245 139.235 177.454 139.05 177.611 138.824C177.767 138.597 177.866 138.336 177.899 138.062C177.931 137.788 177.897 137.511 177.799 137.253C177.701 136.996 177.541 136.767 177.335 136.585L172.339 132.201V141.792Z" fill="#ED956E"/>
<path opacity="0.07" d="M174.753 130.424H171.769C171.501 130.424 171.243 130.53 171.053 130.721L170.092 131.687C169.454 132.327 169.905 133.42 170.808 133.42H174.277" fill="#002652"/>
<path d="M164.857 111.669H164.353C163.328 111.669 162.346 112.077 161.621 112.804C160.897 113.532 160.49 114.518 160.49 115.547V129.014H178.376V125.242C178.376 117.745 172.323 111.669 164.857 111.669Z" fill="#002652"/>
<path d="M162.553 128.822H142.453V124.325C142.453 117.142 148.254 111.319 155.408 111.319H159.64C160.413 111.319 161.153 111.627 161.7 112.175C162.246 112.724 162.553 113.468 162.553 114.243V128.822Z" fill="#002652"/>
<path d="M157.731 144.68H154.212C152.043 144.68 149.962 143.815 148.428 142.275C146.894 140.735 146.032 138.646 146.032 136.468V131.465C146.032 130.991 145.939 130.521 145.758 130.083C145.578 129.645 145.313 129.247 144.979 128.911C144.645 128.576 144.248 128.31 143.812 128.129C143.375 127.947 142.908 127.854 142.435 127.854H141.539V124.126H166.401L157.731 144.68Z" fill="#002652"/>
<path d="M144.241 130.115C143.882 130.115 143.539 129.972 143.286 129.717C143.032 129.463 142.89 129.118 142.89 128.759V117.459C142.89 117.099 143.032 116.754 143.286 116.5C143.539 116.246 143.882 116.103 144.241 116.103C144.599 116.103 144.942 116.246 145.196 116.5C145.449 116.754 145.591 117.099 145.591 117.459V128.759C145.591 129.118 145.449 129.463 145.196 129.717C144.942 129.972 144.599 130.115 144.241 130.115Z" fill="#2888FF"/>
<path d="M161.051 139.154H164.049L163.764 132.852C163.719 131.871 163.3 130.946 162.593 130.267C161.886 129.589 160.946 129.211 159.969 129.211H159.751C157.664 129.211 156.195 131.271 156.869 133.255L158.169 137.083C158.374 137.687 158.762 138.212 159.279 138.583C159.796 138.955 160.415 139.154 161.051 139.154Z" fill="#ED956E"/>
<path d="M195.045 236.453L195.324 251.185L150.304 258.417L154.128 220.403C154.128 220.403 146.72 201.775 145.663 199.653L137.933 174.824C137.212 172.508 137.08 170.047 137.548 167.666C138.017 165.285 139.072 163.06 140.616 161.193C145.316 155.511 153.714 154.731 159.373 159.45L177.842 176.61C179.397 178.054 180.591 179.845 181.329 181.839C182.067 183.832 182.327 185.971 182.09 188.084L180.618 201.166L187.522 217.739L192.032 225.576C193.936 228.887 194.973 232.63 195.045 236.453Z" fill="#BEDBFF"/>
<path d="M152.464 218.997L189.883 213.523L190.749 219.487L153.329 224.961L152.464 218.997Z" fill="#2888FF"/>
<path d="M180.873 221.66C181.574 222.283 182.761 223.143 183.328 222.567L188.964 216.09L186.745 212.112L180.843 220.842C180.709 221.029 180.644 221.496 180.862 221.653L180.873 221.66Z" fill="#ED956E"/>
<path d="M184.003 222.621C184.703 223.243 185.891 224.104 186.457 223.528L192.094 217.051L189.874 213.073L183.973 221.803C183.839 221.99 183.774 222.457 183.992 222.614L184.003 222.621Z" fill="#ED956E"/>
<path d="M186.802 224.03C187.503 224.653 188.69 225.513 189.257 224.938L194.893 218.46L192.674 214.482L186.773 223.212C186.638 223.399 186.574 223.866 186.791 224.024L186.802 224.03Z" fill="#ED956E"/>
<path d="M189.594 225.051C190.195 225.654 191.231 226.49 191.82 225.937L197.742 219.726L196.03 215.883L189.645 224.263C189.501 224.443 189.395 224.893 189.586 225.045C189.589 225.048 189.591 225.05 189.594 225.051Z" fill="#ED956E"/>
<path d="M193.184 219.839L187.329 215.852C187.014 215.639 186.751 215.357 186.559 215.028C186.366 214.699 186.249 214.331 186.216 213.951C186.183 213.571 186.234 213.189 186.367 212.831C186.499 212.474 186.71 212.151 186.982 211.885L189.064 209.817L190.913 209.103C191.844 208.744 192.863 208.683 193.829 208.93C194.796 209.177 195.662 209.719 196.309 210.481L198.4 212.946C199.076 213.743 199.476 214.738 199.541 215.782C199.605 216.827 199.33 217.864 198.757 218.738C198.161 219.623 197.241 220.236 196.197 220.443C195.153 220.649 194.07 220.432 193.184 219.839Z" fill="#ED956E"/>
<path d="M187.744 221.04C190.428 222.848 194.199 221.925 196.168 218.979C198.137 216.033 197.558 212.179 194.874 210.371C192.19 208.563 188.419 209.486 186.45 212.432C184.481 215.378 185.06 219.232 187.744 221.04Z" fill="#ED956E"/>
<path opacity="0.07" d="M164.923 149.7L162.671 149.623C162.404 149.614 162.139 149.665 161.894 149.771C161.649 149.878 161.431 150.037 161.255 150.239C161.079 150.44 160.95 150.678 160.877 150.936C160.804 151.193 160.789 151.464 160.833 151.728L161.77 157.372M172.297 141.54L172.681 142.295C172.892 142.708 173.263 143.016 173.707 143.147L175.232 143.598V141.499L172.297 141.54Z" fill="#002652"/>
<path d="M184.138 208.51L149.706 173.542L161.909 160.801L193.688 193.532C194.991 194.875 195.834 196.601 196.091 198.459C196.349 200.316 196.009 202.208 195.12 203.857L193.323 207.193C191.478 210.617 186.863 211.278 184.138 208.51Z" fill="#BEDBFF"/>
<path d="M195.806 195.016L194.952 157.344C194.949 157.229 194.924 157.114 194.877 157.008C194.831 156.902 194.764 156.806 194.68 156.726C194.597 156.646 194.499 156.583 194.391 156.542C194.283 156.5 194.169 156.479 194.053 156.482L185.276 156.683L180.633 186.211C180.463 187.76 180.395 189.319 180.43 190.877L180.57 197.042C180.611 198.853 181.367 200.574 182.671 201.825C183.976 203.077 185.722 203.757 187.526 203.716C188.639 203.69 189.736 203.445 190.754 202.994C191.772 202.543 192.692 201.895 193.461 201.087C194.23 200.279 194.833 199.327 195.235 198.286C195.638 197.244 195.832 196.133 195.806 195.016Z" fill="#ED956E"/>
<path d="M177.006 155.75L178.517 158.452C179.324 159.897 180.613 161.011 182.157 161.597L185.253 162.773L179.493 152.411L177.662 153.439C177.271 153.659 176.982 154.025 176.859 154.458C176.736 154.891 176.789 155.356 177.006 155.75Z" fill="#ED956E"/>
<path d="M183.785 156.312C182.285 157.131 181.82 159.182 182.747 160.893C183.674 162.603 185.642 163.325 187.142 162.505C188.643 161.686 189.107 159.635 188.18 157.924C187.253 156.214 185.286 155.492 183.785 156.312Z" fill="#ED956E"/>
<path d="M185.781 159.639L179.595 148.227C179.395 147.858 179.058 147.585 178.657 147.466C178.256 147.347 177.824 147.393 177.457 147.593L177.094 147.792C176.892 147.903 176.713 148.052 176.567 148.232C176.422 148.413 176.314 148.62 176.249 148.842C176.184 149.064 176.162 149.297 176.187 149.527C176.211 149.757 176.281 149.981 176.391 150.184L182.49 161.438L185.781 159.639Z" fill="#ED956E"/>
<path d="M194.641 156.679L190.824 149.637C190.506 149.05 190.033 148.564 189.456 148.231C188.879 147.899 188.222 147.733 187.557 147.753L179.418 147.994L186.528 161.112L194.641 156.679Z" fill="#ED956E"/>
<path d="M181.649 176.421L179.27 190.015C179.079 191.563 179 193.123 179.035 194.682L179.173 200.847C179.257 204.619 182.668 207.598 186.79 207.502C191.925 207.383 196.003 203.479 195.897 198.781L195.39 176.054L181.649 176.421Z" fill="#BEDBFF"/>
<path d="M183.616 176.364L199.013 175.953L199.274 185.841L183.877 186.252L183.616 176.364ZM169.057 164.46L146.025 161.929L146.822 151.383L164.391 154.546L169.057 164.46Z" fill="#BEDBFF"/>
<path opacity="0.07" d="M180.004 205.467L161.489 187.774C160.342 186.678 158.446 187.494 158.446 189.084V199.47L180.004 205.467Z" fill="#002652"/>
<path d="M176.724 254.18L181.219 253.428C182.015 253.295 182.744 252.897 183.288 252.298C183.832 251.699 184.16 250.934 184.219 250.125L185.868 227.524L186.187 248.521C186.195 249.035 186.312 249.542 186.531 250.008C186.749 250.473 187.064 250.886 187.454 251.22C187.844 251.553 188.301 251.799 188.794 251.941C189.286 252.083 189.803 252.118 190.31 252.044L191.492 251.87L190.917 258.288L176.725 261.113L176.724 254.18Z" fill="#013B84"/>
</g>
<g clip-path="url(#clip6_2696_122224)">
<path d="M213.567 430.432C213.567 434.986 209.535 438.678 204.56 438.678H93.9395C88.9647 438.678 84.9321 434.986 84.9321 430.432H213.567Z" fill="#EFF0F2"/>
</g>
<defs>
<clipPath id="clip0_2696_122224">
<rect width="406.52" height="298.499" fill="white" transform="translate(119.565 76.6862)"/>
</clipPath>
<clipPath id="clip1_2696_122224">
<rect width="637.403" height="9.895" fill="white" transform="translate(9.0704 374.361)"/>
</clipPath>
<clipPath id="clip2_2696_122224">
<rect width="260.568" height="126.986" fill="white" transform="translate(286.13 249.024)"/>
</clipPath>
<clipPath id="clip3_2696_122224">
<rect width="102.248" height="102.248" fill="white" transform="translate(270.463 125.337)"/>
</clipPath>
<clipPath id="clip4_2696_122224">
<rect width="164.092" height="275.411" fill="white" transform="translate(460.942 99.7746)"/>
</clipPath>
<clipPath id="clip5_2696_122224">
<rect width="82.4583" height="319.114" fill="white" transform="translate(117.091 111.319)"/>
</clipPath>
<clipPath id="clip6_2696_122224">
<rect width="128.635" height="8.24583" fill="white" transform="translate(84.9321 430.432)"/>
</clipPath>
</defs>
</svg>
