<svg xmlns="http://www.w3.org/2000/svg" viewBox="0 0 800 600" width="800" height="600"><g transform="translate(100.0 464.0) rotate(0.0 210.0 8.0) scale(0.7865168539325843 0.8)"><svg width="534" height="20" viewBox="0 0 534 20"><path d="M534 0c0 11-9 20-20 20H20C8.9 20 0 11 0 0z" fill="#eff0f2"/></svg></g><g transform="translate(129.0 64.0) rotate(0.0 120.5 195.0) scale(0.999647427255947 0.999546359729046)"><svg width="241.085" height="390.177" viewBox="0 0 241.085 390.177"><path d="M7.5 382.677V120.542C7.5 58.211 58.21 7.5 120.542 7.5s113.042 50.71 113.042 113.042v262.135z" fill="#f3f4f6"/><g fill="#fff"><path d="M120.543 15c58.196 0 105.542 47.346 105.542 105.542v254.635H15V120.542C15 62.346 62.346 15 120.543 15m0-15C53.969 0 0 53.969 0 120.542v269.635h241.085V120.542C241.085 53.969 187.116 0 120.543 0z"/><path d="M1.53 119.105h238.024v7H1.53zm0 86.682h238.024v7H1.53zm0 91.927h238.024v7H1.53z"/><path d="M117.042 7.697h7v380.838h-7zm-68.124 21.34h7v361.14h-7zm136.249 0h7v361.14h-7z"/></g></svg></g><g transform="translate(283.0 262.0) rotate(0.0 50.5 105.5) translate(0.0 0.0) scale(0.9951621326028909 0.9954473615927157)"><svg width="89.433" height="211.965" viewBox="0 0 89.433 211.965"><path d="M46.623 110.27h8.467v73.606h-8.467z" fill="#d2d3da"/><path d="M87.163 111.572H14.55a5 5 0 1 1 0-10h72.612a5 5 0 0 1 .001 10z" fill="#bbbdc7"/><g fill="#8e91a2"><path d="M4.723 199.813h-4v-9.067l1.291-.49c15.224-5.777 31.667-8.771 48.87-8.897l.029 4c-16.241.119-31.773 2.862-46.189 8.155v6.299z"/><path d="M101.073 199.813h-4v-6.3c-14.417-5.293-29.949-8.036-46.19-8.155l.029-4c17.204.126 33.646 3.12 48.87 8.897l1.291.49zm-95.437-.666h-3.51A2.126 2.126 0 0 0 0 201.273v5.6h12.277l.008-1.024a6.65 6.65 0 0 0-6.649-6.702z"/><path d="M95.855 199.147h3.509c1.174 0 2.126.952 2.126 2.126v5.6H89.213l-.008-1.024a6.65 6.65 0 0 1 6.65-6.702z"/></g><circle cx="96.064" cy="206.538" fill="#838799" r="5.427"/><circle cx="5.427" cy="206.538" fill="#838799" r="5.427"/><path d="M30.353 106V72L15.186 16.92C13.257 9.917 18.527 3 25.791 3h49.124c7.264 0 12.534 6.917 10.605 13.92L70.353 72v34H46.274" fill="#bbbdc7"/><path d="M73.353 109H46.274a3 3 0 1 1 0-6h21.079V71.595l.107-.392 15.167-55.08a7.94 7.94 0 0 0-1.349-6.971A7.936 7.936 0 0 0 74.915 6H25.791a7.936 7.936 0 0 0-6.364 3.152 7.936 7.936 0 0 0-1.349 6.971l15.275 55.472V106a3 3 0 1 1-6 0V72.405l-15.06-54.688a13.893 13.893 0 0 1 2.361-12.2A13.895 13.895 0 0 1 25.791 0h49.123c4.407 0 8.466 2.011 11.136 5.516a13.899 13.899 0 0 1 2.362 12.201l-15.06 54.688V109z" fill="#bbbdc7"/></svg></g><g transform="translate(251.0 206.0) rotate(0.0 94.0 129.0) scale(0.939901310362412 0.9363058018297884)"><svg width="200.021" height="275.551" viewBox="0 0 200.021 275.551"><path d="M120.813 112.043 92.388 75.608l17.391-11.399 33.61 43.08-10.342 6.779a9.154 9.154 0 0 1-12.234-2.025z" fill="#013b84"/><path d="M158.061 144.111 75.88 132.616v39.002h79.936c6.744 0 12.21-5.467 12.21-12.21v-3.766a11.652 11.652 0 0 0-9.965-11.531z" fill="#93c3ff"/><path d="m49.244 134.28 73.156 8.66v32.167H70.207c-11.577 0-20.963-9.385-20.963-20.963z" fill="#93c3ff"/><path d="m111.5 137.587-34.711 1.865a29.89 29.89 0 0 0-19.343 7.805l-8.071 7.079s-6.621-17.958-9.318-23.734c-3.12-6.681-6.756-30.65-7.549-37.98l-2.961-27.357C28.331 54.027 38.716 49.3 50.012 49.716c12.35.455 38.874 4.838 53.011 6.747 4.158.561 7.192 6.182 8.462 10.587z" fill="#013b84"/><path d="m132.212 163.334-25.784 66.539-5.406 17.882 17.113 1.418 39.07-60.463c.657-1.017 11.263-26.225 10.053-26.196z" fill="#93c3ff"/><path d="m143.349 262.475 3.825-2.486a3.716 3.716 0 0 0-1.5-6.795l-8.078-1.154a17.768 17.768 0 0 1-12.431-7.977l-3.34-5.192-3.198 1.954a1.776 1.776 0 0 0-.685 2.265l1.089 2.346-4.499 1.869a8.628 8.628 0 0 1-9.023-1.502l-3.818-3.374a1.066 1.066 0 0 0-1.771.744l-.789 15.179.914 3.573z" fill="#5aa1f1"/><path d="m97.963 259.349.708 1.502a7.716 7.716 0 0 0 6.98 4.427h31.761c.611 0 1.211-.157 1.743-.457l7.032-3.957h-26.153c-.463 0-.908-.181-1.24-.504a8.926 8.926 0 0 0-6.227-2.531h-13.64a1.066 1.066 0 0 0-.964 1.52z" fill="#016eea"/><path d="M130.533 174.905 125 155.233l17.056 1.108c2.574.167 3.751 3.291 1.927 5.115z" fill="#1d2445" opacity=".07"/><path d="m100.031 190.009 10.404 32.194 3.543 10.967 1.934 5.99.573 1.773 1.852 5.73.912 2.826 1.386 4.298.081.246 6.544-.273c1.549-.062 3.192-.131 4.708-.187.857-.037 1.669-.067 2.406-.095 1.89-.074 3.256-.12 3.433-.117l-.075-.539-.211-1.528-1.649-12.01-1.851-13.471-.652-41.392a39.993 39.993 0 0 0-1.183-9.046l-7.275-29.183-25.216.99-.57 36.78c-.03 2.052.276 4.094.906 6.047z" fill="#93c3ff"/><path d="M139.82 270.388h-24.097l-1.295-5.955a7.485 7.485 0 0 1 .679-5.056l3.237-6.201 9.772-5.508 9.832 5.508 2.598 6.69c.745 1.919.88 4.021.386 6.02z" fill="#67a8f2"/><path d="M136.246 275.551h-16.729c-.942 0-1.781-.51-2.084-1.27l-1.693-4.238h24.283l-1.693 4.238c-.303.76-1.142 1.27-2.084 1.27z" fill="#016eea"/><path d="M132.988 246.291h-10.026a1.872 1.872 0 0 0-1.872 1.872v9.682c0 1.034.838 1.872 1.872 1.872h10.026a1.872 1.872 0 0 0 1.872-1.872v-9.682a1.872 1.872 0 0 0-1.872-1.872z" fill="#67a8f2"/><path d="M126.254 267.29h3.442a2.59 2.59 0 0 1 2.582 2.582 2.59 2.59 0 0 1-2.582 2.582h-3.442a2.59 2.59 0 0 1-2.582-2.582 2.59 2.59 0 0 1 2.582-2.582z" fill="#016eea"/><path d="M65.443 21.835c-1.87-5.265 3.474-11.969 11.936-14.973 7.219-2.563 14.374-1.606 17.481 1.999.805.934.383 2.393-.778 2.805z" fill="#002652"/><path d="M63.958 13.978C62.367 9.495 66.916 3.788 74.12 1.23 80.265-.952 86.357-.137 89.003 2.932c.685.795.326 2.037-.663 2.388z" fill="#002652"/><path d="m87.319 17.734 7.139 19.742c.772 2.36-.98 4.788-3.463 4.798l-23.029.098z" fill="#c78982"/><path d="m89.974 30.327 3.473-1.328c1.447-.553 1.542-2.565.154-3.252l-6.075-3.008zM71.359 9.518l-.454.149a3.66 3.66 0 0 0-2.341 4.617l3.952 12.081 16.109-5.269-1.107-3.384c-2.199-6.725-9.434-10.393-16.159-8.194zm-5.98 20.221 19.795-.096.189 39.18c.005.951-1.143 1.432-1.818.761l-18.06-17.952z" fill="#c78982"/><path d="M92.107 31.627 82.01 34.93l-4.2-12.837 10.099-3.303z" fill="#c78982"/><path d="m66.223 8.548-4.739 1.683c-5.179 1.839-7.887 7.528-6.048 12.707l8.324 23.443 30.142-10.703-5.964-16.796C84.796 10.033 75.074 5.406 66.223 8.548z" fill="#c78982"/><path d="m83.084 42.17-2.564-.127c-1.131-.056-1.676 1.365-.798 2.08l5.595 4.558m3.271-27.291-2.294.814a1.069 1.069 0 0 0-.606.547l-.616 1.294c-.408.858.424 1.781 1.319 1.463l3.328-1.182" fill="#1d2445" opacity=".1"/><path d="m77.386 29.309 1.261 3.551a8.7 8.7 0 0 0 7.629 5.77 4.936 4.936 0 0 1 2.999-6.302l3.052-1.084 2.299 6.474c.838 2.36-.963 4.824-3.466 4.741l-9.921-.326a3.554 3.554 0 0 1-3.232-2.363l-4.344-12.233a2.916 2.916 0 0 1 3.723 1.772z" fill="#002652"/><path d="m90.704 37.789 2.496-.287a1.038 1.038 0 0 0 .86-1.379l-.99-2.788-2.21.785a2.274 2.274 0 0 0-1.382 2.905c.18.509.689.826 1.226.764z" fill="#c78982"/><path d="m65.585 43.153 8.619.664L63.014 12.3a3.554 3.554 0 0 0-4.538-2.16l-1.507.535c-7.177 2.548-10.399 10.89-6.799 17.602l3.981 7.422a14.215 14.215 0 0 0 11.434 7.454z" fill="#002652"/><path d="m71.227 27.128 14.848-5.272-.537-2.575-15.183 5.391z" fill="#93c3ff"/><path d="m56.448 15.62 11.721-4.162 8.615 24.262a7.106 7.106 0 0 1-4.32 9.076l-5.023 1.784z" fill="#002652"/><path d="m63.361 10.695 13.801-4.9 2.794 7.87a7.106 7.106 0 0 1-4.32 9.076l-7.103 2.522z" fill="#002652"/><path d="M86.046 20.162a.066.066 0 0 0-.04.084l1.727 4.864c.012.035.05.053.085.04l3.247-1.153a.067.067 0 0 0 .04-.085l-1.727-4.864a.066.066 0 0 0-.084-.04zm-.334-.943 3.247-1.153a1.066 1.066 0 0 1 1.361.648l1.727 4.864a1.067 1.067 0 0 1-.648 1.362l-3.247 1.153a1.067 1.067 0 0 1-1.362-.648l-1.727-4.864a1.068 1.068 0 0 1 .649-1.362z" fill="#93c3ff"/><path d="M64.278 31.299c-1.87-5.265-10.245-7.097-18.706-4.093-7.219 2.563-12.168 7.819-12.306 12.576-.036 1.232 1.212 2.098 2.373 1.686z" fill="#002652"/><path d="M72.35 35.975c-1.738-4.895-9.525-6.599-17.392-3.805-6.711 2.383-11.313 7.269-11.441 11.693-.033 1.145 1.126 1.951 2.206 1.568z" fill="#002652"/><path d="M70.084 41.306c4.083-1.45 3.384-7.394-.919-7.899-2.343-.275-4.964.008-7.569.933-5.834 2.072-9.701 6.697-9.632 11.05.018 1.127 1.076 1.969 2.015 1.636z" fill="#002652"/><path d="M73.56 44.438c3.008-1.068 2.493-5.448-.677-5.82-1.726-.203-3.657.006-5.576.687-4.298 1.526-7.147 4.934-7.096 8.141.013.83.793 1.451 1.484 1.205zm-8.355-23.274c-1.87-5.265-10.245-7.097-18.706-4.093-7.219 2.563-12.168 7.819-12.306 12.576-.036 1.232 1.212 2.098 2.373 1.686z" fill="#002652"/><path d="M76.007 10.163c-1.87-5.265-10.245-7.097-18.706-4.093-7.219 2.563-12.168 7.819-12.306 12.576-.036 1.232 1.212 2.098 2.373 1.686z" fill="#002652"/><path d="m186.739 107.395-6.726 4.867c-3.866 1.847-8.308 1.355-11.69-.998a11.465 11.465 0 0 1-2.015-1.744c-.077-.142-.131-.287-.188-.418l-.201-.471-9.168-9.107 4.813.5 14.397 1.681 1.15-.562c.226.048.434.071.645.08l8.678.542c.931.061.305 5.63.305 5.63z" fill="#c78982"/><path d="M196.322 109.473c-.025-.051-.072-.282-.072-.282s-.832-2.879-.843-2.87a99.485 99.485 0 0 0-.449-1.443 2.772 2.772 0 0 0-.417-.876 89.708 89.708 0 0 0-2.33-3.44c-.497-.648-1.05-1.143-1.731-1.514-1.024-.733-5.106-3.157-5.106-3.157l-4.026 4.477 3.986.875-1.056 5.619s-.474.731-1.318 2.143.359 3.809 1.274 2.679l1.541-1.806-.025-.009c.088-.112.398-.503.575-.694.157-.201.341-.478.45-.783.183-.515.535-1.351.86-2.132l.128 1.157s-.223.99-.718 2.742c-.494 1.751 1.555 3.935 2.197 2.493l.965-2.354c.136-.38.268-.633.43-1.089.159-.328.243-.684.276-1.016.073-.636.173-1.73.263-2.722l.64.903.803 1.955c.221.463.493.903.895 1.217 1.231.993 2.818.744 2.808-.073z" fill="#c78982"/><path d="M196.322 109.473c-.025-.051-.072-.282-.072-.282s-.832-2.879-.843-2.87a99.485 99.485 0 0 0-.449-1.443 2.772 2.772 0 0 0-.417-.876 89.708 89.708 0 0 0-2.33-3.44c-.497-.648-1.05-1.143-1.731-1.514-1.024-.733-5.106-3.157-5.106-3.157l-4.026 4.477 3.986.875-1.056 5.619s-.474.731-1.318 2.143.359 3.809 1.274 2.679l1.541-1.806-.025-.009c.088-.112.398-.503.575-.694.157-.201.341-.478.45-.783.183-.515.535-1.351.86-2.132l.128 1.157s-.223.99-.718 2.742c-.494 1.751 1.555 3.935 2.197 2.493l.965-2.354c.136-.38.268-.633.43-1.089.159-.328.243-.684.276-1.016.073-.636.173-1.73.263-2.722l.64.903.803 1.955c.221.463.493.903.895 1.217 1.231.993 2.818.744 2.808-.073z" fill="#1d2445" opacity=".1"/><path d="M187.511 106.062s3.66-.54 7.064-1.085c3.405-.545 2.369-3.653-.309-3.706l-7.142-.141z" fill="#c78982"/><path d="m199.995 103.116-.024-.052-.025-.051-.023-.026-1.337-2.17c-.446-.672-.816-1.317-1.088-1.757-.199-.285-.373-.518-.674-.754a249.061 249.061 0 0 0-3.163-2.665c-.603-.471-1.284-.842-2.047-.985l-9.096-1.992c-1.474-.31-3.065.194-4.008 1.4l-5.204 6.328c-1.414 1.809-1.99 2.208-4.139 2.472l-13.085-.294-1.269 11.313c.164.014 15.765-.528 15.921-.515-.326-.006 1.277.085 1.277.085 3.089.073 3.072-.103 5.244-.382l.886-.147c4.198-.541 5.184-6.144 9.371-6.858l-.34-4.94-1.734-.06c-1.734-.06-2.837-2.378-1.765-2.382s8.012-.02 8.012-.02l3.138 2.614 1.294 1.658a3.11 3.11 0 0 0 1.206.943c1.469.693 2.912.007 2.672-.763z" fill="#c78982"/><path d="m161.461 113.987-31.298 1.816c-6.461.375-11.857-4.863-11.674-11.332l.248-8.775 16.997.685 26.511 3.64zM2.302 102.326l28.222-43.823a4.645 4.645 0 0 1 6.397-1.497l14.671 9.106-30.768 46.178a6 6 0 0 1-8.262 1.934l-7.51-4.914c-2.816-1.75-4.498-4.17-2.75-6.984z" fill="#013b84"/><g fill="#c78982"><path d="M15.933 164.519 5.17 126.449l5.465-.306 13.655-.643 3.074 30.961s-11.29 8.745-11.431 8.058zm24.56 5.682c-.886.848-2.059 1.207-2.831.485l-7.522-7.822 2.704-5.3 7.744 10.522a1.533 1.533 0 0 1-.095 2.115z"/><path d="M36.856 171.169c-.886.848-2.796 1.628-3.567.907l-7.307-7.756 2.704-5.3 8.167 11.081c.186.237.293.843.016 1.059l-.013.009z"/><path d="M33.263 173.149c-.886.848-2.855 1.553-3.626.831l-7.248-7.68 2.704-5.3 8.167 11.081c.186.237.293.843.016 1.059l-.013.009z"/><path d="M29.661 174.623c-.756.817-1.833 1.565-2.631.875l-8.577-7.486 2.32-5.015 8.783 10.6c.198.227.358.808.117 1.016l-.012.01z"/><path d="m24.697 168.01 7.462-5.496a3.352 3.352 0 0 0 .253-5.191l-7.397-6.648a1.39 1.39 0 0 0-1.749-.089l-4.342 3.166c-3.998 2.915-4.885 8.57-1.97 12.568l.392.538c1.705 2.338 5.013 2.856 7.351 1.152z"/><ellipse cx="26.946" cy="162.522" rx="7.665" ry="8.381" transform="matrix(-.8081 .5891 -.5891 -.8081 144.4596 277.9785)"/><path d="M38.146 156.366a8.973 8.973 0 0 1-1.766-1.807 7.682 7.682 0 0 0-3.195-2.511l-3.553-1.376c-2.023-.778-3.538-1.372-6.337-.202l-5.23.596-2.85 6.539a1.699 1.699 0 0 0 1.146 2.327l.851.213a8.187 8.187 0 0 1 7.001 1.683l.047.045.054.047 14.385 3.594-3.452-3.965-.802-1.657a.546.546 0 0 1 .113-.618.574.574 0 0 1 .522-.134c.047.012.727.18.772.199 1.08 1.244 4.182-1.492 2.294-2.973z"/></g><path d="M7.583 135.689.948 113.853c-1.161-4.109-1.4-5.599.103-9.596l6.497-9.298 16.049-2.835.607 26.768.796 13.714z" fill="#013b84"/><path d="m37.621 157.462-.768 4.129a2.606 2.606 0 0 0 1.76 2.955l.275.089a.744.744 0 0 0 .937-.479l1.319-4.081a1.403 1.403 0 0 0-.903-1.766z" fill="#c78982"/><path d="m40.553 158.005-6.04-5.209a2.353 2.353 0 0 0-3.443.402l-.971 1.341 9.157 7.835 1.497-1.749c.665-.78.576-1.95-.2-2.62z" fill="#c78982"/></svg></g><g transform="translate(232.0 314.0) rotate(0.0 213.0 93.0) translate(0.0 0.0) scale(1.0215974330565907 1.0166601075691986)"><svg width="416.994" height="159.345" viewBox="0 0 416.994 159.345"><g fill="#D2D3DA"><path d="M.158 0h416.837v17.368H.158z"/><path d="M357.134 12.406h22.331v19.849h-22.331z"/><path d="M408.128 182.952 368.299 34.499 328.47 182.952l-7.726-2.073L368.299 3.626l47.555 177.253zM36.39 12.406h22.331v19.849H36.39z"/><path d="M87.384 182.952 47.556 34.499 7.727 182.952 0 180.879 47.556 3.626l47.555 177.253z"/></g></svg></g><g transform="translate(428.0 135.0) rotate(0.0 128.5 89.5) scale(1.251625408482806 1.2463531983929703)"><svg width="205.333" height="143.619" viewBox="0 0 205.333 143.619"><path d="m131.504 141.727-1.328-.676a15 15 0 0 1-8.195-13.367V81.22h-38.63v46.464a14.998 14.998 0 0 1-8.195 13.367l-1.328.676c-.937.477-.598 1.891.454 1.891h56.767c1.052.001 1.392-1.414.455-1.891z" fill="#DCEAFF"/><path d="M200.333 0H5a5 5 0 0 0-5 5v91.433l3 2.519V106a5 5 0 0 0 5 5h189.333a5 5 0 0 0 5-5v-5.959l3-3.609V5a5 5 0 0 0-5-5z" fill="#AFBEDA"/><path d="M205.333 96.433H0V109a5 5 0 0 0 5 5h195.333a5 5 0 0 0 5-5z" fill="#E7F5FF"/><path d="M7.049 6.767h191.235v82.984H7.049z" fill="#D1DFF6"/><path d="M104.614 109.417h-3.895c-1.1 0-2-.9-2-2v-3.895c0-1.1.9-2 2-2h3.895c1.1 0 2 .9 2 2v3.895c0 1.1-.9 2-2 2z" fill="#DCEAFF"/></svg></g><g transform="translate(514.0 146.0) rotate(0.0 49.0 124.0) translate(0.0 0.0) scale(0.881731072023033 0.890321700514448)"><svg width="111.145" height="114.565" viewBox="0 0 111.145 114.565"><path d="m106.084 149.696-3.166 25.925a18.709 18.709 0 0 1-.727 3.357l-21.633 68.668s-16.184-2.021-15.63-1.922l9.068-73.533a18.745 18.745 0 0 1 1.856-6.123l13.367-26.575 5.308-.878c6.583-1.085 12.366 4.457 11.557 11.081z" fill="#99644c"/><path d="m107.098 161.372-48.5-5-3.75-30 19.75.5 27.334 13.561a9 9 0 0 1 4.999 7.926z" fill="#013b84"/><path d="m106.084 149.696-3.166 25.925a18.709 18.709 0 0 1-.727 3.357l-21.633 68.668s-16.184-2.021-15.63-1.922l9.068-73.533a18.745 18.745 0 0 1 1.856-6.123l13.367-26.575 5.308-.878c6.583-1.085 12.366 4.457 11.557 11.081z" fill="#002652" opacity=".07"/><path d="m82.831 241.259-6.47-.79 2.246-7.35a4.272 4.272 0 0 1 4.602-2.991l2.914.356z" fill="#bedbff"/><path d="m80.776 244.37-15.48-1.89.687-5.629 15.48 1.89z" fill="#99644c"/><path d="m82.404 254.307-21.597-2.637.246-2.178a24.924 24.924 0 0 1 2.567-8.536l2.647-5.187 17.317 8.874z" fill="#7eb8ff"/><path d="m66.03 234.265-1.013 8.299c.493.06 12.564 8.711 12.87 9.102l1.806 2.309 23.466 3.11-.533-2.46a3.743 3.743 0 0 0-2.345-2.714l-10.946-4.854a11.213 11.213 0 0 1-5.805-4.948l-2.564-4.499a3.744 3.744 0 0 0-2.801-1.864z" fill="#7eb8ff"/><path d="m103.347 259.887-42.757-5.22.406-3.32 42.756 5.221z" fill="#bedbff"/><circle cx="70.088" cy="245.488" fill="#bedbff" r="3.995"/><path d="M90.463 274.772a7.63 7.63 0 0 0 6.623 3.779l9.789-.049c3.157-.123 5.178-3.41 3.862-6.282l-11.42-24.916-15.665 4.527.463 12.074z" fill="#bedbff"/><path d="M57.471 136.759c4.427-2.699 10.213-1.122 12.658 3.451l13.251 24.784a19.048 19.048 0 0 1 1.956 5.643l12.573 70.511s-16.06 4.132-15.523 3.933l-26.114-68.502a19.11 19.11 0 0 1-.952-3.426l-5.67-31.627z" fill="#99644c"/><path d="M90.283 271.704a7.63 7.63 0 0 0 6.623 3.779l9.789-.049c3.157-.123 5.178-3.41 3.862-6.282l-11.42-24.916-15.665 4.527.463 12.074z" fill="#93c3ff"/><path d="m97.824 248.377-11.081 3.044-3.043-11.078a3.763 3.763 0 0 1 2.632-4.625l3.826-1.051a3.763 3.763 0 0 1 4.625 2.632z" fill="#bedbff"/><path d="m94.067 253.32 7.159-2.083-3.369-11.578-2.642.769a3.815 3.815 0 0 0-2.688 4.336z" fill="#93c3ff"/><path d="m85.1 255.929 9.624-2.801-3.652-8.084a3.815 3.815 0 0 0-4.54-2.092l-4.801 1.398z" fill="#93c3ff"/><path d="m48.656 141.461 6.3 29.654L82.8 163.91l-17.173-32.122z" fill="#013b84"/><path d="m20.563 115.691 43.871-4 15.302 48.046H38.611c-9.023 0-16.693-6.592-18.048-15.513z" fill="#013b84"/><path d="M32.333 38.276h32.535V14.162C64.868 6.341 58.527 0 50.706 0h-4.21c-7.822 0-14.162 6.341-14.162 14.162v24.114z" fill="#1d2445"/><g fill="#2888ff"><path d="M75.438 127.202H26.115l-8.398-51.854h59.174l3.697 10.807-4.402 14.345z"/><path d="m81.153 56.554 25.807 50.293-11.166 5.148-2.145.096-29.585-52.129zm-60.59 12.943h12.022v57.705H20.563z"/><path d="m91.536 79.895-80.77 11.381v-23.58c0-9.535 7.729-17.264 17.264-17.264h41.201a15 15 0 0 1 13.839 9.214z"/><path d="M11.434 62.914.946 104.142l-.889 5.244 15.141-4.72 13.47-44.722-13.933.339a3.494 3.494 0 0 0-3.301 2.631z"/></g><path d="m56.687 109.031 1.47 7.846 39.885 1.569a9.687 9.687 0 0 0 9.934-8.069l.093-.548a5.129 5.129 0 0 0-4.972-5.982l-9.133-.152a36.895 36.895 0 0 0-6.068.398z" fill="#99644c"/><path d="M52.908 116.68c.406.161.84.244 1.278.244h16.818l.268-.157v-7.431h-7.253a3.443 3.443 0 0 1-.78.099l-2.158-.005-7.9-.794a3.706 3.706 0 0 0-2.577.695l-2.138 1.555-4.215-.495a6.505 6.505 0 0 0-2.86.277l-8.55 2.795a.492.492 0 0 0-.318.619c.003.003.003.007.003.007l.01.028a1.941 1.941 0 0 0 2.131 1.188l8.125-1.42 8.002 1.956z" fill="#99644c"/><g fill="#1d2445" opacity=".1"><path d="m56.687 109.031 1.47 7.846 39.885 1.569a9.687 9.687 0 0 0 9.934-8.069l.093-.548a5.129 5.129 0 0 0-4.972-5.982l-9.133-.152a36.895 36.895 0 0 0-6.068.398z"/><path d="M52.908 116.68c.406.161.84.244 1.278.244h16.818l.268-.157v-7.431h-7.253a3.443 3.443 0 0 1-.78.099l-2.158-.005-7.9-.794a3.706 3.706 0 0 0-2.577.695l-2.138 1.555-4.215-.495a6.505 6.505 0 0 0-2.86.277l-8.55 2.795a.492.492 0 0 0-.318.619c.003.003.003.007.003.007l.01.028a1.941 1.941 0 0 0 2.131 1.188l8.125-1.42 8.002 1.956z"/></g><path d="m51.455 110.031-1.47 7.846-39.885 1.568a9.687 9.687 0 0 1-9.934-8.069l-.093-.548a5.129 5.129 0 0 1 4.972-5.982l9.133-.152c2.03-.035 4.059.099 6.068.398z" fill="#99644c"/><path d="M55.233 117.68c-.406.161-.84.244-1.278.244H37.137l-.268-.157v-7.431h7.253c.254.059.514.099.78.099l2.158-.005 7.9-.794a3.706 3.706 0 0 1 2.577.695l2.138 1.555 4.215-.495a6.505 6.505 0 0 1 2.86.277l8.55 2.795c.259.083.401.36.318.619-.003.003-.003.007-.003.007l-.01.028a1.941 1.941 0 0 1-2.131 1.188l-8.125-1.42-8.002 1.956z" fill="#99644c"/><circle cx="46.429" cy="37.011" fill="#1d2445" r="14.276"/><circle cx="50.615" cy="37.011" fill="#1d2445" r="14.276"/><path d="m46.738 68.374-7.601-19.19v-14.51h17.869v17.879L48.78 68.476c-.443.857-1.687.794-2.042-.102z" fill="#99644c"/><path d="M48.826 42.072v8.236l3.744-7.862z" fill="#1d2445" opacity=".1"/><path d="M61.174 13.58a7.072 7.072 0 0 0-7.072-7.072H46.2c-6.203 0-11.231 5.028-11.231 11.231v12.74c0 1.915.734 3.758 2.051 5.148l6.457 6.819h9.189l6.457-6.819a7.487 7.487 0 0 0 2.051-5.148v-6.002z" fill="#99644c"/><path d="M42.213 13.964h9.888v12.57h-9.888z" fill="#99644c"/><path d="M35.421 30.092h7.394c.493 0 .893-.4.893-.893v-7.342c0-.493-.4-.893-.893-.893h-7.394a4.564 4.564 0 1 0 0 9.128z" fill="#99644c"/><path d="M52.694 3.931h-8.766l1.958 7.378a10.005 10.005 0 0 0 9.671 7.439h6.341v-5.615c-.002-5.082-4.122-9.202-9.204-9.202z" fill="#1d2445"/><path d="M37.869 21.298h-4.485l-.101-2.499h4.586z" fill="#93c3ff"/><path d="M53.318 29.949h-3.743v-9.734z" fill="#1d2445" opacity=".1"/><path d="M45.339 19.799a.36.36 0 0 1 .36.36v4.272a.36.36 0 0 1-.36.36h-6.745a.36.36 0 0 1-.36-.36v-4.632zm0-1h-8.105v5.632c0 .751.609 1.36 1.36 1.36h6.745a1.36 1.36 0 0 0 1.36-1.36v-4.272a1.36 1.36 0 0 0-1.36-1.36zm12.569 1v4.632a.36.36 0 0 1-.36.36h-6.745a.36.36 0 0 1-.36-.36v-4.272a.36.36 0 0 1 .36-.36zm1-1h-8.105a1.36 1.36 0 0 0-1.36 1.36v4.272c0 .751.609 1.36 1.36 1.36h6.745a1.36 1.36 0 0 0 1.36-1.36z" fill="#93c3ff"/><path d="m52.57 32.356-.722 1.766-3.365.66v-2.466zm-8.173 0 .722 1.766 3.364.66v-2.466z" fill="#1d2445" opacity=".1"/><path d="M54.349 18.718c1.067 0 1.932.865 1.932 1.932v6.647c0 2.837 1.361 5.5 3.659 7.162 2.14 1.546 4.447 3.223 4.576 3.352v-9.733h-1.369V13.851h-8.799v4.867z" fill="#1d2445"/><path d="M50.324 21.298h-4.486l-.101-2.499h4.587z" fill="#93c3ff"/></svg></g><g transform="translate(450.0 206.0) rotate(0.0 57.5 84.5) scale(0.7744472803431812 0.777050793373458)"><svg width="148.493" height="217.489" viewBox="0 0 148.493 217.489"><path d="M0 0h148.493v217.489H0z" fill="#93c3ff"/><circle cx="74.247" cy="45.142" fill="#53a0ff" r="21.085"/><circle cx="74.247" cy="37.926" fill="#c7e0ff" r="6.381"/><path d="M74.246 45.674a9.572 9.572 0 0 0-9.572 9.572v5.542h19.144v-5.542a9.572 9.572 0 0 0-9.572-9.572z" fill="#c7e0ff"/><g fill="#53a0ff"><path d="M19.964 78.984h108.565v15.21H19.964zm0 27.535h108.565v15.21H19.964zm0 27.534h108.565v15.21H19.964zm0 27.535h67.132v15.21H19.964z"/></g></svg></g><g transform="translate(129.0 212.0) rotate(0.0 91.5 132.0) scale(0.9962707896670931 0.9980681332723402)"><svg width="183.685" height="264.511" viewBox="0 0 183.685 264.511"><path d="M48.417 60.405h11.766V8.313c-6.498 0-11.766 5.268-11.766 11.766z" fill="#002652"/><path d="M75.644 39.998h17.052V13.515h-27.74V29.31c.001 5.903 4.786 10.688 10.688 10.688z" fill="#ed956e"/><path d="M75.632 72.664 61.089 57.295l9.079-23.154 10.131 4.032 8.04 3.273z" fill="#ed956e"/><path d="M96.755 14.412v6.745c0 .245-.047.488-.138.715l-.894 2.223c-.3.747-.102 1.602.497 2.14l.536.482v13.044a3.832 3.832 0 0 1-3.847 3.832l-24.205-.099.099-8.244z" fill="#ed956e"/><path d="m93.389 34.489 5.297-2.75a1.916 1.916 0 0 0 .378-3.143l-5.676-4.963v10.856z" fill="#ed956e"/><g fill="#002652"><path d="m87.361 43.367-1.919-.029a2.046 2.046 0 0 0-2.057 2.333l.794 5.605m11.953-29.654h-3.391c-.305 0-.597.121-.813.337l-1.092 1.092c-.724.724-.211 1.962.813 1.962h3.942m-2.25 9.191.437.854c.239.468.661.817 1.165.965l1.733.51v-2.374z" opacity=".07"/><path d="M84.887.396h-.573a4.389 4.389 0 0 0-4.389 4.389v15.242h20.324v-4.269c0-8.485-6.878-15.362-15.362-15.362z"/><path d="M82.269 19.81H59.431v-5.089C59.431 6.591 66.021 0 74.151 0h4.809a3.309 3.309 0 0 1 3.309 3.309z"/><path d="M76.79 37.758h-5.271a8.023 8.023 0 0 1-8.022-8.022v-6.934a4.089 4.089 0 0 0-4.087-4.088h-1.018v-4.219h28.25z"/></g><path d="M61.461 21.237a1.5 1.5 0 0 1-1.5-1.5V6.949a1.5 1.5 0 0 1 3 0v12.788a1.5 1.5 0 0 1-1.5 1.5z" fill="#2888ff"/><path d="M80.563 31.503h3.407l-.324-7.133a4.317 4.317 0 0 0-4.312-4.121h-.247c-2.372 0-4.041 2.332-3.275 4.577l1.477 4.333a3.456 3.456 0 0 0 3.274 2.344z" fill="#ed956e"/><path d="M56.306 47.923a43.906 43.906 0 0 0-22.689 27.71l-5.173 18.989a17.785 17.785 0 0 1-7.572 10.305l-4.177 2.884A28.443 28.443 0 0 0 5.48 123.504l-3.551 12.611 69.369 22.05v-20.848l.249-21.65 7.028-12.028 5.558-2.906a11.375 11.375 0 0 0 6.104-10.284l-.247-13.875-2.554-11.612a11.712 11.712 0 0 0-3.428-6.028l-10.646-9.98a17.047 17.047 0 0 0-17.056-1.031z" fill="#bedbff"/><path d="m126.472 92.918-8.407-42.492c-.109-.55-.659-.91-1.229-.805l-11.322 5.299-1.158 31.964c.104 1.787 2.827 2.514 3.175 4.272l1.376 6.954c.841 4.254 18.614.107 17.565-5.192z" fill="#ed956e"/><path d="m96.593 52.032 2.312 2.772a8.452 8.452 0 0 0 4.91 2.869l3.88.743-8.826-10.636-1.956 1.512a1.906 1.906 0 0 0-.32 2.74z" fill="#ed956e"/><path d="M104.377 56.764c-1.429-1.76-1.284-4.171.324-5.385s4.07-.77 5.499.991c1.429 1.76 1.284 4.171-.324 5.385-1.608 1.213-4.07.77-5.499-.991z" fill="#ed956e"/><path d="m107.704 54.767-9.535-11.746c-.641-.79-1.826-.929-2.645-.311l-.389.294a1.976 1.976 0 0 0-.359 2.842l9.402 11.582z" fill="#ed956e"/><path d="m117.569 49.731-5.883-7.248c-.999-1.231-2.632-1.816-4.222-1.512l-9.549 1.821 10.96 13.501z" fill="#ed956e"/><path d="m125.124 97.197-1.181 2.253a9.09 9.09 0 0 1-12.317 3.808L69.381 80.801 82.44 57.954l41.036 31.704a6.004 6.004 0 0 1 1.648 7.539z" fill="#bedbff"/><path d="m183.604 259.189-.287-.825a4.316 4.316 0 0 0-3.063-2.778l-15.496-3.746a12.923 12.923 0 0 1-7.335-4.851l-3.562-4.791a4.318 4.318 0 0 0-3.465-1.741h-14.097v3.004l-1.822 4.984a28.76 28.76 0 0 0-1.746 10.131l.023 2.527h21.936l.001.001h27.551a1.441 1.441 0 0 0 1.362-1.915z" fill="#016eea"/><path d="M132.73 260.704h50.683v3.807H132.73z" fill="#2888ff"/><path d="m134.12 247.775 36.944-6.913-42.9-92.019c-2.379-4.873-8.378-6.725-13.09-4.041l-23.781 13.546 5.701 28.437a48.875 48.875 0 0 0 8.326 19.045z" fill="#013b84"/><path d="M127.566 155.668c2.386-4.568-.118-10.167-5.113-11.434L48.69 124.236c-7.072-2.086-42.895-1.956-42.895-1.956l-4.391 14.247c-6.182 20.057 8.828 40.367 29.815 40.345l52.978-.065 36.087-7.197z" fill="#013b84"/><path d="m125.473 75.812-2.231-13.08H104.68l.228 15.086c.05 3.283.531 6.545 1.431 9.703l3.826 13.415a5.4 5.4 0 0 0 5.081 3.918l2.935.061a8.453 8.453 0 0 0 8.577-7.509l-.155-9.43a80.016 80.016 0 0 0-1.13-12.164z" fill="#bedbff"/><path d="M104.661 60.185h20.846v7.644h-20.846zm-18.411-.694L59.828 46.704l7.434-7.366 19.451 8.804z" fill="#d4e7ff"/><path d="m89.791 90.982-12.01-5.719a2 2 0 0 0-2.851 1.618l-.89 9.429z" fill="#1d2445" opacity=".07"/></svg></g><g transform="translate(85.0 267.0) rotate(0.0 72.5 104.5) scale(0.9985606952737089 0.998270937419398)"><svg width="145.209" height="209.362" viewBox="0 0 145.209 209.362"><path d="M73.837 122.667h8.467v59.605h-8.467z" fill="#d2d3da"/><path d="M124.398 123.969H49.323c-10.238 0-18.567-8.329-18.567-18.567V87.289a9.393 9.393 0 0 0-.634-3.4L.337 6.802a5 5 0 0 1 9.328-3.604l29.784 77.087a19.354 19.354 0 0 1 1.306 7.004v18.112c0 4.724 3.843 8.567 8.567 8.567h75.075a5 5 0 0 1 .001 10.001z" fill="#bbbdc7"/><g fill="#8e91a2"><path d="M94.582 126.318a2 2 0 0 1-2-2v-2.785l7.711-26.752c.21-.729.061-1.438-.445-2.109-.847-1.127-2.478-1.826-4.255-1.826H58.741c-1.833 0-3.487.731-4.315 1.909-.491.697-.604 1.428-.337 2.172l9.667 26.928v2.297a2 2 0 0 1-4 0v-1.602l-9.432-26.271c-.702-1.954-.399-4.077.83-5.825 1.589-2.259 4.425-3.607 7.587-3.607h36.853c3.054 0 5.839 1.278 7.451 3.421 1.265 1.681 1.653 3.678 1.092 5.622l-7.555 26.209v2.221a2 2 0 0 1-2 1.998zM17.404 197.21h-4v-9.192l1.444-.417c19.866-5.745 41.316-8.722 63.756-8.846l.022 4c-21.529.119-42.117 2.902-61.223 8.276v6.179z"/><path d="M143.828 197.21h-4v-6.179c-19.107-5.374-39.695-8.157-61.224-8.276l.022-4c22.44.124 43.891 3.101 63.757 8.846l1.444.417v9.192z"/><path d="M117.183 197.21h-4v-6.442c-10.793-5.201-22.41-7.896-34.548-8.013l.038-4c13.168.126 25.753 3.147 37.405 8.979l1.105.553z"/><path d="M112.212 196.544h3.509c1.174 0 2.126.952 2.126 2.126v5.6H105.57l-.008-1.024a6.65 6.65 0 0 1 6.65-6.702zm-94.858 0h-3.509a2.126 2.126 0 0 0-2.126 2.126v5.6h12.277l.008-1.024a6.65 6.65 0 0 0-6.65-6.702zm122.219 0h3.509c1.174 0 2.126.952 2.126 2.126v5.6h-12.277l-.008-1.024a6.65 6.65 0 0 1 6.65-6.702z"/></g><circle cx="112.42" cy="203.935" fill="#838799" r="5.427"/><circle cx="139.782" cy="203.935" fill="#838799" r="5.427"/><circle cx="17.145" cy="203.935" fill="#838799" r="5.427"/></svg></g><g transform="translate(596.0 347.0) rotate(0.0 57.0 64.5) scale(0.7037037037037037 0.6977574400415409)"><svg width="162" height="184.878" viewBox="0 0 162 184.878"><path d="M80.54 85.681s-4.369-2.881-5.144 2.231c-.775 5.111-2.301 12.417-7.408 10.272s-5.106-5.665-5.106-5.665-4.181 7.201-11.979 5.808c-7.798-1.394-9.472-5.512-7.503-7.473s7.064 1.643 11.494-2.77 4.442-5.871-.689-5.099-16.872 3.787-19.751-2.023-2.855-8.728 4.467-8.789 19.013 2.759 18.312-.882c-.702-3.641-10.202-5.749-14.595-5.713-4.393.037-12.429-2.084-13.119-7.183s-2.056-16.757 6.694-12.454 20.416 10.04 21.905 7.11-7.975-9.414-13.082-11.56c-5.107-2.145-13.131-5.725-11.617-11.572 1.513-5.847 3.741-9.512 6.645-6.619S50.93 37.066 54.609 34.847s-.677-6.558-5.034-10.897-7.987-7.956-7.187-15.984c.8-8.029 7.396-8.813 11.777-7.391s7.926 15.249 8.627 18.89 5.083 5.063 4.393-.037-2.068-15.298.886-18.24c2.953-2.942 9.246 3.326 10.444 5.99s2.589 11.404-4.056 18.023 1.403 7.281 3.63 3.616 2.329-15.821 5.269-17.061c2.939-1.24 8.034 2.364 8.686 11.839s-3.79 15.347-8.958 20.495.64 10.934 4.332 7.257 8.122-8.09 8.909-14.66 7.371-5.896 8.787-.073 2.818 13.104-3.076 17.529c-5.895 4.425-13.266 10.321-13.29 13.238s2.904 2.893 7.334-1.52 7.42-11.731 12.527-9.585c5.107 2.145 6.486 12.344-.135 16.045s-16.146 4.51-16.908 8.163c-.763 3.653 5.07 6.521 3.581 9.451s-6.608 2.243-8.787.073c-2.177-2.169-5.82-4.327-5.82-4.327z" fill="#c6c8d0"/><path d="M48.205 77.558c3.313 4.133 6.382 8.378 9.375 12.706 2.978 4.33 5.869 8.721 8.613 13.205 2.746 4.482 5.419 9.012 7.926 13.635 2.551 4.6 4.911 9.305 7.224 14.033l-2.817 1.32c-2.204-4.715-4.458-9.413-6.904-14.014-2.402-4.624-4.972-9.161-7.616-13.653-2.642-4.495-5.433-8.902-8.311-13.249-2.885-4.335-5.88-8.633-9.045-12.726z" fill="#dddee3"/><path d="M76.003 77.684c2.382 4.127 4.431 8.354 6.326 12.689 1.868 4.337 3.556 8.762 4.918 13.308 1.331 4.553 2.421 9.197 3.015 13.955.527 4.763.591 9.62-.15 14.463l-3.3-.602c.78-4.416.844-8.981.452-13.535-.457-4.556-1.401-9.078-2.589-13.541-1.219-4.459-2.769-8.837-4.501-13.143-1.75-4.289-3.695-8.549-5.899-12.59z" fill="#c6c8d0"/><g fill="#dddee3"><path d="M105.896 184.878H72.09a4.257 4.257 0 0 1-4.244-3.848l-4.635-48.934a3.19 3.19 0 0 1 3.183-3.484h45.197a3.19 3.19 0 0 1 3.183 3.484l-4.635 48.934a4.254 4.254 0 0 1-4.243 3.848zm6.053-81.621s-.92-4.391-4.599-1.757c-3.679 2.635-9.199 6.148-11.038 1.757-1.84-4.391 2.76-7.026 2.76-7.026s-9.505 2.342-13.491-3.22-2.453-9.076 0-9.076 3.373 5.27 8.892 5.27 6.439-.878 2.76-3.513-12.878-7.905-11.038-13.174c1.84-5.27 3.679-7.026 8.279-2.635 4.599 4.391 10.119 13.174 11.958 10.539 1.84-2.635-2.76-9.661-5.519-12.296-2.76-2.635-6.439-8.783-3.679-12.296s9.199-11.418 11.958-3.513 6.439 18.444 9.199 17.566.92-10.539-.92-14.931c-1.84-4.391-4.599-11.418 0-14.052 4.599-2.635 8.279-3.513 8.279 0s-1.84 14.931 1.84 15.809c3.679.878 3.679-4.391 3.679-9.661s0-9.661 5.519-14.052 10.119-.878 11.958 2.635c1.84 3.513-4.599 14.052-6.439 16.687s0 6.148 2.76 2.635 8.279-10.539 11.958-10.539 3.679 7.612 2.76 9.954c-.92 2.342-5.519 8.49-13.798 8.49s-3.679 5.27 0 4.391 11.345-8.197 13.951-7.173c2.606 1.025 3.526 6.294-1.993 12.442s-11.958 7.026-18.397 7.026-6.439 7.026-1.84 7.026 10.119 0 14.718-3.513 8.279.878 5.519 5.27c-2.76 4.391-6.439 9.661-12.878 8.783s-14.718-1.757-16.558 0 0 3.513 5.519 3.513 11.958-2.635 13.798 1.757c1.84 4.391-3.68 11.418-10.119 9.661s-12.878-7.026-15.638-5.27c-2.76 1.757-.92 7.026-3.679 7.905s-5.519-2.635-5.519-5.27c-.002-2.636-.922-6.149-.922-6.149z"/><path d="M115.876 93.156c-2.195 2.84-4.242 5.891-6.139 8.984a112.828 112.828 0 0 0-5.221 9.563c-1.606 3.254-2.972 6.614-4.172 10.016-1.225 3.399-2.084 6.898-2.812 10.402l-3.221-.647c.869-3.664 1.879-7.287 3.248-10.768 1.344-3.487 2.853-6.903 4.596-10.19a115.808 115.808 0 0 1 5.62-9.617c2.038-3.11 4.176-6.112 6.56-9.018zM50.051 75.154s.92 4.505 4.599 1.802 9.199-6.307 11.038-1.802c1.84 4.505-2.76 7.208-2.76 7.208s10.888-2.981 14.874 2.725c3.986 5.707 1.071 9.889-1.382 9.889s-3.373-5.406-8.892-5.406-6.439.901-2.76 3.604 12.878 8.109 11.038 13.516c-1.84 5.406-3.679 7.208-8.279 2.703-4.599-4.505-10.119-13.516-11.958-10.813-1.84 2.703 2.76 9.911 5.519 12.615 2.76 2.703 6.439 9.01 3.679 12.615-2.76 3.604-9.199 11.714-11.958 3.604s-6.439-18.922-9.199-18.021-.92 10.813.92 15.318 4.599 11.714 0 14.417-8.279 3.604-8.279 0 1.84-15.318-1.84-16.219c-3.679-.901-3.679 4.505-3.679 9.911s0 9.911-5.519 14.417-10.119.901-11.958-2.703 4.599-14.417 6.439-17.12 0-6.307-2.76-2.703-8.279 10.813-11.958 10.813-3.679-7.809-2.76-10.212c.92-2.403 5.519-8.71 13.798-8.71s3.679-5.406 0-4.505-11.345 8.41-13.951 7.359-3.526-6.457 1.993-12.765 11.958-7.208 18.397-7.208 6.439-7.208 1.84-7.208-10.119 0-14.718 3.604-8.279-.901-5.519-5.406 6.439-9.911 12.878-9.01 13.199 2.243 15.038.441c1.84-1.802 1.519-4.046-4-4.046s-11.958 2.703-13.798-1.802 3.679-11.714 10.119-9.911c6.439 1.802 12.878 7.208 15.638 5.406s.92-7.208 3.679-8.109c2.76-.901 5.519 2.703 5.519 5.406.002 2.702.922 6.306.922 6.306z"/></g><ellipse cx="33.5" cy="87.534" fill="#e8e9ec" rx="3.5" ry="2.988" transform="matrix(-.998 .0638 -.0638 -.998 72.5147 172.7522)"/><path d="M55.711 60.649c-.297 1.624 1.003 3.22 2.905 3.566s3.684-.69 3.982-2.314c.297-1.624-1.003-3.22-2.905-3.566-1.902-.345-3.685.691-3.982 2.314z" fill="#e8e9ec"/><ellipse cx="126.117" cy="89.34" fill="#f3f4f6" rx="4.478" ry="2.988"/><ellipse cx="48.5" cy="100.482" fill="#e8e9ec" rx="2.5" ry="2.134"/><path d="M28.826 105.546c-.434-1.097-1.827-1.577-3.112-1.073s-1.974 1.802-1.54 2.899 1.827 1.577 3.112 1.073c1.284-.505 1.974-1.803 1.54-2.899zm49-66.737c-.434-1.097-1.827-1.577-3.112-1.073s-1.974 1.802-1.54 2.899 1.827 1.577 3.112 1.073c1.284-.505 1.974-1.803 1.54-2.899z" fill="#e8e9ec"/></svg></g><g transform="translate(518.0 201.0) rotate(64.62047681423844 -7.5 10.0) scale(-0.9066731141199226 0.9269129165314918)"><svg width="16.544" height="21.577" viewBox="0 0 16.544 21.577"><g fill="#99644C"><path d="M.142 9.954c.004.007.007.015.015.019.801.85 2.235 1.052 3.5.359l9.433-6.144c.318-.207.51-.561.51-.941V1.872A1.872 1.872 0 0 0 11.728 0h-.538c-.267 0-.525.095-.728.268L.306 8.921a.738.738 0 0 0-.164 1.033z"/><path d="M1.969 14.089c.004.007.007.015.015.019.801.85 2.235 1.052 3.5.359l9.433-6.144c.318-.207.51-.561.51-.941V6.007a1.872 1.872 0 0 0-1.872-1.872h-.537c-.267 0-.525.095-.728.268L2.133 13.056a.738.738 0 0 0-.164 1.033z"/><path d="M4.676 18.071a.035.035 0 0 0 .016.016c.839.709 2.201.745 3.309-.037l8.16-6.747c.275-.228.417-.579.376-.934l-.147-1.285a1.761 1.761 0 0 0-1.949-1.55l-.501.057c-.25.029-.481.145-.652.329L4.72 17.088a.694.694 0 0 0-.044.983z"/><path d="M6.445 21.015a.04.04 0 0 0 .014.015c.751.679 2.005.754 3.051.068l6.585-4.877a.975.975 0 0 0 .376-.849l-.095-1.189a1.623 1.623 0 0 0-1.748-1.488l-.464.037a.98.98 0 0 0-.611.282L6.516 20.11a.64.64 0 0 0-.071.905z"/></g></svg></g><g transform="translate(537.0 145.0) rotate(0.0 19.5 15.0) scale(0.9033214434613425 0.9234178773701059)"><svg width="43.174" height="32.488" viewBox="0 0 43.174 32.488"><path d="M1.595 29.936c.881 0 1.595-.714 1.595-1.595v-6.38A1.595 1.595 0 0 0 0 21.96v6.38c0 .882.714 1.596 1.595 1.596z" fill="#4192ef"/><path d="M37.219 23.481h-1v-7.939C36.219 7.523 29.679 1 21.64 1S7.062 7.523 7.062 15.542v7.939h-1v-7.939C6.062 6.972 13.051 0 21.64 0s15.578 6.972 15.578 15.542v7.939z" fill="#0671ea"/><path d="M41.579 29.936a1.595 1.595 0 0 1-1.595-1.595v-6.38a1.595 1.595 0 1 1 3.19 0v6.38c0 .881-.714 1.595-1.595 1.595z" fill="#4192ef"/><g fill="#016eea"><path d="M4.573 32.488a2.446 2.446 0 0 0 2.446-2.446v-9.783a2.446 2.446 0 1 0-4.892 0v9.783a2.446 2.446 0 0 0 2.446 2.446zm34.028 0a2.446 2.446 0 0 1-2.446-2.446v-9.783a2.446 2.446 0 1 1 4.892 0v9.783a2.446 2.446 0 0 1-2.446 2.446z"/></g></svg></g></svg>